<?xml version="1.0" encoding="utf-8"?>
<!-- Generator: Adobe Illustrator 22.0.1, SVG Export Plug-In . SVG Version: 6.00 Build 0)  -->
<svg version="1.1" id="Layer_1" xmlns="http://www.w3.org/2000/svg" xmlns:xlink="http://www.w3.org/1999/xlink" x="0px" y="0px"
	 width="806px" height="598.9px" viewBox="0 0 806 598.9" style="enable-background:new 0 0 806 598.9;" xml:space="preserve">
<style type="text/css">
	.st0{fill:none;}
	.st1{fill:#B3B3B3;}
	.st2{fill:#C9C9C9;}
	.st3{opacity:6.000000e-02;}
	.st4{fill:#FFFFFF;}
	.st5{fill:url(#SVGID_1_);}
	.st6{opacity:0.28;fill:#8C8C8C;}
	.st7{fill:url(#SVGID_2_);}
	.st8{fill:url(#SVGID_3_);}
	.st9{opacity:0.21;fill:#8C8C8C;enable-background:new    ;}
	.st10{fill:url(#SVGID_7_);stroke:#666666;stroke-miterlimit:10;}
	.st11{fill:#8C8C8C;enable-background:new    ;}
	.st12{opacity:0.2;fill:url(#SVGID_8_);enable-background:new    ;}
	.st13{fill:url(#SVGID_9_);stroke:#666666;stroke-miterlimit:10;}
	.st14{opacity:0.2;fill:url(#SVGID_10_);enable-background:new    ;}
	.st15{fill:url(#SVGID_11_);}
	.st16{fill:url(#SVGID_12_);}
	.st17{fill:url(#SVGID_13_);}
	.st18{opacity:0.25;enable-background:new    ;}
	.st19{fill:url(#SVGID_14_);}
	.st20{fill:url(#SVGID_15_);}
	.st21{fill:url(#SVGID_16_);}
	.st22{fill:#8C8C8C;}
	.st23{opacity:0.12;}
	.st24{fill:url(#SVGID_17_);}
	.st25{fill:url(#SVGID_18_);stroke:#666666;stroke-miterlimit:10;}
	.st26{fill:url(#SVGID_19_);}
	.st27{fill:url(#SVGID_20_);}
	.st28{fill:url(#SVGID_21_);}
	.st29{fill:url(#SVGID_22_);}
	.st30{fill:url(#SVGID_23_);}
	.st31{fill:url(#SVGID_24_);}
	.st32{fill:url(#SVGID_25_);}
	.st33{fill:url(#SVGID_26_);}
	.st34{fill:#B0B0B0;stroke:url(#SVGID_27_);stroke-width:2;stroke-miterlimit:10;}
	.st35{fill:url(#SVGID_28_);}
	.st36{fill:url(#SVGID_29_);}
	.st37{fill:url(#SVGID_30_);}
	.st38{opacity:0.5;}
	.st39{fill:#1C1C1C;}
	.st40{opacity:0.4;}
</style>
<pattern  y="598.9" width="40" height="103" patternUnits="userSpaceOnUse" id="SVGID_4_" viewBox="0 -231.8 40 103" style="overflow:visible;">
	<g>
		<rect y="-231.8" class="st0" width="40" height="103"/>
		<g>
			<polygon class="st0" points="0,-231.8 40,-231.8 40,-128.8 0,-128.8 			"/>
			<g>
				<polygon class="st0" points="0,-231.8 40,-231.8 40,-128.8 0,-128.8 				"/>
				<polygon points="34.5,0 37.5,0 37.5,-154.5 34.5,-154.5 				"/>
				<polygon points="26.5,0 29.5,0 29.5,-154.5 26.5,-154.5 				"/>
				<polygon points="18.5,0 21.5,0 21.5,-154.5 18.5,-154.5 				"/>
				<polygon points="10.5,0 13.5,0 13.5,-154.5 10.5,-154.5 				"/>
				<polygon points="2.5,0 5.5,0 5.5,-154.5 2.5,-154.5 				"/>
				<polygon points="34.5,-103 37.5,-103 37.5,-257.5 34.5,-257.5 				"/>
				<polygon points="26.5,-103 29.5,-103 29.5,-257.5 26.5,-257.5 				"/>
				<polygon points="18.5,-103 21.5,-103 21.5,-257.5 18.5,-257.5 				"/>
				<polygon points="10.5,-103 13.5,-103 13.5,-257.5 10.5,-257.5 				"/>
				<polygon points="2.5,-103 5.5,-103 5.5,-257.5 2.5,-257.5 				"/>
				<polygon points="34.5,-206 37.5,-206 37.5,-360.5 34.5,-360.5 				"/>
				<polygon points="26.5,-206 29.5,-206 29.5,-360.5 26.5,-360.5 				"/>
				<polygon points="18.5,-206 21.5,-206 21.5,-360.5 18.5,-360.5 				"/>
				<polygon points="10.5,-206 13.5,-206 13.5,-360.5 10.5,-360.5 				"/>
				<polygon points="2.5,-206 5.5,-206 5.5,-360.5 2.5,-360.5 				"/>
			</g>
		</g>
	</g>
</pattern>
<pattern  y="598.9" width="40" height="103" patternUnits="userSpaceOnUse" id="SVGID_5_" viewBox="0 -231.8 40 103" style="overflow:visible;">
	<g>
		<rect y="-231.8" class="st0" width="40" height="103"/>
		<g>
			<polygon class="st0" points="0,-231.8 40,-231.8 40,-128.8 0,-128.8 			"/>
			<g>
				<polygon class="st0" points="0,-231.8 40,-231.8 40,-128.8 0,-128.8 				"/>
				<polygon points="34.5,0 37.5,0 37.5,-154.5 34.5,-154.5 				"/>
				<polygon points="26.5,0 29.5,0 29.5,-154.5 26.5,-154.5 				"/>
				<polygon points="18.5,0 21.5,0 21.5,-154.5 18.5,-154.5 				"/>
				<polygon points="10.5,0 13.5,0 13.5,-154.5 10.5,-154.5 				"/>
				<polygon points="2.5,0 5.5,0 5.5,-154.5 2.5,-154.5 				"/>
				<polygon points="34.5,-103 37.5,-103 37.5,-257.5 34.5,-257.5 				"/>
				<polygon points="26.5,-103 29.5,-103 29.5,-257.5 26.5,-257.5 				"/>
				<polygon points="18.5,-103 21.5,-103 21.5,-257.5 18.5,-257.5 				"/>
				<polygon points="10.5,-103 13.5,-103 13.5,-257.5 10.5,-257.5 				"/>
				<polygon points="2.5,-103 5.5,-103 5.5,-257.5 2.5,-257.5 				"/>
				<polygon points="34.5,-206 37.5,-206 37.5,-360.5 34.5,-360.5 				"/>
				<polygon points="26.5,-206 29.5,-206 29.5,-360.5 26.5,-360.5 				"/>
				<polygon points="18.5,-206 21.5,-206 21.5,-360.5 18.5,-360.5 				"/>
				<polygon points="10.5,-206 13.5,-206 13.5,-360.5 10.5,-360.5 				"/>
				<polygon points="2.5,-206 5.5,-206 5.5,-360.5 2.5,-360.5 				"/>
			</g>
		</g>
	</g>
</pattern>
<pattern  y="598.9" width="71" height="71" patternUnits="userSpaceOnUse" id="SVGID_6_" viewBox="0 -71 71 71" style="overflow:visible;">
	<g>
		<rect y="-71" class="st0" width="71" height="71"/>
		<g>
			<polygon class="st0" points="0,-71 71,-71 71,0 0,0 			"/>
			<g>
				<polygon class="st0" points="0,-71 71,-71 71,0 0,0 				"/>
				<path class="st1" d="M41.8-35.5c0,3.5-2.8,6.3-6.3,6.3s-6.3-2.8-6.3-6.3s2.8-6.3,6.3-6.3S41.8-39,41.8-35.5z"/>
			</g>
		</g>
	</g>
</pattern>
<g>
	<g>
		<g>
			<path class="st2" d="M806,508.8c0,0-4.5,53.4-36.2,74.9s-56.7,14-56.7,14s-12.7-3.1-28.2-13.5c-0.5-0.3-0.9-0.6-1.4-0.9
				c-0.4-0.3-0.8-0.5-1.1-0.8c-5.8-4.1-11.9-9.2-17.8-15.4c-1.9-2-3.8-4.2-5.7-6.5c-0.7-0.9-1.5-1.9-2.2-2.8
				c-0.5-0.6-0.9-1.3-1.4-1.9c-1.1-1.5-2.2-3.2-3.4-4.9c-2.6-4-5.3-8.7-8-13.7c-0.9-1.6-1.7-3.3-2.6-5c-4-7.8-8-16.3-11.8-25.1
				c-16.7-38.2-30.9-80.5-30.9-80.5s-2.2-3-5.7-5.3s-6.3-2.6-6.3-2.6L403,418.8l-183.7-0.1c0,0-2.8,0.3-6.3,2.6s-5.7,5.3-5.7,5.3
				s-11.5,34.4-26,69.1c-0.2,0.6-0.5,1.1-0.7,1.7c-1.4,3.2-2.7,6.5-4.1,9.7c-3.8,8.8-7.8,17.3-11.8,25.1c-0.9,1.7-1.8,3.4-2.6,5
				c-2.7,5-5.3,9.6-7.9,13.6c-1.2,1.8-2.3,3.4-3.4,5c-0.4,0.6-0.8,1.1-1.3,1.7c-0.7,1-1.5,1.9-2.2,2.8c-1.8,2.3-3.7,4.4-5.6,6.4
				c-5.8,6.3-11.9,11.3-17.6,15.4c-0.4,0.3-0.8,0.5-1.2,0.8c-0.4,0.3-0.8,0.6-1.2,0.9c-15.8,10.7-28.8,13.9-28.8,13.9
				s-25,7.5-56.7-14S0,508.8,0,508.8s0.3-67,4.6-90.2c2.9-15.5,17.7-102.5,32-144.6c9.3-27.7,13-53,17-64.9c12-35.7,33-65.7,33-65.7
				s9.5-13,10.1-16.3c0.6-3.3,4.7-8.6,4.7-8.6s17.5-5.7,62.3-5.7c44.9,0,53.7,5,53.7,5s2.4,3,5.9,4.8c3.5,1.9,11.7,1.7,11.7,1.7
				h33.4c0,0,0.5-0.1,0.9,0.3c0.3,0.3,0.6,2,0.6,2H536c0,0,0.2-1.6,0.6-2c0.3-0.4,0.9-0.3,0.9-0.3h33.4c0,0,8.2,0.1,11.7-1.7
				c3.5-1.9,5.9-4.8,5.9-4.8s8.8-5,53.7-5c44.9,0,62.3,5.7,62.3,5.7s4.1,5.3,4.7,8.6c0.6,3.2,10.1,16.3,10.1,16.3s21,30,33,65.7
				c3.9,11.9,7.6,37.2,17,64.9c14.3,42.1,29.1,129.1,32,144.6C805.7,441.8,806,508.8,806,508.8z"/>
			<g class="st3">
				<path class="st4" d="M36.6,276c9.4-27.7,13.1-53,17-64.9c12-35.7,33-65.7,33-65.7s9.5-13.1,10.1-16.3c0.6-3.3,4.7-8.6,4.7-8.6
					s17.4-5.7,62.3-5.7c44.8,0,53.7,5,53.7,5s2.4,2.9,5.9,4.8c3.5,1.8,11.7,1.7,11.7,1.7h33.4c0,0,0.6-0.1,0.9,0.3
					c0.4,0.4,0.6,2,0.6,2H403h133.1c0,0,0.3-1.7,0.6-2c0.4-0.4,0.9-0.3,0.9-0.3H571c0,0,8.2,0.2,11.7-1.7c3.5-1.8,5.9-4.8,5.9-4.8
					s8.8-5,53.7-5s62.3,5.7,62.3,5.7s4.1,5.3,4.7,8.6c0.6,3.3,10.1,16.3,10.1,16.3s21,30,33,65.7c4,11.9,7.7,37.2,17,64.9
					c14.3,42.1,29.1,129.1,32,144.6c3.9,20.9,4.6,77.3,4.7,88.3c0-0.1,0-0.1,0-0.1s-0.3-66.9-4.7-90.1
					c-2.9-15.5-17.7-102.5-32-144.6c-9.4-27.7-13.1-53-17-64.9c-12-35.7-33-65.7-33-65.7s-9.5-13.1-10.1-16.3
					c-0.6-3.3-4.7-8.6-4.7-8.6s-17.4-5.7-62.3-5.7s-53.7,5-53.7,5s-2.4,2.9-5.9,4.8c-3.5,1.8-11.7,1.7-11.7,1.7h-33.4
					c0,0-0.6-0.1-0.9,0.3c-0.4,0.4-0.6,2-0.6,2H403H269.9c0,0-0.3-1.7-0.6-2c-0.4-0.4-0.9-0.3-0.9-0.3H235c0,0-8.2,0.2-11.7-1.7
					c-3.5-1.8-5.9-4.8-5.9-4.8s-8.8-5-53.7-5c-44.8,0-62.3,5.7-62.3,5.7s-4.1,5.3-4.7,8.6c-0.6,3.3-10.1,16.3-10.1,16.3
					s-21,30-33,65.7c-4,11.9-7.7,37.2-17,64.9c-14.3,42.1-29.1,129.1-32,144.6C0.3,441.8,0,508.8,0,508.8v0.1
					c0.1-10.9,0.7-67.4,4.7-88.3C7.6,405.2,22.3,318.1,36.6,276z"/>
			</g>
			<linearGradient id="SVGID_1_" gradientUnits="userSpaceOnUse" x1="274.7" y1="440.4999" x2="274.7" y2="283.5">
				<stop  offset="0" style="stop-color:#949494"/>
				<stop  offset="0.2675" style="stop-color:#989898;stop-opacity:0.7312"/>
				<stop  offset="0.5446" style="stop-color:#A4A4A4;stop-opacity:0.4527"/>
				<stop  offset="0.8251" style="stop-color:#B9B9B9;stop-opacity:0.1708"/>
				<stop  offset="0.995" style="stop-color:#C9C9C9;stop-opacity:0"/>
			</linearGradient>
			<path class="st5" d="M351.2,360c0-42.2-34.3-76.5-76.5-76.5s-76.5,34.3-76.5,76.5c0,0.7,0,1.3,0.1,2c0,0.7-0.1,1.3-0.1,2
				c0,42.2,34.3,76.5,76.5,76.5s76.5-34.3,76.5-76.5c0-0.7,0-1.3-0.1-2C351.1,361.3,351.2,360.6,351.2,360z"/>
			<circle class="st2" cx="274.7" cy="356" r="73"/>
			<circle class="st6" cx="274.7" cy="356" r="51.5"/>
			<linearGradient id="SVGID_2_" gradientUnits="userSpaceOnUse" x1="531.3" y1="440.4999" x2="531.3" y2="283.5">
				<stop  offset="0" style="stop-color:#949494"/>
				<stop  offset="0.2675" style="stop-color:#989898;stop-opacity:0.7312"/>
				<stop  offset="0.5446" style="stop-color:#A4A4A4;stop-opacity:0.4527"/>
				<stop  offset="0.8251" style="stop-color:#B9B9B9;stop-opacity:0.1708"/>
				<stop  offset="0.995" style="stop-color:#C9C9C9;stop-opacity:0"/>
			</linearGradient>
			<path class="st7" d="M607.8,360c0-42.2-34.3-76.5-76.5-76.5s-76.5,34.3-76.5,76.5c0,0.7,0,1.3,0.1,2c0,0.7-0.1,1.3-0.1,2
				c0,42.2,34.3,76.5,76.5,76.5s76.5-34.3,76.5-76.5c0-0.7,0-1.3-0.1-2C607.8,361.3,607.8,360.6,607.8,360z"/>
			<circle class="st2" cx="531.3" cy="356" r="73"/>
			<circle class="st6" cx="531.3" cy="356" r="51.5"/>
			<linearGradient id="SVGID_3_" gradientUnits="userSpaceOnUse" x1="271.1" y1="198" x2="534.9414" y2="198">
				<stop  offset="0" style="stop-color:#462523"/>
				<stop  offset="0.25" style="stop-color:#CB9B51"/>
				<stop  offset="0.4" style="stop-color:#F6E27A"/>
				<stop  offset="0.4" style="stop-color:#F6E27A"/>
				<stop  offset="0.5" style="stop-color:#F6F2C0"/>
				<stop  offset="0.6" style="stop-color:#F6E27A"/>
				<stop  offset="0.75" style="stop-color:#CB9B51"/>
				<stop  offset="1" style="stop-color:#462523"/>
			</linearGradient>
			<path class="st8" d="M534.8,128c-0.4-3.2-3.3-5.6-6.5-5.6l0,0H403l0,0H277.7l0,0c-3.2,0-6.1,2.3-6.5,5.6
				c-0.1,0.7-0.1,1.4-0.1,2.1v127.4c0,8.9,7.2,16.1,16.1,16.1H403l0,0h115.8c8.9,0,16.1-7.2,16.1-16.1V130.1
				C535,129.4,534.9,128.7,534.8,128z"/>
			<circle class="st6" cx="652.3" cy="244.8" r="94.3"/>
			<g>
				<circle class="st6" cx="153.7" cy="244.8" r="94.3"/>
				<path d="M230.4,254.1l9.5-8.9c0.5-0.5,0.5-1.2,0-1.7l-9.5-8.9c-0.7-0.7-1.9-0.2-1.9,0.8v8.9v8.9
					C228.4,254.2,229.6,254.7,230.4,254.1z"/>
				<path d="M145,169.8h8.9h8.9c1,0,1.5-1.2,0.8-1.9l-8.9-9.5c-0.5-0.5-1.2-0.5-1.7,0l-8.9,9.5C143.5,168.6,144,169.8,145,169.8z"/>
				<path d="M77.5,234.6l-9.5,8.9c-0.5,0.5-0.5,1.2,0,1.7l9.5,8.9c0.7,0.7,1.9,0.2,1.9-0.8v-8.9v-8.9
					C79.4,234.4,78.2,233.9,77.5,234.6z"/>
				<path d="M162.8,318.8h-8.9H145c-1,0-1.5,1.2-0.8,1.9l8.9,9.5c0.5,0.5,1.2,0.5,1.7,0l8.9-9.5C164.3,320,163.8,318.8,162.8,318.8z
					"/>
			</g>
		</g>
	</g>
</g>
<g>
	<g>
		<path class="st9" d="M105.2,544.5c-40.5-2.8-75.8-20.3-87.3-30.5C6.4,503.7,0.4,482.4,0.4,482.4C0,497.4,0,508.7,0,508.7
			s4.5,53.4,36.2,74.9s56.7,14,56.7,14s33.1-8.2,57.8-41.9c4.5-6.2,9.3-14.5,14.1-23.8C164.7,531.9,145.6,547.2,105.2,544.5z"/>
		<g>
			<linearGradient id="SVGID_7_" gradientUnits="userSpaceOnUse" x1="20.13" y1="457.5846" x2="181.31" y2="457.5846">
				<stop  offset="0" style="stop-color:#462523"/>
				<stop  offset="0.25" style="stop-color:#CB9B51"/>
				<stop  offset="0.4" style="stop-color:#F6E27A"/>
				<stop  offset="0.4" style="stop-color:#F6E27A"/>
				<stop  offset="0.5" style="stop-color:#F6F2C0"/>
				<stop  offset="0.6" style="stop-color:#F6E27A"/>
				<stop  offset="0.75" style="stop-color:#CB9B51"/>
				<stop  offset="1" style="stop-color:#462523"/>
			</linearGradient>
			<path class="st10" d="M141.6,566.7c-5.9-0.6-11.7-1.2-17.6-1.8c-1.9-0.2-3.6-0.9-5.5-1.3c-0.8-0.2-1.6-0.1-2.5-0.3
				c-3.5-0.5-7-1.2-10.5-1.6c-4.3-0.5-8.6-1-12.9-1.3c-4.3-0.3-8.7-0.4-13.1-0.7c-1.4-0.1-2.5,0.4-3.5,1.4c-1.1,1.1-1.2,1.8,0.3,2.5
				c2.9,1.3,5.9,2.6,9,3.5c4.2,1.3,8.5,2.5,12.8,3.2c5.9,0.9,11.8,1.3,17.7,2c2.1,0.2,4.1,0.3,6.2,0.8c-0.9,0.1-1.8,0.3-2.7,0.3
				c-6.2,0.1-12,1.9-17.9,3.5c-1.5,0.4-3.1,0.7-4.1,2.3c-0.4,0.7-1.8,0.7-2.8,1c-2,0.6-4.1,1.2-6.1,1.8c-0.4,0.1-0.8,0.5-1.2,0.8
				c0,0.2,0.1,0.3,0.1,0.5c1.1,0,2.3,0,3.4,0c1.7,0,3.3,0.3,5,0.9c1.9,0.7,4.2,0.6,6.3,0.6c5.5-0.1,11-0.4,16.5-0.7
				c1.1-0.1,2.1-0.2,3.2-0.3c1.7-0.2,3.3-0.5,5-0.9H120c0-0.2,0-0.4,0-0.5c1.4-0.1,2.7-0.2,4.1-0.3C129.8,578,135.8,573,141.6,566.7
				z M164.3,449.7c-1-0.5-1.6,0.4-1.9,1.2c-1.2,3-2.4,6.1-3.5,9.2c-5.1,15.3-8.5,31.1-11.4,46.9c-0.1,0.5-0.2,1-0.5,1.4
				c1.4-18.9,6.1-37,13.7-54.4c-0.2-0.1-0.3-0.1-0.5-0.2c-0.4,0.9-0.9,1.7-1.3,2.6c-5.8,14.3-9.9,29-12.8,44.2
				c-2.5,12.8-3.1,25.6-2.5,38.6c0.1,3.1,0.5,6.1,0.7,9.2c0,0.9-0.1,1.8-0.2,3c-1.6-2-2.8-3.6-4.1-5.3c-0.1-0.2-0.1-0.5-0.1-0.7
				c0.2-4.4,0.3-8.8,0.6-13.2c0.6-7.5,1.4-14.9,2.1-22.3c0.5-4.6,1.1-9.1,1.4-13.7c0.2-1.9-0.3-3.9-0.3-5.8c0-0.5,0.1-1,0.4-1.4
				c0.7-0.9,1-1.7-0.3-2.6c0.6-0.1,0.8-0.1,1.1-0.1c0.7-5,1.5-10,2.2-15c0.1,0,0.4-0.2,0.5-0.4c0.4-2.1,0.8-4.3,1.2-6.4
				c0.3-1.5,0.8-2.9,1.2-4.4c0.5-2.2,1.1-4.5,1.5-6.7c0.2-1.1,0-2.3,0-3.4c-0.2,0-0.4-0.1-0.6-0.2c-0.7,1-1.6,2-2.1,3.1
				c-1.8,4.4-3.6,8.8-5,13.4c-1.5,4.8-2.9,9.6-3.7,14.6c-1.5,8.5-2.6,17.2-3.8,25.8c-0.5,3.7-1,7.4-1.2,11.2
				c-0.3,3.7-0.3,7.3-0.4,11c-0.1,3.6,0,7.1,0,10.7c-1.9-1-2.6-2.4-2.1-4.3c0.1-0.4,0.2-0.9,0-1.3c-1.9-5.1-1.5-10.3-0.7-15.6
				c0.3-2.2,0.8-4.3,0.8-6.5c0-2.1,0.2-4.2,0.8-6.2c0.1-0.2-0.2-0.5-0.4-0.9c1.4-1.4,1.1-3,0.4-5c-0.5,2.1-0.9,3.9-1.3,5.8
				c-0.1,0-0.3,0-0.4-0.1c0.1-1,0.1-1.9,0.3-2.9c0.9-4.5,1.8-8.9,2.8-13.4c0.1-0.4,0.2-0.8,0.3-1.2c1.7-4.8,2.5-9.8,3.7-14.7
				c1.1-4.6,2.2-9.1,3.2-13.7c0.9-4.1,1.6-8.3,2.5-12.4c0.4-1.9,1.1-3.7,1.6-5.6c0.1-0.2,0.2-0.6,0.1-0.7c-1.2-1.2-0.3-2.4-0.3-3.6
				c0-0.4,0.1-0.9-0.1-1.2c-0.4-0.7-1-1.2-1.4-1.8c-0.5,0.5-1.2,0.9-1.4,1.5c-2.3,6-4.8,11.9-6.7,18.1c-1.9,6-3.3,12.1-4.9,18.2
				c-0.4,1.6-1,3.1-1.3,4.7c-0.4,1.9-0.6,3.8-0.9,5.7c-0.2,1.2-0.4,2.3-0.7,3.5c-0.1,0.5,0.1,1.4-1,1.4c-0.1,0-0.2,0.4-0.3,0.6
				c-0.4,2.4-0.9,4.7-1.2,7.1c-0.8,5.6-1.6,11.2-2.1,16.8c-0.6,5.5,0.7,10.8,1.9,16.2c0.1,0.4,0.5,0.7,0.6,1.1
				c0.2,0.4,0.3,0.9,0.4,1.3c-0.2,0.1-0.3,0.1-0.4,0.2c-1.7-2.2-3.6-4.3-5-6.7c-0.7-1.1-0.5-2.8-0.5-4.3c0-2.9,0.1-5.8,0.3-8.7
				c0.5-6,1-12,1.6-18c0.6-6.6,1.3-13.3,1.9-19.9c0.3-3.2,0.2-6.4,0.5-9.5c0.2-2.2,0.6-4.5,0.8-6.7c0.5-4.7,1-9.4,1.4-14.2
				c0.1-1.8,0-3.6,0.1-5.4c0-0.6,0.2-1.1,0.2-1.7c0-0.8,0-1.6-0.1-2.3c-0.2,0-0.4-0.1-0.6-0.1c-0.9,1.8-2,3.6-2.6,5.5
				c-1.2,3.8-2.1,7.7-3.2,11.5c-2.4,8.9-3.8,18-4.1,27.1c-0.4,11.2-0.5,22.5-0.6,33.7c0,2.6,0.4,5.2,0.5,8c-1.1-1.7-2.2-3.4-3.3-5.2
				c1.2-1.9,0.7-4,0.5-6c-0.3-3.3,0.3-6.5,0.6-9.7c0.1-1.1-0.1-2.3-0.2-3.4c0-0.1-0.1-0.2,0-0.3c1.7-1.8,0.2-4.1,1.1-6.1
				c-0.2,0-0.4,0-0.5,0c-0.1-0.4-0.3-0.8-0.3-1.2c-0.1-0.7-0.1-1.3,0-2c0-0.7,0.2-1.5,0.3-2.2c0.1-0.8,0.1-1.6,0.1-2.4
				c0-0.5-0.2-1-0.2-1.5c0-1.3,0.3-2.7,0.3-4c0-2.5-0.2-5-0.2-7.5c0-1.7,0.3-3.4,0.3-5.2c0-1.6-0.1-3.1,0-4.7c0-0.6,0.2-1.1,0.5-1.7
				c-0.3-0.9-0.6-1.8-0.9-2.6c-0.1,0-0.2,0-0.3,0.1c0.5-3.3,1-6.6,1.6-9.8c0.8-4.7,1.6-9.3,2.5-14c0.3-1.9,0.6-3.8,1-5.7
				c0.6-2.7,1.3-5.3,2.1-7.9c1.3-4.4,2.5-8.7,4-13c0.6-1.7,1.5-3.4,2.2-5.1c0.3-0.8,1.1-1.6,0.1-2.7c-1.6,1.5-2.6,3.3-3.3,5.2
				c-2,5.8-4,11.6-5.9,17.5c-0.1,0.4-0.3,0.9-0.7,1.3c0.8-3.3,1.6-6.6,2.5-9.9c-0.2,0-0.4-0.1-0.5-0.2c-0.8,2.4-1.6,4.7-2.3,7
				c-1.7-1-1.1,0.6-1.3,1.1c0.1-0.2,0.3-0.4,0.4-0.6c-0.2,1.2,0.5,2.7-1.2,3.5c-0.2,0.1-0.1,0.7-0.2,1c-0.4,2-0.4,4.2-1.7,5.9
				c0.1,0.6,0.4,1.1,0.3,1.5c-0.8,2.7-1.7,5.4-2.4,8.2c-0.5,2-0.8,4.1-1.3,6.2c-2.8,12.6-5.6,25.1-8.4,37.7
				c-0.7,3.2-1.3,6.5-1.9,9.7c-0.1,0.4-0.2,0.7-0.4,1.5c-1.1-1.9-2-3.5-2.8-5.1c-0.2-0.4,0-1,0.2-1.4c0.4-1,0.8-1.9,1.3-3
				c-1.6-0.2-1.6-1.3-1.4-2.5c0.6-5.9,0.5-11.8,0.4-17.8c-0.3-10.4,0.3-20.7,1.7-31c0.7-4.7,1-9.4,1.5-14.2c0.4-4,0.9-7.9,1.4-11.9
				c0.4-2.7,0.8-5.4,1-8.2c-0.2,0.5-0.4,1-0.6,1.4c-3.3,8.4-5.1,17.2-6.4,26.1c-1.4,9-2.6,18.2-3.6,27.3c-0.8,7.1-1.2,14.2-1.8,21.2
				c0,0.3,0,0.6-0.1,1.3c-0.9-1.3-1.5-2.4-1.1-3.8c0.4-1.5,0.9-3,1.3-4.5c0.2-1,0.5-2.2-0.8-2.8c-0.1,0-0.2-0.2-0.3-0.3
				c-0.9-2.8-2.5-5.4-2.3-8.6c0.1-2.3-0.3-4.7-0.5-7c-0.1-1.2-0.2-2.3-0.3-3.5c-0.3-4.2-0.4-8.4-1-12.5c-1-7-0.5-14-0.9-21
				c-0.2-3.3-0.3-6.5-0.2-9.8c0-2.9,0.3-5.7,0.5-8.6c0.1-2.7,0.2-5.4,0.3-8.2c0.1-2.4,0.2-4.7,0.2-7.1c0-0.9-0.3-1.8-0.5-2.8
				c-1.5,0.6-1.9,1.5-2.1,2.6c-0.9,5.2-1.9,10.5-2.6,15.7c-1,7.5-2,14.9-2.4,22.4c-0.4,8.7-0.2,17.5,0,26.2
				c0.1,3.6,0.6,7.2,0.9,10.8c0,0.3,0,0.7,0,1.5c-0.5-0.7-0.7-1.1-0.9-1.5c-1.5-3-3.1-6-4.6-9c-0.3-0.7-0.3-1.6-0.2-2.4
				c0.1-1.7,0.4-3.3,0.4-5c0-5.6,0-11.3-0.1-16.9c0-1.4-0.1-2.9-0.2-4.3c-0.2-3.2-0.4-6.4-0.6-9.6c-0.3-5.2-0.7-10.4-0.9-15.7
				c-0.1-3.7,0-7.4,0-11.1c0-3.7-0.1-7.3-0.1-11c0-3.4,0.2-6.8,0.4-10.2c0.2-2.4,0.6-4.8,0.9-7.2c0-0.3-0.1-0.7-0.3-0.8
				c-0.2-0.1-0.7,0-0.9,0.2c-0.4,0.6-0.9,1.2-1,1.9c-1,6.2-2.1,12.4-2.8,18.7c-0.9,7.7-1.5,15.4-2.1,23.2c-0.6,8.4-0.8,16.7,0,25.1
				c0.3,3.6,0.5,7.2,0.7,10.8c-0.1,0-0.3,0.1-0.4,0.1c-0.9-1.9-1.8-3.8-2.7-5.8c-0.1-0.3-0.1-0.7,0.1-0.9c0.9-1.4,0.7-2.9,0.7-4.4
				c0-3.1,0.1-6.2-0.1-9.3c-0.1-1.6-0.1-3.3-1-4.9c-0.9-1.6-0.8-3.7-1.3-5.5c-0.5-1.8-1.2-3.6-1.5-5.4c-0.5-2.4-0.7-4.9-0.9-7.3
				c-0.4-3.3-0.8-6.6-1.1-9.9c-0.2-2.6-0.3-5.2-0.3-7.7c-0.1-5.6-0.2-11.2-0.3-16.7c0-0.7,0.2-1.9-0.9-1.8c-0.4,0-0.9,1.2-1,1.9
				c-0.5,8.5-1,17.1-1.5,25.6c-0.4,6.4,0.4,12.7,1,19c0.4,4,0.7,7.9,0.9,12c-0.8-1.7-1.6-3.5-2.5-5.2c-1.4-2.8-2.2-5.7-2.6-8.7
				c-0.3-2.5-0.7-5.1-1.2-7.6c-0.4-2-1.1-4-1.5-6.1c-0.4-1.7-0.5-3.4-0.8-5.1c-0.2-1.5-0.4-3-0.8-4.5c-0.4-1.7-1.1-3.3-1.6-5
				c-0.2-0.8-0.2-1.7-0.4-2.6c-0.2-1.3-0.5-2.6-0.8-3.9c-0.2-1.4-0.3-2.8-0.5-4.1c-0.1-0.6-0.3-1.3-0.3-1.9
				c-0.1-1.8-0.1-3.6-0.4-5.3c-0.1-0.7-0.9-1.3-1.6-1.7c-0.1-0.8-0.2-1.7-0.2-2.5c0-0.5,0-1,0.2-1.4c0.7-1.2,0.3-2.3,0.2-3.5
				c-0.2-1.9,0.1-3.8,0.2-5.7c0-0.4-0.1-0.9-0.3-1.7c-0.5,0.7-1,1.1-1.1,1.5c-0.4,1.7-1.1,3.5-1,5.2c0.1,7.9-0.1,15.8,0.6,23.6
				c0.6,6.9,2.2,13.7,3.4,20.6c0.3,1.7,0.5,3.5,0.8,5.2c-0.1,0.1-0.3,0.1-0.4,0.2c-0.5-0.6-1-1.1-1.4-1.7c-2.7-4.3-6.2-7.9-9.9-11.4
				c-2-1.9-4-3.8-5.2-6.3c-0.7-1.5-2.2-0.7-3.3-1.1c-0.1,0.1-0.3,0.2-0.4,0.2c0.4,0.9,0.6,1.9,1.1,2.7c2.8,4.2,5.6,8.5,8.6,12.6
				c4.3,5.9,8.8,11.7,13.3,17.5c0.4,0.5,0.8,1.1,1.1,1.8c-3-2.5-5.9-5.2-8.9-7.6c-3.1-2.5-6.2-4.8-9.4-7.2c-3-2.3-6-4.7-9-7
				c-0.1,0.1-0.3,0.2-0.4,0.2c0.3,0.8,0.5,1.6,0.9,2.3c3.9,5.8,8.6,10.8,14.1,15.1c4.4,3.5,8.7,7.2,13.1,10.7
				c1.8,1.4,3.8,2.4,5.8,3.5c0.2,0.1,0.4,0.3,0.5,0.5c1.4,2.8,2.8,5.6,4.2,8.5c0.1,0.2,0,0.4,0,0.8c-0.6-0.4-1-0.6-1.3-0.8
				c-3.1-2.5-6-5.3-9.2-7.6c-4.2-3.1-8.7-5.9-13-9c-2.6-1.9-5.1-4-7.7-5.9c-0.4-0.3-1.2-0.2-1.8-0.3c0.1,0.5,0.1,1,0.3,1.4
				c2.8,4.2,6.4,7.8,10.3,11c3,2.5,5.9,5.2,9.5,7c4.5,2.2,9,4.4,13.5,6.6c0.4,0.2,0.9,0.5,1,0.9c1.5,3.1,2.8,6.3,4.2,9.4
				c0.1,0.2,0,0.3,0,0.8c-2.1-1.4-4.1-2.7-6.1-3.9c-2.2-1.4-4.4-2.6-6.6-4c-1.4-0.9-2.9-1.8-4.3-2.7c-5.4-3.7-10.7-7.4-16.1-11.2
				c-0.2-0.2-0.5-0.3-0.7-0.5c-1-1.1-2-2.2-3-3.3c-0.6,0.6-1,0.9-1.4,1.3c0.1,0,0.2,0.1,0.3,0.1c-0.2,0.6-0.4,1.3-0.5,1.9
				c-0.1,0.5-0.1,1.1,0.1,1.4c4.9,6.6,11,11.6,18.3,15.4c6.2,3.2,12.6,6.1,19.4,7.8c2.1,0.5,2.7,1.7,3.4,3.2
				c1.4,2.8,2.7,5.7,4.1,8.5c0.2,0.5,0.4,1,0.6,1.5c-0.1,0.1-0.2,0.2-0.3,0.3c-0.9-0.7-1.9-1.5-2.8-2.1c-1.6-1.1-3.1-2.3-4.7-3.3
				c-2.7-1.6-5.5-3.1-8.2-4.6c-2.5-1.4-4.9-2.7-7.4-4c-2.8-1.5-5.6-2.9-8.3-4.3c-0.5-0.3-0.9-0.8-1.4-1.1c-1.8-1.1-3.5-2.1-5.3-3.2
				c-0.8-0.5-1.7-1-2.2-1.8c-1.1-1.7-2.6-1.5-4.2-1.1c-1,0.3-1.3,0.7-0.8,1.7c1.2,2.4,3.2,4,5.2,5.7c8.8,7.1,19.3,11.2,29.5,15.7
				c3.5,1.5,6.8,3.4,10.3,4.8c1.9,0.8,3,2,3.8,3.7c1.5,2.9,3.2,5.6,4.8,8.4c0.4,0.6,0.7,1.3,1.1,2.2c-1.6,0-2.7-0.2-3.7-1
				c-2-1.5-4-2.8-5.9-4.5c-1.9-1.7-4.2-2.6-6.4-3.7c-1.3-0.6-2.5-1.2-3.8-1.8c-3.4-1.4-6.8-2.7-10.2-4.2c-2.7-1.1-5.2-2.4-7.9-3.6
				c-1.8-0.8-3.7-1.6-5.4-2.5c-2.4-1.3-4.9-2.3-6.8-4.3c-0.6-0.6-2-0.9-2.8-0.5c-0.8,0.4-1.3,1.5-1.8,2.5c-0.1,0.3,0.4,1,0.8,1.4
				c7.2,7.8,16,13.4,25.9,16.9c4.5,1.6,9.2,2.7,13.8,4.1c1.6,0.5,3.2,0.8,4.7,1.5c3,1.4,6.1,2.3,9.5,2.4c1.1,0,1.7,0.6,2.1,1.7
				c0.4,1,1.1,1.9,1.8,2.8c1.5,2.1,3,4.3,4.5,6.4c-0.1,0.1-0.2,0.3-0.3,0.4c-0.5,0-1,0.1-1.4,0c-3.5-1.3-7.1-2.4-10.2-4.5
				c-2-1.4-4.3-2.4-6.6-3.3c-3.6-1.5-7.2-2.9-10.9-4.1c-4.2-1.4-8.5-2.4-12.7-3.9c-3.9-1.4-7.6-3-11.4-4.6c-0.6-0.3-1-0.9-1.5-1.3
				c-0.5-0.3-1.1-0.6-1.6-0.6c-1.2-0.1-2.4,0-3.3,0c-0.6,1.2-1,2.2-1.5,3.1c-0.5,0.8-0.4,1.3,0.3,1.9c3.1,2.6,6.5,4.7,10.1,6.3
				c4,1.8,8,3.8,12,5.7c0.3,0.1,0.5,0.3,0.7,0.8c-2.6-0.8-5.2-1.6-7.7-2.5c-1.8-0.6-3.6-1.3-5.4-2c-1-0.4-1.8-1.1-2.7-1.5
				c-0.4-0.2-0.9-0.5-1.3-0.3c-1.5,0.6-3,1.3-4.5,2c-1,0.5-1,1.3-0.3,2.2c3,4.1,7.3,6.5,11.7,8.9c6.8,3.7,14.2,5.4,21.5,7.4
				c5.8,1.6,11.6,3.5,17.5,4.6c5.6,1.1,11.5,1.4,17.2,2.1c1.3,0.1,2.5,0.2,2.2,2.1c-0.2,1.3,1.1,1.6,2,1.5c2.5-0.5,3.5,1,4.4,2.9
				c1.2,2.3,2.7,4.5,4,6.8c0.2,0.4,0.4,0.8,0.4,1.4c-0.9-0.6-1.6-1.5-2.6-1.8c-2.6-1-5.3-1.7-8-2.5c-6.1-1.8-12.3-3.5-18.3-5.5
				c-3.2-1.1-6.2-2.6-9.2-4.2c-2.4-1.3-4.5-2.9-6.8-4.3c-1.1-0.6-2.3-1.2-3.4-1.6c-6-2.3-12.2-4.1-18.6-5.1c-0.3,0-0.6-0.2-1-0.2
				c-1.8-0.5-4,0.3-5.1,1.7c-0.6,0.9,0.2,1.4,0.6,1.9c2.2,2.4,5,4.1,7.9,5.5c8.5,4.2,17.1,7.8,26.3,10.3c9.7,2.7,19.6,4.5,29.5,5.9
				c3.1,0.4,6.1,0.8,9.2,1.1c0.2,0,0.5,0.1,0.6,0.3c1.3,2.1,2.5,4.2,3.8,6.4c-1.8-0.4-3.2-0.9-4.7-1.1c-3.6-0.4-7.2-0.5-10.8-1.1
				c-4.9-0.8-9.8-1.6-14.6-3c-4.5-1.3-8.8-3.2-13.3-4.7c-3-1-6-1.7-9.1-2.5c-2.2-0.6-4.3-1.2-6.5-1.9c-3.9-1.3-7.7-2.6-11.6-4
				c-1.5-0.5-2.8,0.6-2.8,2.2c0,1.8,0.6,3,2.2,4c8.6,5.9,18.3,9.2,28.3,11.6c3.2,0.8,6.6,0.9,9.9,1.1c6.8,0.4,13.6,0.5,20.5,0
				c2-0.2,4,0.2,6,0.3c2,0.1,4.1,0,6.2,0.1c0.4,0,0.9,0.1,1.1,0.4c2.1,3,4.2,6.1,6.3,9.2c0.1,0.1,0.1,0.3,0.1,0.4
				c-1.8-0.3-3.5-0.6-5.3-0.9c-4-0.8-8-1.9-12-2.2c-5.3-0.3-10.5-1.2-15.6-2.4c-1.1-0.3-2.2-0.9-3.3-1.2c-3.6-0.9-7.3-1.7-10.9-2.5
				c-3.9-0.9-7.7-1.8-11.5-2.6c-3.3-0.7-6.7-1.4-10-2.2c-0.6-0.1-1.3-0.4-1.8-0.8c-0.9-0.8-1.6-0.7-2.4,0c-0.7,0.7-1.5,1.3-2.2,2
				c-1,1.1-0.9,2.1,0.3,3c0.6,0.4,1.2,0.7,1.9,0.9c4.7,1.6,9.5,3,14.2,4.7c7,2.5,14.2,4.6,21.6,5.7c5.3,0.8,10.5,1.7,15.7,2.4
				c5.8,0.8,11.5,1,17.3,0.1c1.8-0.3,3.5-1.3,5.6-2.1c2.8,3.6,5.9,7.5,9.2,11.9c-2.8-0.5-5.2,0.6-7.5-0.9c-0.2,0.2-0.4,0.5-0.5,0.7
				c-0.7-0.4-1.4-1.2-2-1.1c-2.3,0.4-4-1.3-6.1-1.4c-4-0.3-8-0.8-12-1.3c-6.2-0.7-12.5-0.8-18.5-2.5c-2.5-0.7-5-1-7.5-1.7
				c-1.8-0.4-3.5-1.1-5.2-1.6c-4-1.2-8.1-2.3-12.1-3.5c-0.7-0.2-1.3-0.5-1.9-0.9c-1.8-1.1-2.7-1.1-4.4,0.2c-0.8,0.6-0.4,2.4,0.7,3.3
				c4.1,3.1,8.5,5.4,13.4,6.8c6.6,2,13.3,3.7,19.9,5.6c0.2,0.1,0.4,0.1,0.7,0.4c-7.6-0.2-15.2-0.5-22.8,0.7
				c-0.1,0.2-0.1,0.4-0.2,0.6c0.6,0.5,1.1,1.2,1.8,1.6c1.4,0.7,2.9,1.3,4.4,1.8c10,3.3,20.2,5.6,30.7,6.2c8.5,0.5,16.8,0.2,25.2-1.3
				c1.4-0.3,2.9-0.2,4.4-0.2c2.6,0.1,5-0.3,7.4-1.3c0.4-0.2,1.1,0,1.3,0.2c1.8,1.9,3.6,3.8,5.4,5.7c0.7-0.9,1.5-1.9,2.2-2.8
				c-1.1-1.3-2.2-2.6-3.3-3.8c2.8-0.8,3.4-1.8,3.7-4.8c0.4-4.3,0.9-8.5,1.2-12.8c0.4-4.8,0.6-9.6,1.1-14.3
				c0.8-8.4,1.5-16.8,2.7-25.1c1.1-7.9,2.8-15.7,4.3-23.6c0.9-4.5,1.8-8.9,2.8-13.4c0.6-2.7,1.7-5.4,2.5-8.1
				C164.7,451.1,164.7,449.9,164.3,449.7z M44.9,391.1c-2.9-4-5.8-8.1-8.8-12.1c0.6,0,1.1,0.3,1.4,0.7c2.2,2.7,4.5,5.4,6.6,8.2
				c0.6,0.8,0.8,2,1.1,3.1C45.2,390.9,45.1,391,44.9,391.1z M43.5,402.2c-1.1-0.9-2.2-1.8-3.2-2.7c0-0.1,0.1-0.2,0.2-0.3
				c0.6,0.3,1.3,0.5,2,0.7C41.7,401.2,45,400.4,43.5,402.2z M55.9,432.5c-8.3-3.8-16.3-8-22.5-14.8c0.1-0.1,0.2-0.3,0.2-0.4
				c0.5,0.2,1.1,0.4,1.5,0.7c2.1,1.6,4,3.3,6.1,4.8c4.5,3,9.1,5.8,13.7,8.6c0.4,0.3,0.8,0.5,1.2,0.8C56,432.3,56,432.4,55.9,432.5z
				 M60.7,461.8c-4.8-2.2-9.6-4.3-14.3-6.5c0.1-0.2,0.2-0.4,0.3-0.6c4.8,2.1,9.6,4.2,14.4,6.3C60.9,461.3,60.8,461.6,60.7,461.8z
				 M96.9,426c0.2,0,0.3,0,0.5,0.1c-0.6,5.1-1.2,10.3-1.8,15.4c-0.1,0-0.3,0-0.4,0C95.8,436.3,96.3,431.2,96.9,426z M87.7,473
				c0.2-0.1,0.3-0.2,0.5-0.2c1,1.8,2.6,3.3,2.7,5.6c-0.1,0.1-0.3,0.1-0.4,0.2C89.5,476.7,88.6,474.9,87.7,473z M99.4,495.2
				c-0.8-0.1-1.5-0.3-2.3-0.4c-1.2-0.2-2.3-0.6-3.5-0.8c-2.1-0.3-4.2-0.4-6.2-0.9c-7.2-1.7-14.2-4-20.1-8.7
				c-1.7-1.3-3.5-2.4-5.3-3.6c-1.1-0.7-2.2-1.4-3.3-2.1c0.6-0.1,1.1,0,1.6,0.2c7,2.3,14,4.5,21.6,4.4c2.9,0,5.8,0.7,8.6,1.1
				c0.3,0.1,0.8,0.5,0.9,0.9c0.4,1.5,0.7,3,1.1,4.7c0.8-0.5,1.3-0.9,1.8-1.1c0.4-0.1,1-0.1,1.2,0.1c1.5,1.9,2.8,3.9,4.2,5.9
				C99.6,495,99.5,495.1,99.4,495.2z M99.3,493.8c-1.2-1.8-2.3-3.6-3.4-5.4c-0.2-0.3,0.1-0.8,0.2-1.1c0.2,0,0.4,0,0.6-0.1
				c1,2.1,2.1,4.2,3.1,6.3C99.6,493.6,99.5,493.7,99.3,493.8z M101.1,509.5c-3-0.6-6-1.2-8.9-1.8c-2.1-0.4-4.3-0.5-6.4-1
				c-6-1.4-12-2.8-18-4.5c-2.5-0.7-4.9-2.1-7.3-3.2c0.1-0.1,0.1-0.3,0.2-0.4c13.5,4.8,28,6,41.4,11.1
				C101.7,509.6,101.4,509.5,101.1,509.5z M106.3,502.1c-1.4-1.9-1.4-3.6-0.3-5.6c0.4-0.7,0.5-1.7,0.5-2.6c0-1.7-0.5-3.4-0.2-5
				c0.5-3.5,1.3-6.9,2-10.4c0.2-0.8,0.3-1.6,0.4-2.5c0.1,0,0.3,0,0.4,0c0.4,10.6,0.8,21.3,1.3,31.9
				C108.8,506.1,107.7,504,106.3,502.1z M78.1,526.2c-5.8-0.2-11.1-2.7-16.5-4.3c0-0.2,0.1-0.3,0.1-0.5c5.5,1.5,11,3,16.5,4.4
				C78.2,526,78.2,526.1,78.1,526.2z M147,464.8c-1.5,5.9-2.9,11.5-4.3,17.4c0.6-0.2,0.8-0.3,1.2-0.5c-0.2,0.5-0.3,0.9-0.5,1.1
				c-0.3,0.4-0.7,0.7-0.8,1.1c-0.9,4.7-1.7,9.3-2.5,14c-0.6,3.5-1.2,7-1.9,10.6C137.6,501.7,144.3,468.2,147,464.8z M77.8,539.3
				c0-0.1,0.1-0.3,0.1-0.4c8.1,1.9,16.2,3.8,24.3,5.7c0,0.1-0.1,0.3-0.1,0.4C93.6,544.5,85.7,541.9,77.8,539.3z M139.4,552.6
				c-1-0.1-2.1-0.1-3.1-0.3c-1.8-0.2-3.6-0.5-5.5-0.7c-1.4-0.1-2.8,0.2-4.3,0.1c-3.2-0.1-6.4-0.3-9.5-0.6c-3.2-0.3-6.5-0.4-9.6-0.9
				c-2.7-0.4-5.3-1.2-8-1.8c1.3-0.3,2.6-0.4,3.9-0.3c6.2,0.2,12.4-1,18.5,0.3c1.8,0.4,3.8,0.2,5.6-0.7c1.7-0.9,3.5-1.7,5.4-2.4
				c0.3-0.2,1-0.1,1.3,0.1c1.9,2.1,3.7,4.4,5.5,6.5C139.5,552.2,139.5,552.4,139.4,552.6z M164.7,469.9c0.3-1.4,0.3-2.9,0.4-4.3
				c-0.2,0-0.3-0.1-0.5-0.1c-0.2,0.5-0.5,0.9-0.6,1.4c-1.7,6.7-3.4,13.5-5.1,20.2c-2,7.8-2.7,15.8-3.4,23.8
				c-0.5,6.4-1.2,12.8-1.4,19.3c-0.3,6.3-0.1,12.5-0.1,18.8c0,0.6,0,1.3,0,1.9c2.6-4,5.3-8.6,7.9-13.6c0.2-5.7,0.2-11.3,0.3-17
				c0.1-5.6,0.1-11.2,0-16.8c0-3.1-0.4-6.3-0.1-9.3C163,486,162.8,477.8,164.7,469.9z M156.1,540.1c-0.6-11.5,0.4-22.9,1.6-34.2
				C157.3,517.3,157.4,528.7,156.1,540.1z M176.4,503c0-3.3-0.2-6.5-0.3-9.8c-0.1-4-0.1-7.9-0.1-11.9c0-1.7-1.1-2.6-2.8-2.2
				c-0.1,0-0.3,0-0.4,0c-2.4-0.4-3.1,0.1-4,2.3c-2.1,5-2.8,10.3-3,15.6c-0.5,11.8-1,23.5-1.1,35.3c4-7.8,8-16.3,11.8-25.1
				C176.5,505.7,176.5,504.4,176.4,503z M180.7,497.1c0,0.1,0,0.2-0.1,0.3c0.2-0.6,0.5-1.1,0.7-1.7
				C181,496.2,180.8,496.7,180.7,497.1z"/>
		</g>
		<path class="st11" d="M90,592.5c-12.5,1.8-31.3-2-45.1-7.7c-13.6-5.7-24-16.4-24-16.4c4.2,5.8,9.3,11.1,15.3,15.2
			c31.7,21.5,56.7,14,56.7,14s11.7-2.9,26.3-12.3C119.2,585.3,104.6,590.5,90,592.5z"/>
		
			<pattern  id="SVGID_8_" xlink:href="#SVGID_4_" patternTransform="matrix(0.3298 9.457588e-02 -9.457588e-02 0.3298 -16144.8096 2162.8716)">
		</pattern>
		<path class="st12" d="M105.2,544.5c-40.5-2.8-75.8-20.3-87.3-30.5C6.4,503.7,0.4,482.4,0.4,482.4C0,497.4,0,508.7,0,508.7
			s4.5,53.4,36.2,74.9s56.7,14,56.7,14s33.1-8.2,57.8-41.9c4.5-6.2,9.3-14.5,14.1-23.8C164.7,531.9,145.6,547.2,105.2,544.5z"/>
	</g>
	<g>
		<path class="st9" d="M700.8,544.5c40.5-2.8,75.8-20.3,87.3-30.5s17.5-31.5,17.5-31.5c0.4,15,0.4,26.3,0.4,26.3
			s-4.5,53.4-36.2,74.9s-56.7,14-56.7,14s-33.1-8.2-57.8-41.9c-4.5-6.2-9.3-14.5-14.1-23.8C641.3,531.9,660.4,547.2,700.8,544.5z"/>
		<g>
			<linearGradient id="SVGID_9_" gradientUnits="userSpaceOnUse" x1="629.57" y1="457.9287" x2="785.9" y2="457.9287">
				<stop  offset="0" style="stop-color:#462523"/>
				<stop  offset="0.25" style="stop-color:#CB9B51"/>
				<stop  offset="0.4" style="stop-color:#F6E27A"/>
				<stop  offset="0.4" style="stop-color:#F6E27A"/>
				<stop  offset="0.5" style="stop-color:#F6F2C0"/>
				<stop  offset="0.6" style="stop-color:#F6E27A"/>
				<stop  offset="0.75" style="stop-color:#CB9B51"/>
				<stop  offset="1" style="stop-color:#462523"/>
			</linearGradient>
			<path class="st13" d="M751.6,411.8c0.1-0.2,0.3-0.4,0.5-0.5c1.9-1.2,4-2.2,5.8-3.5c4.4-3.5,8.7-7.2,13.1-10.7
				c5.4-4.4,10.2-9.3,14.1-15.1c0.5-0.7,0.6-1.5,0.9-2.3c-0.1-0.1-0.3-0.2-0.4-0.2c-3,2.3-6,4.7-9,7c-3.1,2.4-6.3,4.7-9.4,7.2
				c-3,2.5-6,5.1-8.9,7.6c0.3-0.6,0.7-1.2,1.1-1.8c4.4-5.8,8.9-11.6,13.3-17.5c3-4.1,5.8-8.3,8.6-12.6c0.5-0.8,0.8-1.8,1.1-2.7
				c-0.1-0.1-0.3-0.2-0.4-0.2c-1.1,0.4-2.6-0.4-3.4,1.1c-1.2,2.5-3.2,4.4-5.2,6.3c-3.7,3.4-7.2,7-9.9,11.4c-0.4,0.6-0.9,1.1-1.4,1.7
				c-0.1,0-0.3-0.1-0.4-0.2c0.3-1.7,0.5-3.5,0.8-5.2c1.2-6.9,2.8-13.7,3.4-20.6c0.7-7.8,0.6-15.7,0.6-23.6c0-1.7-0.6-3.5-1-5.2
				c-0.1-0.4-0.5-0.8-1.1-1.5c-0.2,0.9-0.3,1.3-0.3,1.8c0,1.9,0.4,3.8,0.2,5.7c-0.1,1.2-0.5,2.3,0.2,3.5c0.2,0.4,0.2,0.9,0.2,1.4
				c0,0.8-0.1,1.7-0.2,2.5c-0.7,0.4-1.5,1-1.6,1.7c-0.3,1.8-0.3,3.5-0.4,5.3c-0.1,0.6-0.2,1.3-0.3,1.9c-0.2,1.4-0.3,2.8-0.5,4.2
				c-0.2,1.3-0.5,2.6-0.7,3.8c-0.1,0.9-0.1,1.8-0.3,2.6c-0.5,1.7-1.2,3.3-1.6,5c-0.4,1.5-0.5,3-0.8,4.5c-0.3,1.7-0.4,3.5-0.8,5.2
				c-0.4,2-1.1,4-1.5,6.1c-0.5,2.5-0.8,5.1-1.2,7.6c-0.4,3.1-1.2,6-2.6,8.7c-0.8,1.7-1.7,3.5-2.5,5.2c0.1-4,0.5-8,0.9-12
				c0.6-6.3,1.4-12.6,1-19c-0.5-8.5-1-17.1-1.5-25.6c0-0.7-0.6-1.8-1-1.9c-1.2-0.1-0.9,1.1-0.9,1.8c-0.1,5.6-0.2,11.2-0.3,16.7
				c0,2.6-0.1,5.2-0.3,7.8c-0.3,3.3-0.7,6.6-1.1,9.9c-0.3,2.5-0.5,4.9-0.9,7.3c-0.4,1.8-1.1,3.6-1.5,5.4c-0.5,1.8-0.5,3.9-1.3,5.5
				c-0.9,1.6-0.8,3.3-0.9,4.9c-0.2,3.1-0.2,6.2-0.1,9.3c0,1.5-0.3,3,0.7,4.3c0.2,0.2,0.2,0.7,0.1,0.9c-0.9,1.9-1.8,3.9-2.7,5.8
				c-0.1,0-0.3-0.1-0.4-0.1c0.2-3.6,0.4-7.2,0.7-10.8c0.8-8.4,0.6-16.8,0-25.1c-0.6-7.7-1.2-15.5-2.1-23.2
				c-0.7-6.2-1.8-12.5-2.8-18.7c-0.1-0.7-0.6-1.3-1-1.9c-0.1-0.2-0.7-0.3-0.9-0.2c-0.2,0.1-0.3,0.6-0.3,0.8c0.3,2.4,0.7,4.8,0.9,7.2
				c0.2,3.4,0.3,6.8,0.4,10.2c0,3.7-0.1,7.3-0.1,11c0,3.7,0.1,7.4,0,11.1c-0.2,5.2-0.6,10.5-0.9,15.7c-0.2,3.2-0.4,6.4-0.6,9.6
				c-0.1,1.4-0.2,2.9-0.2,4.3c-0.1,5.6-0.1,11.3-0.1,16.9c0,1.7,0.3,3.3,0.4,5c0,0.8,0.1,1.7-0.2,2.4c-1.5,3-3.1,6-4.6,9
				c-0.2,0.4-0.5,0.8-0.9,1.5c0-0.8,0-1.1,0-1.5c0.3-3.6,0.8-7.2,0.9-10.8c0.1-8.8,0.4-17.5,0-26.3c-0.3-7.5-1.4-15-2.4-22.4
				c-0.7-5.3-1.7-10.5-2.6-15.7c-0.2-1.1-0.7-2-2.1-2.6c-0.2,1-0.5,1.9-0.5,2.8c0,2.3,0.1,4.7,0.2,7c0.1,2.7,0.2,5.4,0.3,8.2
				c0.1,2.9,0.4,5.7,0.5,8.6c0,3.3-0.1,6.5-0.2,9.8c-0.4,7,0.1,14-0.9,21c-0.6,4.1-0.7,8.3-1,12.5c-0.1,1.2-0.2,2.3-0.3,3.5
				c-0.2,2.3-0.7,4.7-0.5,7c0.2,3.2-1.3,5.8-2.3,8.6c0,0.1-0.2,0.3-0.3,0.3c-1.3,0.6-1.1,1.8-0.8,2.8c0.3,1.5,0.8,3,1.3,4.5
				c0.4,1.4-0.2,2.5-1.1,3.8c0-0.6-0.1-1-0.1-1.3c-0.6-7.1-1-14.2-1.8-21.2c-1-9.1-2.2-18.2-3.6-27.3c-1.4-8.9-3.2-17.7-6.4-26.1
				c-0.2-0.5-0.4-1-0.6-1.5c0.2,2.8,0.7,5.5,1,8.2c0.5,4,0.9,7.9,1.4,11.9c0.5,4.7,0.8,9.5,1.5,14.2c1.4,10.3,2,20.6,1.7,31
				c-0.2,5.9-0.3,11.8,0.4,17.8c0.1,1.1,0.2,2.2-1.5,2.5c0.5,1.1,1,2,1.3,3c0.2,0.5,0.4,1.1,0.2,1.4c-0.8,1.6-1.7,3.2-2.8,5.1
				c-0.2-0.8-0.3-1.2-0.4-1.5c-0.6-3.2-1.2-6.5-1.9-9.7c-2.8-12.6-5.6-25.1-8.3-37.7c-0.5-2.1-0.7-4.2-1.3-6.2
				c-0.7-2.8-1.6-5.5-2.4-8.2c-0.1-0.4,0.2-0.9,0.3-1.5c-1.3-1.6-1.2-3.8-1.7-5.8c-0.1-0.4,0-1-0.2-1.1c-1.7-0.7-1-2.2-1.2-3.5
				c0.1,0.2,0.3,0.4,0.4,0.6c-0.2-0.6,0.4-2.1-1.3-1.1c-0.8-2.3-1.6-4.7-2.3-7c-0.2,0-0.4,0.1-0.5,0.1c0.8,3.3,1.6,6.6,2.5,9.9
				c-0.4-0.4-0.5-0.8-0.7-1.3c-2-5.8-3.9-11.7-6-17.5c-0.7-1.9-1.6-3.7-3.2-5.2c-0.9,1.1-0.2,1.9,0.2,2.7c0.7,1.7,1.6,3.3,2.2,5.1
				c1.4,4.3,2.7,8.7,4,13c0.8,2.6,1.5,5.3,2.1,7.9c0.4,1.9,0.6,3.8,1,5.7c0.8,4.7,1.7,9.3,2.5,14c0.6,3.3,1.1,6.5,1.6,9.8
				c-0.1,0-0.2-0.1-0.3-0.1c-0.3,0.9-0.6,1.8-0.9,2.6c0.4,0.6,0.5,1.1,0.5,1.7c0,1.6-0.1,3.1,0,4.7c0.1,1.7,0.3,3.4,0.3,5.2
				c0,2.5-0.2,5-0.2,7.5c0,1.4,0.2,2.7,0.3,4.1c0,0.5-0.2,1-0.2,1.5c0,0.8,0.1,1.6,0.1,2.5c0.1,0.7,0.2,1.5,0.3,2.2c0,0.7,0,1.3,0,2
				c0,0.4-0.2,0.8-0.3,1.2c-0.2,0-0.4,0-0.5,0c0.9,1.9-0.6,4.3,1.1,6.1c0,0,0,0.2,0,0.2c-0.1,1.1-0.3,2.3-0.2,3.4
				c0.4,3.2,1,6.4,0.6,9.7c-0.2,2-0.8,4.1,0.5,6c-1.1,1.8-2.2,3.5-3.3,5.2c0-2.8,0.5-5.4,0.5-8c-0.1-11.2-0.2-22.5-0.6-33.7
				c-0.3-9.2-1.7-18.2-4.1-27.1c-1.1-3.8-2-7.7-3.2-11.5c-0.6-1.9-1.7-3.7-2.6-5.5c-0.2,0-0.4,0.1-0.7,0.1c0,0.8-0.1,1.5-0.1,2.3
				c0,0.5,0.2,1.1,0.2,1.7c0,1.8-0.1,3.6,0.1,5.4c0.4,4.7,0.9,9.5,1.4,14.2c0.2,2.3,0.6,4.5,0.8,6.7c0.2,3.2,0.2,6.4,0.5,9.5
				c0.6,6.6,1.3,13.3,1.9,19.9c0.5,6,1.1,12,1.6,18c0.2,2.9,0.3,5.8,0.3,8.7c0,1.4,0.2,3.1-0.5,4.3c-1.4,2.4-3.3,4.5-5,6.7
				c-0.1-0.1-0.3-0.2-0.4-0.2c0.1-0.4,0.2-0.9,0.4-1.3c0.2-0.4,0.5-0.7,0.6-1.1c1.2-5.3,2.5-10.7,1.9-16.2
				c-0.6-5.6-1.4-11.2-2.1-16.8c-0.3-2.4-0.8-4.7-1.2-7.1c0-0.2-0.2-0.6-0.3-0.6c-1.1,0.1-0.8-0.8-1-1.4c-0.3-1.1-0.5-2.3-0.7-3.4
				c-0.3-1.9-0.5-3.8-0.9-5.7c-0.3-1.6-0.9-3.2-1.3-4.7c-1.6-6.1-3-12.2-4.9-18.2c-1.9-6.1-4.4-12.1-6.7-18.1
				c-0.2-0.6-0.9-1-1.4-1.5c-0.5,0.6-1,1.2-1.4,1.8c-0.2,0.3-0.1,0.8-0.1,1.2c0,1.2,1,2.5-0.3,3.6c-0.1,0.1,0,0.4,0.1,0.7
				c0.5,1.9,1.2,3.7,1.6,5.6c0.9,4.1,1.6,8.3,2.5,12.4c1,4.6,2.1,9.1,3.2,13.7c1.2,4.9,2,9.9,3.7,14.7c0.1,0.4,0.2,0.8,0.3,1.2
				c0.9,4.5,1.9,8.9,2.8,13.4c0.2,0.9,0.2,1.9,0.3,2.9c-0.1,0-0.3,0-0.4,0.1c-0.4-1.9-0.9-3.7-1.3-5.8c-0.8,2-1,3.7,0.4,5
				c-0.1,0.3-0.4,0.6-0.4,0.9c0.6,2,0.7,4.1,0.8,6.2c0.1,2.2,0.5,4.4,0.8,6.5c0.8,5.2,1.2,10.5-0.7,15.6c-0.1,0.4-0.1,0.8,0,1.3
				c0.4,1.9-0.3,3.3-2.1,4.3c0-3.6,0-7.1,0-10.7c-0.1-3.7-0.1-7.3-0.4-11c-0.3-3.7-0.7-7.5-1.2-11.2c-1.2-8.6-2.3-17.2-3.8-25.8
				c-0.9-4.9-2.2-9.8-3.7-14.6c-1.4-4.5-3.2-9-5-13.4c-0.5-1.2-1.4-2.1-2.1-3.2c-0.2,0-0.4,0.1-0.6,0.2c0,1.1-0.2,2.3,0,3.4
				c0.4,2.3,1,4.5,1.5,6.7c0.4,1.5,0.9,2.9,1.2,4.4c0.5,2.1,0.8,4.3,1.2,6.4c0,0.2,0.4,0.3,0.5,0.4c0.7,5,1.5,10,2.2,15
				c0.3,0,0.6,0.1,1.1,0.1c-1.3,0.9-1.1,1.7-0.3,2.6c0.3,0.3,0.4,0.9,0.4,1.4c-0.1,2-0.5,3.9-0.4,5.8c0.3,4.6,1,9.1,1.4,13.7
				c0.7,7.4,1.5,14.9,2.1,22.3c0.4,4.4,0.5,8.8,0.7,13.2c0,0.2,0,0.5-0.1,0.7c-1.3,1.6-2.5,3.3-4.1,5.3c-0.1-1.2-0.3-2.1-0.2-3
				c0.2-3,0.5-6.1,0.7-9.2c0.6-13-0.1-25.8-2.5-38.6c-2.9-15.1-7-29.9-12.8-44.2c-0.4-0.9-0.9-1.7-1.3-2.6c-0.2,0.1-0.3,0.1-0.5,0.2
				c7.6,17.4,12.3,35.5,13.7,54.4c-0.3-0.4-0.4-0.9-0.5-1.4c-3-15.8-6.3-31.6-11.4-46.9c-1-3.1-2.3-6.2-3.5-9.2
				c-0.3-0.8-0.9-1.7-1.9-1.2c-0.3,0.1-0.3,1.3-0.2,2c0.8,2.7,1.8,5.3,2.5,8.1c1.1,4.4,2,8.9,2.8,13.4c1.5,7.8,3.2,15.7,4.3,23.6
				c1.2,8.3,1.9,16.7,2.7,25.1c0.5,4.8,0.7,9.6,1.1,14.4c0.4,4.3,0.8,8.5,1.2,12.8c0.3,3.1,0.9,4,3.7,4.9c-1.1,1.1-2.2,2.4-3.2,3.6
				c0.7,1,1.5,1.9,2.2,2.8c1.7-1.9,3.5-3.7,5.2-5.6c0.3-0.3,1-0.4,1.4-0.2c2.4,1,4.9,1.3,7.4,1.3c1.5,0,2.9-0.1,4.4,0.2
				c8.3,1.5,16.7,1.7,25.2,1.3c10.5-0.6,20.7-2.9,30.7-6.2c1.5-0.5,3-1.1,4.4-1.8c0.7-0.3,1.2-1,1.8-1.6c-0.1-0.2-0.1-0.4-0.2-0.6
				c-7.6-1.1-15.2-0.9-22.8-0.7c0.2-0.2,0.4-0.3,0.7-0.4c6.6-1.8,13.3-3.6,19.9-5.6c4.8-1.5,9.3-3.8,13.4-6.8
				c1.1-0.8,1.5-2.7,0.7-3.3c-1.7-1.3-2.6-1.3-4.4-0.2c-0.6,0.4-1.3,0.7-1.9,0.9c-4.1,1.2-8.1,2.3-12.2,3.5
				c-1.8,0.5-3.5,1.2-5.2,1.6c-2.5,0.6-5.1,1-7.5,1.7c-6.1,1.6-12.3,1.7-18.5,2.5c-4,0.5-8,0.9-12,1.2c-2.1,0.2-3.8,1.8-6.1,1.4
				c-0.5-0.1-1.3,0.7-2,1.1c-0.1-0.2-0.3-0.5-0.5-0.7c-2.3,1.5-4.8,0.5-7.5,0.9c3.4-4.3,6.4-8.3,9.2-11.9c2,0.8,3.7,1.8,5.6,2.1
				c5.8,0.9,11.5,0.7,17.3-0.1c5.3-0.7,10.5-1.6,15.7-2.4c7.4-1.1,14.5-3.3,21.6-5.7c4.7-1.6,9.4-3.1,14.2-4.7
				c0.7-0.2,1.3-0.5,1.9-0.9c1.2-0.8,1.3-1.9,0.3-3c-0.7-0.7-1.4-1.4-2.2-2c-0.8-0.7-1.5-0.8-2.4,0c-0.5,0.4-1.1,0.7-1.8,0.8
				c-3.3,0.8-6.7,1.4-10,2.2c-3.9,0.9-7.7,1.8-11.5,2.7c-3.6,0.8-7.3,1.6-10.9,2.5c-1.1,0.3-2.2,0.9-3.3,1.2
				c-5.2,1.1-10.3,2-15.7,2.3c-4,0.2-8,1.4-12,2.2c-1.8,0.3-3.5,0.6-5.3,0.9c0-0.1,0-0.3,0.1-0.4c2.1-3.1,4.2-6.1,6.3-9.2
				c0.2-0.3,0.7-0.4,1.1-0.4c2,0,4.1,0,6.2,0c2-0.1,4-0.5,6-0.3c6.8,0.6,13.6,0.4,20.5,0.1c3.3-0.2,6.7-0.3,9.9-1.1
				c10-2.4,19.6-5.8,28.3-11.6c1.6-1.1,2.2-2.3,2.1-4.1c0-1.6-1.4-2.6-2.8-2.1c-3.9,1.3-7.7,2.7-11.6,4c-2.1,0.7-4.3,1.3-6.5,1.9
				c-3,0.8-6.1,1.5-9.1,2.5c-4.5,1.5-8.8,3.5-13.3,4.7c-4.8,1.3-9.7,2.2-14.6,3c-3.6,0.6-7.2,0.7-10.8,1.1c-1.5,0.2-3,0.7-4.7,1.1
				c1.3-2.3,2.6-4.3,3.8-6.4c0.1-0.2,0.4-0.3,0.6-0.3c3.1-0.4,6.2-0.7,9.2-1.2c10-1.4,19.8-3.2,29.5-5.9c9.1-2.5,17.8-6.1,26.3-10.3
				c2.9-1.4,5.7-3.1,7.9-5.5c0.5-0.5,1.3-1,0.6-1.9c-1.1-1.5-3.3-2.2-5.1-1.7c-0.3,0.1-0.6,0.2-1,0.2c-6.4,1-12.5,2.8-18.6,5.1
				c-1.2,0.5-2.4,1-3.4,1.6c-2.3,1.4-4.4,3.1-6.8,4.3c-3,1.6-6,3.1-9.2,4.2c-6,2-12.2,3.7-18.3,5.5c-2.7,0.8-5.4,1.6-8.1,2.5
				c-1,0.3-1.7,1.2-2.6,1.8c0-0.6,0.2-1,0.4-1.3c1.3-2.3,2.8-4.5,4-6.8c1-1.8,1.9-3.4,4.4-2.9c0.8,0.2,2.1-0.2,2-1.5
				c-0.3-1.9,1-2,2.3-2.1c5.7-0.7,11.5-1,17.2-2.1c5.9-1.2,11.7-3,17.5-4.6c7.3-2,14.7-3.8,21.5-7.4c4.4-2.4,8.6-4.7,11.7-8.9
				c0.7-0.9,0.7-1.7-0.3-2.2c-1.4-0.8-2.9-1.4-4.5-2c-0.3-0.1-0.9,0.2-1.3,0.4c-0.9,0.5-1.8,1.1-2.7,1.5c-1.8,0.7-3.6,1.4-5.4,2
				c-2.6,0.8-5.2,1.6-7.7,2.4c0.2-0.5,0.4-0.6,0.7-0.8c4-1.9,8-3.8,12-5.7c3.7-1.7,7-3.8,10.1-6.3c0.8-0.6,0.8-1.1,0.3-1.9
				c-0.6-0.9-1-1.9-1.5-3.1c-0.9,0-2.1-0.1-3.3,0c-0.6,0.1-1.1,0.3-1.6,0.7c-0.5,0.3-0.9,1-1.5,1.3c-3.8,1.6-7.5,3.3-11.4,4.6
				c-4.2,1.5-8.5,2.5-12.7,3.9c-3.7,1.2-7.3,2.7-10.9,4.1c-2.3,0.9-4.6,1.9-6.6,3.3c-3.2,2.1-6.8,3.2-10.2,4.5c-0.4,0.2-1,0-1.4,0
				c-0.1-0.1-0.2-0.3-0.3-0.4c1.5-2.1,3-4.3,4.5-6.4c0.6-0.9,1.4-1.8,1.8-2.8c0.4-1.1,0.9-1.7,2.1-1.7c3.3-0.1,6.4-0.9,9.4-2.4
				c1.5-0.7,3.1-1.1,4.7-1.5c4.6-1.4,9.3-2.5,13.8-4.1c10-3.6,18.7-9.1,25.9-16.9c0.4-0.4,0.9-1.1,0.8-1.4c-0.4-0.9-1-2.1-1.8-2.5
				c-0.7-0.3-2.2,0-2.8,0.5c-1.9,2-4.5,3.1-6.8,4.3c-1.8,0.9-3.6,1.7-5.4,2.5c-2.6,1.2-5.2,2.5-7.9,3.7c-3.4,1.5-6.8,2.8-10.2,4.2
				c-1.3,0.5-2.6,1.1-3.8,1.8c-2.2,1.1-4.5,1.9-6.4,3.7c-1.8,1.6-3.9,3-5.8,4.5c-1,0.8-2.2,1-3.7,1c0.5-0.9,0.8-1.6,1.2-2.2
				c1.6-2.8,3.4-5.6,4.8-8.4c0.9-1.8,2-3,3.8-3.7c3.5-1.4,6.9-3.3,10.4-4.8c10.3-4.4,20.7-8.5,29.5-15.7c2-1.6,4-3.3,5.2-5.6
				c0.5-1,0.3-1.4-0.8-1.7c-1.6-0.5-3.1-0.6-4.2,1.1c-0.5,0.8-1.4,1.3-2.2,1.8c-1.7,1.1-3.5,2.1-5.3,3.2c-0.5,0.3-0.9,0.8-1.4,1.1
				c-2.8,1.5-5.6,2.9-8.3,4.4c-2.5,1.3-4.9,2.7-7.4,4c-2.8,1.5-5.5,3-8.2,4.6c-1.6,1-3.2,2.1-4.7,3.3c-1,0.7-1.9,1.4-2.8,2.1
				c-0.1-0.1-0.2-0.2-0.3-0.3c0.2-0.5,0.4-1,0.6-1.5c1.4-2.8,2.7-5.7,4.1-8.5c0.7-1.5,1.3-2.7,3.4-3.2c6.8-1.7,13.2-4.6,19.4-7.8
				c7.3-3.8,13.4-8.8,18.3-15.3c0.2-0.3,0.2-1,0.1-1.4c-0.1-0.6-0.3-1.3-0.5-1.9c0.1,0,0.2-0.1,0.3-0.1c-0.4-0.4-0.8-0.7-1.4-1.3
				c-1,1.2-2,2.3-3,3.3c-0.2,0.2-0.5,0.3-0.7,0.5c-5.4,3.7-10.7,7.4-16.1,11.1c-1.4,1-2.8,1.8-4.3,2.7c-2.2,1.3-4.4,2.6-6.6,4
				c-2,1.3-4,2.6-6.1,4c0-0.4-0.1-0.6,0-0.8c1.4-3.1,2.8-6.3,4.2-9.4c0.2-0.4,0.6-0.7,1-0.9c4.5-2.2,9-4.4,13.5-6.6
				c3.6-1.7,6.5-4.4,9.5-7c3.9-3.2,7.5-6.8,10.3-11c0.3-0.4,0.2-1,0.3-1.4c-0.6,0.1-1.4-0.1-1.8,0.3c-2.6,1.9-5.1,4-7.7,5.9
				c-4.3,3-8.8,5.8-13,9c-3.2,2.4-6.1,5.1-9.2,7.6c-0.3,0.3-0.7,0.5-1.3,0.8c0-0.5,0-0.7,0-0.8C748.8,417.5,750.2,414.6,751.6,411.8
				z M763.7,400.3c0.7-0.3,1.3-0.5,2-0.7c0,0.1,0.1,0.2,0.1,0.3c-1.1,0.9-2.1,1.8-3.2,2.7C761,400.8,764.4,401.5,763.7,400.3z
				 M761.8,388.2c2.1-2.8,4.4-5.5,6.6-8.2c0.3-0.4,0.8-0.6,1.4-0.7c-2.9,4-5.8,8.1-8.8,12.1c-0.1-0.1-0.3-0.1-0.4-0.2
				C761,390.2,761.2,389,761.8,388.2z M666,498.2c-0.8-4.6-1.7-9.3-2.5-13.9c-0.1-0.4-0.5-0.7-0.8-1.1c-0.2-0.3-0.3-0.6-0.5-1.1
				c0.5,0.2,0.7,0.3,1.2,0.5c-1.5-5.9-2.9-11.5-4.3-17.4c2.7,3.4,9.4,37,8.8,43.7C667.2,505.2,666.6,501.7,666,498.2z M728.2,539.3
				c0,0.2,0.1,0.3,0.1,0.4c-7.9,2.6-15.9,5.2-24.3,5.7c0-0.1-0.1-0.3-0.1-0.4C712,543.1,720.1,541.2,728.2,539.3z M673.2,545.7
				c1.8,0.7,3.6,1.5,5.3,2.4c1.8,0.9,3.8,1.1,5.6,0.7c6.2-1.3,12.4-0.1,18.5-0.3c1.3,0,2.6,0,3.9,0.3c-2.7,0.6-5.3,1.4-8,1.8
				c-3.2,0.5-6.4,0.7-9.6,0.9c-3.2,0.2-6.3,0.4-9.5,0.6c-1.4,0.1-2.8-0.2-4.2-0.1c-1.8,0.1-3.7,0.5-5.5,0.7c-1,0.1-2.1,0.2-3.1,0.3
				c-0.1-0.2-0.1-0.4-0.2-0.5c1.8-2.2,3.6-4.4,5.5-6.5C672.2,545.6,672.8,545.5,673.2,545.7z M744.3,521.8c0,0.2,0.1,0.3,0.1,0.5
				c-5.5,1.6-10.7,4.1-16.5,4.3c0-0.1-0.1-0.2-0.1-0.3C733.3,524.7,738.8,523.2,744.3,521.8z M745.4,498.9c0,0.1,0.1,0.3,0.2,0.4
				c-2.4,1.1-4.8,2.5-7.3,3.2c-6,1.7-12,3.1-18,4.6c-2.1,0.5-4.3,0.7-6.4,1c-3,0.5-6,1.2-8.9,1.8c-0.3,0.1-0.6,0.1-1,0.1
				C717.4,504.9,731.9,503.7,745.4,498.9z M699.7,502.4c-1.4,1.9-2.5,4-4,6c0.4-10.6,0.8-21.3,1.3-31.9c0.1,0,0.3,0,0.4,0
				c0.1,0.8,0.3,1.6,0.4,2.4c0.7,3.5,1.5,6.9,2,10.4c0.2,1.6-0.2,3.3-0.2,5c0,0.9,0.1,1.8,0.5,2.6
				C701.1,498.8,701.1,500.6,699.7,502.4z M708.6,426.4c0.2,0,0.3,0,0.5,0c0.6,5.1,1.2,10.3,1.8,15.4c-0.1,0-0.3,0-0.4,0.1
				C709.9,436.7,709.2,431.6,708.6,426.4z M706.2,493.8c1-2.1,2.1-4.2,3.1-6.3c0.2,0,0.4,0,0.7,0.1c0.1,0.4,0.3,0.9,0.2,1.1
				c-1.1,1.8-2.3,3.6-3.4,5.5C706.6,494,706.4,493.9,706.2,493.8z M724.2,483.7c7.5,0,14.5-2.1,21.6-4.4c0.5-0.2,0.9-0.3,1.6-0.2
				c-1.1,0.7-2.2,1.4-3.3,2.1c-1.8,1.2-3.6,2.2-5.3,3.6c-6,4.7-12.9,7-20.1,8.7c-2,0.5-4.2,0.6-6.2,0.9c-1.2,0.2-2.3,0.5-3.5,0.8
				c-0.8,0.2-1.5,0.3-2.3,0.4c-0.1-0.1-0.2-0.2-0.2-0.4c1.4-2,2.8-4,4.2-5.9c0.2-0.2,0.8-0.2,1.2-0.1c0.5,0.2,0.9,0.6,1.8,1.1
				c0.4-1.7,0.7-3.2,1.1-4.7c0.1-0.3,0.5-0.8,0.9-0.8C718.5,484.4,721.3,483.7,724.2,483.7z M715.5,479c-0.1-0.1-0.3-0.1-0.4-0.2
				c0.1-2.3,1.8-3.8,2.7-5.6c0.2,0.1,0.3,0.2,0.5,0.2C717.4,475.2,716.5,477.1,715.5,479z M759.4,455.1c0.1,0.2,0.2,0.4,0.3,0.6
				c-4.8,2.2-9.6,4.3-14.3,6.5c-0.1-0.2-0.2-0.5-0.3-0.7C749.8,459.3,754.6,457.2,759.4,455.1z M751.1,431.7
				c4.6-2.9,9.2-5.7,13.7-8.6c2.1-1.4,4.1-3.2,6.1-4.7c0.4-0.3,1-0.5,1.5-0.7c0.1,0.1,0.1,0.3,0.2,0.4c-6.3,6.9-14.3,11-22.5,14.8
				c-0.1-0.1-0.1-0.2-0.2-0.3C750.3,432.3,750.7,432,751.1,431.7z M726.4,560.1c-4.4,0.3-8.7,0.4-13.1,0.7
				c-4.3,0.3-8.6,0.8-12.9,1.3c-3.5,0.4-7,1.1-10.5,1.6c-0.8,0.1-1.7,0.1-2.5,0.3c-1.8,0.4-3.6,1.1-5.5,1.3
				c-5.8,0.7-11.6,1.2-17.4,1.8c5.9,6.3,12,11.4,17.8,15.4c1.2,0.1,2.4,0.2,3.6,0.2c0,0.2,0,0.4,0,0.6h-6.6c1.8,0.4,3.7,0.7,5.5,0.9
				c0.9,0.1,1.8,0.2,2.6,0.3c5.5,0.3,11,0.6,16.5,0.7c2.1,0,4.4,0.1,6.3-0.6c1.7-0.6,3.3-0.9,5-0.9h3.4c0-0.2,0.1-0.3,0.1-0.5
				c-0.4-0.3-0.7-0.7-1.2-0.8c-2-0.6-4-1.2-6.1-1.8c-1-0.3-2.4-0.4-2.8-1c-1-1.7-2.6-1.9-4.2-2.3c-5.9-1.6-11.7-3.4-17.9-3.5
				c-0.9,0-1.8-0.2-2.7-0.3c2.1-0.4,4.1-0.6,6.2-0.8c5.9-0.6,11.8-1,17.7-1.9c4.3-0.7,8.6-1.9,12.8-3.2c3.1-0.9,6.1-2.2,9-3.5
				c1.4-0.6,1.4-1.3,0.3-2.5C729,560.5,727.8,560,726.4,560.1z M650.5,511.2c-0.7-8-1.4-16-3.4-23.8c-1.7-6.7-3.4-13.5-5.1-20.2
				c-0.1-0.5-0.4-0.9-0.6-1.4c-0.2,0-0.3,0.1-0.5,0.1c0.1,1.5,0,3,0.4,4.4c1.9,8,1.7,16.2,2.4,24.3c0.3,3.1-0.1,6.2-0.1,9.3
				c0,5.6,0,11.2,0,16.8c0.1,5.5,0.1,11.1,0.3,16.6c2.7,5,5.4,9.6,8,13.7c0-0.5,0-1.1,0-1.6c0.1-6.3,0.2-12.5-0.1-18.8
				C651.6,524.1,651,517.7,650.5,511.2z M649.9,540.4c-1.2-11.4-1.1-22.8-1.6-34.2C649.5,517.6,650.5,529,649.9,540.4z M637.2,481.7
				c-0.9-2.2-1.7-2.7-4.1-2.3c-0.1,0-0.3,0.1-0.4,0c-1.7-0.4-2.8,0.5-2.8,2.2c0,4-0.1,7.9-0.1,11.9c-0.1,3.3-0.2,6.5-0.3,9.8
				c0,1.3,0,2.5,0,3.8c3.8,8.8,7.8,17.3,11.8,25.1c-0.1-11.7-0.6-23.3-1.1-35C640,491.9,639.3,486.6,637.2,481.7z"/>
		</g>
		<path class="st11" d="M716,592.5c12.5,1.8,31.3-2,45.1-7.7c13.6-5.7,24-16.4,24-16.4c-4.2,5.8-9.3,11.1-15.3,15.2
			c-31.7,21.5-56.7,14-56.7,14s-11.7-2.9-26.3-12.3C686.8,585.3,701.4,590.5,716,592.5z"/>
		
			<pattern  id="SVGID_10_" xlink:href="#SVGID_5_" patternTransform="matrix(-0.3298 9.457588e-02 9.457588e-02 0.3298 -30612.0449 2206.1018)">
		</pattern>
		<path class="st14" d="M700.8,544.5c40.5-2.8,75.8-20.3,87.3-30.5s17.5-31.5,17.5-31.5c0.4,15,0.4,26.3,0.4,26.3
			s-4.5,53.4-36.2,74.9s-56.7,14-56.7,14s-33.1-8.2-57.8-41.9c-4.5-6.2-9.3-14.5-14.1-23.8C641.3,531.9,660.4,547.2,700.8,544.5z"/>
	</g>
	<g>
		<g>
			<linearGradient id="SVGID_11_" gradientUnits="userSpaceOnUse" x1="226.3" y1="165.15" x2="254.7" y2="165.15">
				<stop  offset="0" style="stop-color:#462523"/>
				<stop  offset="0.25" style="stop-color:#CB9B51"/>
				<stop  offset="0.4" style="stop-color:#F6E27A"/>
				<stop  offset="0.4" style="stop-color:#F6E27A"/>
				<stop  offset="0.5" style="stop-color:#F6F2C0"/>
				<stop  offset="0.6" style="stop-color:#F6E27A"/>
				<stop  offset="0.75" style="stop-color:#CB9B51"/>
				<stop  offset="1" style="stop-color:#462523"/>
			</linearGradient>
			<path class="st15" d="M240.5,143.5c6.9,0,12.5,5.6,12.5,12.5v18.3c0,6.9-5.6,12.5-12.5,12.5s-12.5-5.6-12.5-12.5V156
				C228,149.1,233.6,143.5,240.5,143.5 M240.5,141.8c-7.8,0-14.2,6.4-14.2,14.2v18.3c0,7.8,6.4,14.2,14.2,14.2s14.2-6.4,14.2-14.2
				V156C254.7,148.1,248.3,141.8,240.5,141.8L240.5,141.8z"/>
			<path class="st6" d="M240.5,143.5c-6.9,0-12.5,5.6-12.5,12.5v18.3c0,6.9,5.6,12.5,12.5,12.5s12.5-5.6,12.5-12.5V156
				C253,149.1,247.4,143.5,240.5,143.5z"/>
		</g>
	</g>
	<g>
		<g>
			<linearGradient id="SVGID_12_" gradientUnits="userSpaceOnUse" x1="551.3" y1="165.15" x2="579.7" y2="165.15">
				<stop  offset="0" style="stop-color:#462523"/>
				<stop  offset="0.25" style="stop-color:#CB9B51"/>
				<stop  offset="0.4" style="stop-color:#F6E27A"/>
				<stop  offset="0.4" style="stop-color:#F6E27A"/>
				<stop  offset="0.5" style="stop-color:#F6F2C0"/>
				<stop  offset="0.6" style="stop-color:#F6E27A"/>
				<stop  offset="0.75" style="stop-color:#CB9B51"/>
				<stop  offset="1" style="stop-color:#462523"/>
			</linearGradient>
			<path class="st16" d="M565.5,143.5c6.9,0,12.5,5.6,12.5,12.5v18.3c0,6.9-5.6,12.5-12.5,12.5l0,0c-6.9,0-12.5-5.6-12.5-12.5V156
				C553,149.1,558.6,143.5,565.5,143.5L565.5,143.5 M565.5,141.8c-7.8,0-14.2,6.4-14.2,14.2v18.3c0,7.8,6.4,14.2,14.2,14.2
				s14.2-6.4,14.2-14.2V156C579.7,148.1,573.3,141.8,565.5,141.8L565.5,141.8z"/>
			<path class="st6" d="M565.5,143.5c-6.9,0-12.5,5.6-12.5,12.5v18.3c0,6.9,5.6,12.5,12.5,12.5s12.5-5.6,12.5-12.5V156
				C578,149.1,572.4,143.5,565.5,143.5z"/>
		</g>
	</g>
	<g>
		<g>
			<linearGradient id="SVGID_13_" gradientUnits="userSpaceOnUse" x1="91.4912" y1="244.3" x2="142.4099" y2="244.3">
				<stop  offset="0" style="stop-color:#462523"/>
				<stop  offset="0.25" style="stop-color:#CB9B51"/>
				<stop  offset="0.4" style="stop-color:#F6E27A"/>
				<stop  offset="0.4" style="stop-color:#F6E27A"/>
				<stop  offset="0.5" style="stop-color:#F6F2C0"/>
				<stop  offset="0.6" style="stop-color:#F6E27A"/>
				<stop  offset="0.75" style="stop-color:#CB9B51"/>
				<stop  offset="1" style="stop-color:#462523"/>
			</linearGradient>
			<path class="st17" d="M141.2,247.2c1.4-2,1.2-2.9,1.2-2.9s0.2-0.9-1.2-2.9s-15-13.6-15.7-14s-28.5-2.2-31.4,1.3
				s-2.6,15.6-2.6,15.6s-0.3,12.1,2.6,15.6c2.9,3.5,30.7,1.7,31.4,1.3S139.8,249.2,141.2,247.2z"/>
			<path class="st18" d="M141.2,247.2c1.4-2,1.2-2.9,1.2-2.9s0.2-0.9-1.2-2.9c-0.9-1.3-6.9-6.6-11.2-10.3c-2.1,3.9-3.4,8.4-3.4,13.2
				c0,4.8,1.2,9.3,3.4,13.2C134.3,253.8,140.3,248.5,141.2,247.2z"/>
		</g>
		<g>
			<linearGradient id="SVGID_14_" gradientUnits="userSpaceOnUse" x1="136.1817" y1="207.3505" x2="171.6183" y2="207.3505">
				<stop  offset="0" style="stop-color:#462523"/>
				<stop  offset="0.25" style="stop-color:#CB9B51"/>
				<stop  offset="0.4" style="stop-color:#F6E27A"/>
				<stop  offset="0.4" style="stop-color:#F6E27A"/>
				<stop  offset="0.5" style="stop-color:#F6F2C0"/>
				<stop  offset="0.6" style="stop-color:#F6E27A"/>
				<stop  offset="0.75" style="stop-color:#CB9B51"/>
				<stop  offset="1" style="stop-color:#462523"/>
			</linearGradient>
			<path class="st19" d="M151,231.6c2,1.4,2.9,1.2,2.9,1.2s0.9,0.2,2.9-1.2s13.6-15,14-15.7s2.2-28.5-1.3-31.4s-15.6-2.6-15.6-2.6
				s-12.1-0.3-15.6,2.6s-1.7,30.7-1.3,31.4C137.5,216.6,149,230.2,151,231.6z"/>
			<path class="st18" d="M151,231.6c2,1.4,2.9,1.2,2.9,1.2s0.9,0.2,2.9-1.2c1.3-0.9,6.6-6.9,10.3-11.2c-3.9-2.1-8.4-3.4-13.2-3.4
				s-9.3,1.2-13.2,3.4C144.5,224.7,149.7,230.7,151,231.6z"/>
		</g>
		<g>
			<linearGradient id="SVGID_15_" gradientUnits="userSpaceOnUse" x1="165.3901" y1="244.4" x2="216.3088" y2="244.4">
				<stop  offset="0" style="stop-color:#462523"/>
				<stop  offset="0.25" style="stop-color:#CB9B51"/>
				<stop  offset="0.4" style="stop-color:#F6E27A"/>
				<stop  offset="0.4" style="stop-color:#F6E27A"/>
				<stop  offset="0.5" style="stop-color:#F6F2C0"/>
				<stop  offset="0.6" style="stop-color:#F6E27A"/>
				<stop  offset="0.75" style="stop-color:#CB9B51"/>
				<stop  offset="1" style="stop-color:#462523"/>
			</linearGradient>
			<path class="st20" d="M213.7,228.8c-2.9-3.5-30.7-1.7-31.4-1.3c-0.7,0.4-14.3,12-15.7,14s-1.2,2.9-1.2,2.9s-0.2,0.9,1.2,2.9
				s15,13.6,15.7,14c0.7,0.4,28.5,2.2,31.4-1.3s2.6-15.6,2.6-15.6S216.6,232.3,213.7,228.8z"/>
			<path class="st18" d="M177.9,231.2c-4.3,3.7-10.3,9-11.2,10.3c-1.4,2-1.2,2.9-1.2,2.9s-0.2,0.9,1.2,2.9
				c0.9,1.3,6.9,6.6,11.2,10.3c2.1-3.9,3.4-8.4,3.4-13.2C181.3,239.6,180,235.1,177.9,231.2z"/>
		</g>
		<g>
			<linearGradient id="SVGID_16_" gradientUnits="userSpaceOnUse" x1="136.1817" y1="281.3495" x2="171.6183" y2="281.3495">
				<stop  offset="0" style="stop-color:#462523"/>
				<stop  offset="0.25" style="stop-color:#CB9B51"/>
				<stop  offset="0.4" style="stop-color:#F6E27A"/>
				<stop  offset="0.4" style="stop-color:#F6E27A"/>
				<stop  offset="0.5" style="stop-color:#F6F2C0"/>
				<stop  offset="0.6" style="stop-color:#F6E27A"/>
				<stop  offset="0.75" style="stop-color:#CB9B51"/>
				<stop  offset="1" style="stop-color:#462523"/>
			</linearGradient>
			<path class="st21" d="M156.8,257.1c-2-1.4-2.9-1.2-2.9-1.2s-0.9-0.2-2.9,1.2c-2,1.4-13.6,15-14,15.7s-2.2,28.5,1.3,31.4
				c3.5,2.9,15.6,2.6,15.6,2.6s12.1,0.3,15.6-2.6c3.5-2.9,1.7-30.7,1.3-31.4C170.4,272,158.8,258.5,156.8,257.1z"/>
			<path class="st18" d="M156.8,257.1c-2-1.4-2.9-1.2-2.9-1.2s-0.9-0.2-2.9,1.2c-1.3,0.9-6.6,6.9-10.3,11.2
				c3.9,2.1,8.4,3.4,13.2,3.4s9.3-1.2,13.2-3.4C163.4,264,158.1,258,156.8,257.1z"/>
		</g>
	</g>
</g>
<g>
	<g>
		<circle class="st22" cx="403" cy="316.4" r="4.1"/>
		<circle class="st22" cx="403" cy="295.5" r="4.1"/>
		<circle class="st22" cx="396.1" cy="305.7" r="4.1"/>
		<circle class="st22" cx="381.4" cy="305.7" r="4.1"/>
		<circle class="st22" cx="388.7" cy="316.4" r="4.1"/>
		<circle class="st22" cx="388.7" cy="295.5" r="4.1"/>
		<circle class="st22" cx="374.4" cy="295.5" r="4.1"/>
	</g>
	<g>
		<circle class="st22" cx="409.9" cy="305.7" r="4.1"/>
		<circle class="st22" cx="424.6" cy="305.7" r="4.1"/>
		
			<ellipse transform="matrix(0.1602 -0.9871 0.9871 0.1602 38.0574 677.5311)" class="st22" cx="417.2" cy="316.4" rx="4.1" ry="4.1"/>
		
			<ellipse transform="matrix(0.1602 -0.9871 0.9871 0.1602 58.6875 659.9789)" class="st22" cx="417.2" cy="295.5" rx="4.1" ry="4.1"/>
		<circle class="st22" cx="431.6" cy="295.5" r="4.1"/>
	</g>
</g>
<g class="st23">
	<path class="st4" d="M403,319.5c-2.1,0-3.8-1.6-4.1-3.6c0,0.2-0.1,0.3-0.1,0.5c0,2.3,1.8,4.1,4.1,4.1c2.3,0,4.1-1.8,4.1-4.1
		c0-0.2,0-0.3-0.1-0.5C406.8,317.9,405.1,319.5,403,319.5z"/>
	<path class="st4" d="M403,299.6c2.3,0,4.1-1.8,4.1-4.1c0-0.2,0-0.3-0.1-0.5c-0.2,2-2,3.6-4.1,3.6s-3.8-1.6-4.1-3.6
		c0,0.2-0.1,0.3-0.1,0.5C398.9,297.7,400.7,299.6,403,299.6z"/>
	<path class="st4" d="M400.2,305.7c0-0.2,0-0.3-0.1-0.5c-0.2,2-2,3.6-4.1,3.6s-3.8-1.6-4.1-3.6c0,0.2-0.1,0.3-0.1,0.5
		c0,2.3,1.8,4.1,4.1,4.1C398.3,309.8,400.2,308,400.2,305.7z"/>
	<path class="st4" d="M385.4,305.2c-0.2,2-2,3.6-4.1,3.6s-3.8-1.6-4.1-3.6c0,0.2-0.1,0.3-0.1,0.5c0,2.3,1.8,4.1,4.1,4.1
		c2.3,0,4.1-1.8,4.1-4.1C385.5,305.5,385.5,305.4,385.4,305.2z"/>
	<path class="st4" d="M388.8,319.5c-2.1,0-3.8-1.6-4.1-3.6c0,0.2-0.1,0.3-0.1,0.5c0,2.3,1.8,4.1,4.1,4.1c2.3,0,4.1-1.8,4.1-4.1
		c0-0.2,0-0.3-0.1-0.5C392.6,317.9,390.9,319.5,388.8,319.5z"/>
	<path class="st4" d="M388.8,299.6c2.3,0,4.1-1.8,4.1-4.1c0-0.2,0-0.3-0.1-0.5c-0.2,2-2,3.6-4.1,3.6s-3.8-1.6-4.1-3.6
		c0,0.2-0.1,0.3-0.1,0.5C384.6,297.7,386.5,299.6,388.8,299.6z"/>
	<path class="st4" d="M378.6,295.5c0-0.2,0-0.3-0.1-0.5c-0.2,2-2,3.6-4.1,3.6s-3.8-1.6-4.1-3.6c0,0.2-0.1,0.3-0.1,0.5
		c0,2.3,1.8,4.1,4.1,4.1C376.7,299.6,378.6,297.7,378.6,295.5z"/>
	<path class="st4" d="M414,305.2c-0.2,2-2,3.6-4.1,3.6s-3.8-1.6-4.1-3.6c0,0.2-0.1,0.3-0.1,0.5c0,2.3,1.8,4.1,4.1,4.1
		c2.3,0,4.1-1.8,4.1-4.1C414.1,305.5,414,305.4,414,305.2z"/>
	<path class="st4" d="M424.6,308.8c-2.1,0-3.8-1.6-4.1-3.6c0,0.2-0.1,0.3-0.1,0.5c0,2.3,1.8,4.1,4.1,4.1s4.1-1.8,4.1-4.1
		c0-0.2,0-0.3-0.1-0.5C428.5,307.3,426.7,308.8,424.6,308.8z"/>
	<path class="st4" d="M417.3,319.5c-2.1,0-3.8-1.6-4.1-3.6c0,0.2-0.1,0.3-0.1,0.5c0,2.3,1.8,4.1,4.1,4.1s4.1-1.8,4.1-4.1
		c0-0.2,0-0.3-0.1-0.5C421.1,317.9,419.4,319.5,417.3,319.5z"/>
	<path class="st4" d="M417.3,299.6c2.3,0,4.1-1.8,4.1-4.1c0-0.2,0-0.3-0.1-0.5c-0.2,2-2,3.6-4.1,3.6s-3.8-1.6-4.1-3.6
		c0,0.2-0.1,0.3-0.1,0.5C413.1,297.7,415,299.6,417.3,299.6z"/>
	<path class="st4" d="M431.6,298.6c-2.1,0-3.8-1.6-4.1-3.6c0,0.2-0.1,0.3-0.1,0.5c0,2.3,1.8,4.1,4.1,4.1s4.1-1.8,4.1-4.1
		c0-0.2,0-0.3-0.1-0.5C435.4,297,433.7,298.6,431.6,298.6z"/>
</g>
<path class="st22" d="M436.6,421h-67.9c-2.8,0-4.6,0.6-4.6-2.2l0,0c0-2.8,2.3-5,5-5H437c2.8,0,5,2.3,5,5l0,0
	C442.1,421.5,439.4,421,436.6,421z"/>
<path class="st2" d="M408.3,418.8h-36.5c-0.5,0-0.9-0.4-0.9-0.9l0,0c0-1.1,0.9-2,2-2h34.2c1.1,0,2,0.9,2,2l0,0
	C409.2,418.4,408.8,418.8,408.3,418.8z"/>
<path class="st2" d="M430.5,419.6h-4.2c-0.9,0-1.7-0.8-1.7-1.7l0,0c0-1.6,1.3-2.8,2.8-2.8h1.9c1.6,0,2.8,1.3,2.8,2.8l0,0
	C432.2,418.9,431.5,419.6,430.5,419.6z"/>
<g>
	<g>
		<path class="st2" d="M530.4,124.3c0-1-0.8-1.9-1.9-1.9H403l0,0H277.4c-1,0-1.9,0.8-1.9,1.9v6v123.2c0,8.6,7,15.6,15.6,15.6H403
			l0,0h111.9c8.6,0,15.6-7,15.6-15.6V130.4L530.4,124.3z"/>
		<g>
			<pattern  id="SVGID_17_" xlink:href="#SVGID_6_" patternTransform="matrix(0.1017 0 0 0.1017 -20886.0098 -5377.4951)">
			</pattern>
			<path class="st24" d="M275.8,253.5c0,8.6,7,15.6,15.6,15.6h111.9l0,0h111.9c8.6,0,15.6-7,15.6-15.6V147h-255V253.5z"/>
			<g>
				<linearGradient id="SVGID_18_" gradientUnits="userSpaceOnUse" x1="353.1506" y1="195.2" x2="470.8994" y2="195.2">
					<stop  offset="0" style="stop-color:#462523"/>
					<stop  offset="0.25" style="stop-color:#CB9B51"/>
					<stop  offset="0.4" style="stop-color:#F6E27A"/>
					<stop  offset="0.4" style="stop-color:#F6E27A"/>
					<stop  offset="0.5" style="stop-color:#F6F2C0"/>
					<stop  offset="0.6" style="stop-color:#F6E27A"/>
					<stop  offset="0.75" style="stop-color:#CB9B51"/>
					<stop  offset="1" style="stop-color:#462523"/>
				</linearGradient>
				<path class="st25" d="M463.6,210.3c-0.1,1.3-0.2,2.6-0.3,3.9c-0.1,0-0.1,0-0.2,0c-0.5-2.8-1.1-5.6-1.6-8.5c-0.1,0-0.2,0-0.3,0
					c-0.7,1.9-0.6,4-0.6,6c-0.1,0-0.2,0-0.3,0c-0.1-1.3-0.2-2.6-0.3-3.9c-0.1-1.3-0.3-2.5-0.4-3.8c-0.1,0-0.3,0-0.4,0
					c0,2.4,0,4.8,0,7.2c-0.1,0-0.2,0-0.3,0c-0.1-0.3-0.2-0.6-0.3-1.1c-0.2,0.3-0.3,0.5-0.4,0.7c-0.1,0-0.1,0-0.2,0c0-2.3,0-4.7,0-7
					c-0.2,0-0.3,0-0.5,0c-0.1,2-0.2,4-0.4,6.3c-1.1-2.7-0.4-5.3-0.9-7.9c-0.3,1.9-0.5,3.8-0.8,5.7c-0.1,0-0.1,0-0.2,0
					c-0.2-1.9-0.4-3.9-0.6-5.8c-0.1,0-0.2,0-0.3,0c-0.8,2.4-0.8,4.9-1.1,7.3c-0.1,0-0.2,0-0.3,0c-0.2-2-0.3-4-0.5-6
					c-0.1,0-0.1,0-0.2,0c-0.2,1-0.3,2-0.5,2.9c-0.1,0-0.3,0-0.4,0c0-1.7,0-3.4,0-5.1c-0.1,0-0.2,0-0.4,0c-0.2,1-0.3,1.9-0.5,2.9
					c-0.1,0-0.1,0-0.2,0c-0.2-1.8-0.4-3.5-0.6-5.3c-0.1,0-0.2,0-0.2,0c0,1.1,0,2.3,0,3.4c-0.1,0-0.2,0-0.3,0
					c-0.2-1.1-0.4-2.1-0.7-3.2c-0.1,0-0.2,0-0.3,0c-0.1,1.2-0.1,2.4-0.2,3.5c0,0-0.1,0.1-0.1,0.1c-0.3-0.8-0.6-1.6-0.9-2.6
					c-0.2,0.6-0.4,1-0.6,1.5c-0.1,0-0.1,0-0.2,0c-0.3-0.9-0.5-1.9-0.8-2.8c-0.1,1.2-0.8,2.4,0.3,3.4c0.3,0.3,0.6,0.6,0.3,1.1
					c-0.1,0.1,0.4,0.7,0.7,0.9c1.3,0.9,2.4,2,2.7,3.6c-0.8-0.5-1.7-1-2.5-1.4c-0.1,0.1-0.1,0.2-0.2,0.3c1.2,1.3,2.4,2.5,2.6,4.4
					c-0.4-0.2-0.7-0.4-1-0.5c0.7,1.9,2.1,3.6,2,5.5c-0.5-0.6-1.2-1.4-1.7-2.2c-0.5-0.8-0.9-1.7-1.5-2.6c0,2.6,1.8,4.8,1.6,7.7
					c-0.5-0.9-0.9-1.6-1.3-2.3c-0.1,0-0.2,0.1-0.3,0.1c0,2.2,1.2,4.3,0.6,6.8c-0.6-1.3-1.1-2.4-1.6-3.5c-0.1,0-0.2,0.1-0.3,0.1
					c0.4,2.4,0.8,4.8,1.2,7.2c-0.1,0-0.2,0.1-0.3,0.1c-0.5-0.9-1.1-1.8-1.6-2.7c0.2,2.8-1,5.2-2.2,8c-0.1-1.1-0.2-2.1-0.2-3
					c0-1,0.1-1.9,0.2-2.9c-0.1,0-0.2-0.1-0.4-0.1c-0.3,1-0.5,1.9-0.8,2.9c-0.1,0-0.2,0-0.3,0c-0.1-0.7-0.2-1.4-0.3-2.1
					c-0.1-2.5,0.7-4.9,1.4-7.4c0.1-0.4,0.2-0.8,0.1-1.3c-0.6,1-1.3,2-2.1,3.2c0.6-1.9,1.1-3.4,1.6-5c-0.1-0.1-0.3-0.1-0.4-0.2
					c-1.1,1.4-2.1,2.8-3.2,4.2c0.2-2.3,1.1-4.3,2.3-6.3c-0.1-0.1-0.2-0.1-0.3-0.2c-0.5,0.4-1,0.8-1.6,1.2c-0.1,0-0.1-0.1-0.2-0.1
					c0.6-1,1.2-2,1.9-3.1c-1.3-0.1-1.4,1.2-2.3,1.5c0.6-1.4,1.2-2.7,1.8-4.1c-0.1-0.1-0.2-0.1-0.3-0.2c-1.4,1.5-2.3,3.5-3.9,5
					c0.9-2.1,1.9-4.2,2.9-6.4c-1.3,0.6-1.9,1.7-2.9,2.5c0.3-0.6,0.5-1.1,0.8-1.7c0.3-0.5,0.6-1.1,0.9-1.6c-0.1-0.1-0.2-0.2-0.3-0.2
					c-0.6,0.5-1.1,1.1-1.7,1.6c-0.1,0-0.1-0.1-0.2-0.1c1.1-2.1,2.2-4.1,3.2-6.2c-1.5,0.6-2.3,1.8-2.5,3.4c-0.2-0.2-0.3-0.3-0.5-0.5
					c-1.3,1.2-0.4,2.9-1,4.5c-0.2-0.5-0.4-0.8-0.6-1.2c-0.3,1.5-0.6,2.9-1,4.5c-0.2-0.4-0.4-0.7-0.6-1.1c-0.7,1.2,0.5,2.8-1.2,3.6
					c-0.2-0.8-0.5-1.6-0.7-2.4c-0.1,0-0.1,0-0.2,0c0,1.5,0,3.1,0,4.6c-0.1,0-0.3,0-0.4,0c-0.3-1.8-0.6-3.6-0.9-5.4
					c-0.3,3.5-0.3,7.1-1.1,10.5c-0.1,0-0.2,0-0.3,0c-0.1-1.3-0.1-2.7-0.2-4c-0.1,0-0.2,0-0.3,0c-0.1,1.1-0.2,2.1-0.4,3.2
					c-0.1,0-0.2,0-0.3,0c-0.2-0.9-0.3-1.8-0.5-2.7c-0.1,0-0.1,0-0.2,0c0,0.3-0.1,0.6-0.1,1c0,1.6,0,3.1-0.1,4.7
					c0,0.5-0.2,0.9-0.3,1.4c-0.1,0-0.3,0-0.4,0c-0.3-1.1-0.5-2.3-0.8-3.4c-0.1,0-0.2,0-0.3,0c-0.3,2-0.5,4.1-0.8,6.4
					c-0.9-2.4-0.5-4.5-0.5-6.7c-1,0.9-0.8,2.2-1.2,3.4c-0.4-2.2-0.1-4.3,0.8-6.4c-0.1,0-0.2-0.1-0.3-0.1c-0.6,0.9-1.2,1.8-1.8,2.8
					c-0.1,0-0.1-0.1-0.2-0.1c0.8-2.2,1.6-4.3,2.5-6.7c-0.7,0.7-1.3,1.4-2,2.1c0.5-2.5,2-4.3,3.6-6.1c-0.1-0.1-0.2-0.2-0.3-0.2
					c-0.7,0.7-1.4,1.4-2.2,2.2c-0.1,0-0.1,0-0.2-0.1c0.7-1.3,1.4-2.6,2.1-3.9c-0.1-0.1-0.1-0.1-0.2-0.2c-0.5,0.6-0.9,1.3-1.4,1.9
					c-0.1-0.1-0.2-0.2-0.3-0.3c0.4-1.4,1.6-2.3,2.5-3.3c1-1,2.1-1.9,3.1-2.9c-0.1-0.1-0.2-0.2-0.3-0.3c-1.1,0.8-2.3,1.5-3.1,2.6
					c-3.2,4-6.4,8-9.4,12.2c-3.3,4.6-5.9,9.6-8.1,14.9c-0.5,1.2-1.2,2.4-1.6,3.7c-0.4,1.1-0.4,2.3-0.7,3.5c-0.3,1.3-0.6,2.6-0.9,3.9
					c-0.3,1.1-0.6,2.2-0.9,3.3c-0.2,0.6-0.4,1.2-0.6,1.8c-0.2,0.6-0.3,1.2-0.3,1.8c2.3-2.6,4.4-5.4,7.4-7.3
					c-0.6,1.4-1.2,2.8-1.8,4.1c-0.6,1.3-1.4,2.6-2,4.1c1.7-0.8,3.4-1.6,5.1-2.4c-0.9,1.1-1.8,2.3-2.8,3.6c2.1-0.7,4-1.3,5.8-1.9
					c0.1,0.1,0.1,0.2,0.2,0.3c-2.1,1.8-4.2,3.7-6.3,5.5c0,0.1,0.1,0.1,0.1,0.2c1.5-0.3,3-0.7,4.4-1c0.1,0.1,0.1,0.2,0.2,0.3
					c-0.7,0.5-1.4,1.1-2.2,1.3c-1.8,0.6-3.5,1.6-5.4,1.4c-0.7-0.1-1.4-0.2-2.1-0.2c-0.7,0-1.3,0.2-2,0.3c-0.6,0.1-1.3,0.2-1.9,0.2
					c-0.6,0-1.1-0.1-1.7,0c-1.5,0.1-2.9,0.1-4.2-0.8c-0.5-0.3-1.2-0.5-1.9-0.5c-2.1,0-4.3,0.1-6.3-0.9c-1.5-0.7-2.9-1.7-4.3-2.7
					c2.6,0.1,5.2-1,7.8,0.2c-0.8-1.5-1.6-2.9-2.4-4.4c0-0.1,0.1-0.1,0.1-0.2c1,0.7,2.1,1.4,3.1,2.2c1,0.8,1.9,1.7,2.9,2.6
					c-1.1-3-1.5-6.1-1.3-9.2c2.6,2.5,2.9,5.9,3.3,9.3c0.2-4.6-1.2-9.2,0-13.8c0.5,1.8,1,3.6,1.5,5.4c0.1,0,0.2,0,0.3,0
					c0.4-2.1,0.9-4.3,1.2-6.4c0.9-6.7,0.7-13.5,0.6-20.2c-0.1-6.1-0.2-12.2-0.4-18.3c-0.2-7.1-1.1-14.1-2.5-21.1
					c-0.5-2.3-1.2-4.5-1.8-6.9c-0.2,0.2-0.4,0.3-0.4,0.4c-0.5-4.4-2.1-8.4-3.6-12.4c-0.1,2.2,1.7,4.2,0.6,6.4
					c-0.5-0.9-1.1-2.1-1.7-3.2c-0.3,2.4,1.1,4.4,1.2,6.6c-0.1,0-0.2,0.1-0.3,0.1c-0.7-1.5-1.4-3-2.1-4.6c-0.3,1.5,0.2,2.9,0.7,4.2
					c0.3,0.8,0.5,1.7,0.8,2.6c0,0.1-0.1,0.3-0.2,0.5c-0.1,0-0.2,0-0.3,0c0.2,0.7,0.3,1.3,0.5,2c-0.1,0-0.2,0.1-0.2,0.1
					c-0.4-0.5-0.7-1-1.2-1.8c0.1,0.9,0.2,1.6,0.3,2.2c-0.1,0-0.1,0.1-0.2,0.1c-0.8-1.4-1.6-2.8-2.5-4.1c-0.1,0-0.2,0.1-0.3,0.1
					c0.4,1,0.7,2,1.1,3c0.4,1,0.7,2,1.1,2.9c-0.1,0.1-0.2,0.1-0.3,0.2c-0.7-1-1.4-1.9-2-2.9c-0.1,0-0.1,0.1-0.2,0.1
					c0.9,2.5,1.8,5.1,2.7,7.6c-0.2,0.1-0.3,0.2-0.5,0.2c-0.8-1.4-1.6-2.7-2.4-4.1c-0.1,0-0.1,0.1-0.2,0.1c0.5,1.6,1,3.2,1.5,4.8
					c-0.1,0.1-0.3,0.1-0.4,0.2c-1.2-2.1-2.5-4.1-3.7-6.2c-0.2,0.1-0.3,0.1-0.5,0.2c0.2,0.8,0.3,1.6,0.7,2.4c0.8,1.6,1.7,3.1,2.6,4.6
					c0.5,1,1.3,1.9,1,3.2c-0.9-1.4-1.8-2.8-2.8-4.2c-0.1,0-0.1,0-0.2,0.1c0.3,1,0.5,2.1,0.8,3.3c-0.4,0-0.6,0-0.9-0.1
					c0.2,0.8,0.4,1.6,0.6,2.4c-0.1,0.1-0.2,0.1-0.3,0.2c-0.6-1.2-1.2-2.4-1.8-3.5c-0.1,0-0.2,0-0.3,0c0.1,0.9,0.2,1.8,0.4,2.8
					c-0.2-0.2-0.4-0.3-0.7-0.6c0.1,1.3,0.1,2.4,0.2,3.8c-1.7-2.1-2.1-4.3-1.8-6.7c-0.1,0-0.3,0-0.4,0c-0.3,1.1-0.5,2.2-0.8,3.3
					c-1-2.1,0.3-4.2,0.4-6.4c-0.1,0-0.2,0-0.3-0.1c-0.5,1.2-0.9,2.4-1.4,3.5c0,0-0.1,0-0.1,0c0.1-0.5,0.1-1.1,0.2-1.9
					c-0.4,0.4-0.6,0.7-1,1c0.2-3.3,2.9-5.1,3.9-7.9c-1.7,1.1-2.8,2.9-3.9,4.5c0.3-1.9,1.4-3.4,2.5-4.9c-0.1-0.1-0.1-0.2-0.2-0.2
					c-0.9,0.8-1.8,1.5-2.7,2.3c-0.6-1.4,0.4-2.1,1.1-2.9c0.8-0.9,1.7-1.8,2.5-2.6c-0.1-0.1-0.2-0.2-0.3-0.3c-1.4,1-2.7,2.1-4.1,3.1
					c-0.1-0.1-0.1-0.1-0.2-0.2c1.1-1,2.2-2.1,3.2-3.1c0-0.1-0.1-0.1-0.1-0.2c-1.1,0.6-2.1,1.2-3.4,2c1.8-2.8,4.7-4.1,6.8-6.3
					c-2.5,0.6-4,2.8-6.4,3.9c0.3-0.5,0.6-1,0.9-1.4c-1.1-0.7-1.1-0.7-1.6,0.5c-0.1-0.2-0.2-0.4-0.3-0.8c-0.3,1.2-0.5,2.1-0.7,3.1
					c-0.1,0-0.1,0-0.2,0c-0.1-0.7-0.3-1.4-0.4-2.1c-0.1,0-0.1,0-0.2,0c-0.3,1.2-0.6,2.4-0.9,3.6c-0.1,0-0.1,0-0.2,0
					c-0.2-1-0.3-2.1-0.5-3.1c-0.1,0-0.2,0-0.3,0c-0.2,1-0.5,2-0.7,3.1c-0.1,0-0.2,0-0.2,0c-0.1-0.6-0.3-1.2-0.4-1.9
					c-0.1,0-0.2,0-0.2,0c-0.3,1.7-0.7,3.4-1,5.1c-0.1,0-0.3,0-0.4,0c-0.2-1-0.4-1.9-0.6-2.9c-0.1,0-0.1,0-0.2-0.1
					c-0.1,0.8-0.2,1.7-0.3,2.5c0,0-0.1,0-0.1,0c-0.3-1.3-0.5-2.6-0.8-3.9c-0.1,0-0.2,0-0.3,0c-0.2,2.3-0.4,4.6-0.5,6.9
					c-0.1,0-0.1,0-0.2,0c-0.3-1.2-0.5-2.4-0.8-3.6c-0.2,0-0.3,0-0.5,0c-0.6,2.3-1.2,4.6-1.8,6.9c-0.9-2.6,0.8-4.9,0.6-7.4
					c-1.3,2-1.6,4.4-2.3,6.6c0.1-1.5,0.3-2.9,0.4-4.4c-0.1,0-0.2-0.1-0.3-0.1c-1.1,2.2-2,4.5-2.6,6.9c-0.1,0-0.2,0-0.3-0.1
					c0.3-1.8,0.7-3.6,1-5.7c-0.5,0.8-0.9,1.5-1.3,2.1c-0.1,0-0.1-0.1-0.2-0.1c0.4-1,0.8-2,1.2-3c0.3-0.8,0.9-1.3,0.7-2.4
					c-0.1-0.7,0.6-1.6,1.1-2.4c0.3-0.6,0.7-1.1,1.1-1.6c0.4-0.5,0.7-1.1,0.9-1.8c0.4-1.6,1.2-3,1.8-4.5c0.1-0.2,0.2-0.4,0.3-0.6
					c-0.1-0.1-0.2-0.1-0.3-0.2c-0.8,0.9-1.6,1.8-2.5,2.7c0.4-2.1,1.9-3.5,2.9-5.2c-0.6,0.4-1.2,0.7-1.8,1.1
					c-0.1-0.1-0.1-0.1-0.2-0.2c1.1-0.9,2.2-1.8,3.3-2.8c0.2-0.2,0.5-0.3,0.7-0.6c0.1-0.1-0.1-0.3-0.1-0.5c-0.1-0.1-0.2-0.1-0.3-0.2
					c1.2-0.8,2.3-1.6,3.5-2.3c2.3-1.3,4.7-2.6,7.4-2.7c2-0.1,4,0.1,6,0.1c0.4,0,0.8-0.2,1-0.5c-0.7-0.1-1.4-0.2-2.1-0.3
					c-0.1-0.1-0.1-0.2-0.2-0.2c0.4-0.2,0.7-0.3,1.1-0.5c-0.1-0.1-0.2-0.3-0.3-0.4c-0.5,0.2-1.1,0.4-1.8,0.7c0.4-0.5,0.6-0.8,0.9-1.1
					c0-0.1-0.1-0.1-0.1-0.2c-0.8,0.3-1.6,0.6-2.6,0.9c0.3-0.5,0.5-0.8,0.7-1.1c0-0.1-0.1-0.2-0.1-0.2c-0.6,0.2-1.3,0.5-2,0.8
					c0-0.2,0-0.4,0-0.8c-0.7,0.4-1.4,0.7-2.1,1.1c-0.1-0.1-0.1-0.1-0.2-0.2c1.1-1.7,3.1-2.4,4.5-3.8c-0.1-0.1-0.1-0.2-0.2-0.2
					c-1.3,0.6-2.7,1.2-4.3,1.9c0.4-0.5,0.5-0.7,0.7-1c0-0.1-0.1-0.1-0.1-0.2c-1.1,0.6-2.2,1.2-3.4,1.8c-0.1-0.1-0.1-0.1-0.2-0.2
					c0.2-0.3,0.4-0.6,0.5-0.9c-0.1-0.1-0.1-0.1-0.2-0.2c-0.6,0.4-1.3,0.8-2.1,1.3c0.3-0.6,0.4-0.9,0.6-1.2c-0.1-0.1-0.1-0.1-0.2-0.2
					c-0.5,0.4-1.1,0.8-1.6,1.2c0.6-1.7,2.4-2.2,3.6-3.2c-0.1-0.1-0.2-0.2-0.3-0.4c-1.9,1.2-3.9,2.3-5.8,3.5c1.5-2.5,3.9-4.1,6.2-5.9
					c-3,0.7-5.5,2.3-8.3,3.6c0.5-0.4,0.9-0.9,1.4-1.2c0.5-0.4,1-0.7,1.4-1.2c-1.8,0.3-3,1.7-4.7,2.4c0-0.3,0.1-0.5,0.1-0.8
					c-1.4,0.4-2.6,0.9-3.9,1.3c0-0.1-0.1-0.2-0.1-0.3c2.2-1.3,4.3-2.6,6.5-3.9c-0.1-0.1-0.1-0.3-0.2-0.4c-1.6,0.5-3.3,1.1-4.9,1.6
					c0-0.1,0-0.1-0.1-0.2c0.8-0.4,1.5-0.7,2.3-1.1c0-0.1,0-0.2-0.1-0.3c-2,0.3-4,0.7-6.1,1c2.9-1.6,6.1-2,9.3-2.6
					c-0.6-0.1-1.2-0.3-1.8-0.4c0-0.1,0-0.2,0-0.3c2.7-0.2,5.3,0,8,0.6c0-0.1,0.1-0.2,0.1-0.3c-0.9-0.5-1.8-1-2.7-1.4
					c0-0.1,0.1-0.1,0.1-0.2c1.6,0.6,3.3,1.3,4.9,1.9c0.1-0.1,0.1-0.1,0.2-0.2c-0.6-0.6-1.3-1.2-1.9-1.8c0-0.1,0.1-0.1,0.1-0.2
					c0.9,0.4,1.9,0.7,2.7,1.2c0.8,0.5,1.6,1.3,2.3,2c0.1-0.1,0.2-0.2,0.3-0.3c-0.8-0.8-1.5-1.7-2.3-2.5c0-0.1,0.1-0.1,0.1-0.2
					c0.4,0.3,0.8,0.5,1.2,0.8c1,0.9,2,1.8,3,2.7c0.3,0.2,0.8,0.2,1.1,0.4c0.4,0.3,0.8,0.6,1.1,0.9c1,1.2,1.9,2.5,2.9,3.7
					c0.8,1,1.5,2,2.3,3c0.4-0.2,0.7-0.3,0.9-0.4c-0.4-0.5-0.9-1-1.4-1.6c0.9,0.2,1.6,0.4,2.6,0.6c-1.2-1.1-2.3-2-3.3-3
					c0,0,0.1-0.1,0.1-0.1c0.3,0.2,0.6,0.4,1.2,0.7c-0.5-1.6-1.9-2-2.8-3.2c1,0.4,1.8,0.7,2.8,1.1c-0.9-1.8-2.6-2.2-4.2-3.2
					c0.7,0.1,1,0.1,1.7,0.2c-0.5-0.4-0.7-0.7-1-1c0.2,0,0.4-0.1,0.8-0.2c-1.3-0.6-2.3-1.2-3.4-1.8c0-0.1,0.1-0.2,0.1-0.3
					c0.4,0.1,0.8,0.1,1.4,0.2c-0.3-0.5-0.5-0.8-0.8-1.2c0.5,0,0.8,0.1,1.3,0.1c-0.7-0.9-1.3-1.7-2-2.6c0.4,0,0.7-0.1,1.3-0.1
					c-1.2-1-2.3-1.9-3.4-2.9c0.1-0.1,0.1-0.2,0.2-0.3c0.9,0.5,1.8,0.9,2.7,1.4c0.1-0.1,0.2-0.2,0.2-0.3c-0.6-0.6-1.2-1.2-1.9-1.8
					c-0.7-0.6-1.4-1.1-2.1-1.6c0.1-0.1,0.1-0.2,0.2-0.3c1,0.6,1.9,1.1,2.9,1.7c0,0,0-0.1,0.1-0.1c-1-1.3-2.1-2.6-3.1-3.9
					c0.1-0.1,0.1-0.1,0.2-0.2c0.7,0.5,1.4,1,2,1.5c0.1-0.1,0.1-0.1,0.2-0.2c-0.9-1.4-1.8-2.8-2.7-4.3c1.3,0.2,1.7,1.6,2.7,2.5
					c0-0.6,0-1,0-1.4c0.1,0,0.1,0,0.2-0.1c0.5,1.2,0.9,2.3,1.5,3.8c0.1-0.9,0.2-1.5,0.2-2.1c0.1,0,0.3,0,0.4,0c0.3,1.7,0.7,3.3,1,5
					c0.1,0,0.2,0,0.2,0c0-0.4,0.1-0.9,0.1-1.5c0.2,0.6,0.4,1,0.6,1.4c0.1,0,0.2,0,0.2-0.1c-0.1-0.6-0.2-1.2-0.2-1.8
					c0.1,0,0.2,0,0.3-0.1c0.4,2,0.8,4.1,1.2,6.1c0.1,0,0.1,0,0.2,0c0.1-1.1,0.2-2.1,0.3-3.2c0.1,0,0.1,0,0.2,0
					c0.2,1.1,0.3,2.2,0.5,3.4c0.1,0,0.1,0,0.2,0c0.2-0.6,0.4-1.2,0.7-2c0.2,1.5,0.5,2.9,0.7,4.5c0.2-0.5,0.3-0.7,0.4-1
					c0.1,0,0.2,0,0.3,0c-0.1,1.2-0.2,2.3-0.3,3.5c0.1,0.1,0.2,0.1,0.2,0.2c0.1-0.2,0.1-0.5,0.2-0.7c0.1,0.1,0.2,0.1,0.3,0.2
					c-0.1,1-0.1,1.9-0.2,3c0.2-0.1,0.3-0.2,0.5-0.3c0,0.6-0.1,1.1-0.1,1.7c0.6-0.1,0.6-0.1,0.6-1.7c0-0.7,0.1-1.4,0.4-2.1
					c0.2,0.8,0.4,1.6,0.7,2.4c0.5-2.3-1.1-4.5-0.1-6.8c0.1,0.7,0.3,1.4,0.4,2.2c0,0,0.1,0,0.1,0c0-2.2,0-4.4,0-6.6
					c0.1,0,0.2,0,0.3,0c0.1,0.6,0.3,1.3,0.5,2.2c0.3-1.5,0.5-2.8,0.7-4c0.1,0,0.3,0,0.4,0c0,1.3,0,2.6,0,3.9c0.1,0,0.2,0,0.3,0
					c0.1-0.6,0.2-1.2,0.3-1.8c0.1,0.1,0.2,0.2,0.4,0.4c0.6-1.6,0.1-3.4,1.6-4.9c-0.1,0.7-0.1,1.2-0.2,1.6c0.1,0,0.1,0,0.2,0.1
					c0.4-0.8,0.8-1.6,1.2-2.4c0,0,0.1,0,0.1,0c0,0.6,0,1.3,0,2.1c1.3-1.2,1.7-3.1,3.4-3.6c-0.4,0.7-0.7,1.4-1,2
					c1.6-0.7,3-1.9,5.1-1.9c-1.4,1-2.7,2-4,3c0,0.1,0.1,0.1,0.1,0.2c0.8-0.1,1.6-0.2,2.3-0.4c0,0,0,0.1,0.1,0.1
					c-0.6,0.3-1.2,0.6-1.9,1c0.9,0.3,0.3,0.6-0.1,0.9c0.6,0,1,0,1.6,0c-1,0.4-1.9,0.7-2.8,1.1c0,0.1,0,0.1,0,0.2
					c0.4,0,0.8,0.1,1.2,0.1c-0.2,0.5-0.5,1-0.7,1.4c0.1,0,0.1,0.1,0.2,0.1c0.8-0.6,1.5-1.3,2.3-1.9c0,0,0.1,0.1,0.1,0.1
					c-0.1,0.3-0.2,0.6-0.4,1c0.9-0.4,1.6-0.8,2.3-1.2c0.1,0.1,0.1,0.2,0.2,0.3c-0.8,0.6-1.7,1.3-2.7,2.1c0.8-0.1,1.4-0.2,2-0.3
					c0,0.1,0.1,0.2,0.1,0.3c-0.9,0.4-1.8,0.7-2.7,1.1c0,0.1,0,0.1,0.1,0.2c1-0.1,2-0.2,3-0.3c0,0.1,0,0.1,0,0.2
					c-1.8,0.5-3.6,1.1-5.3,1.6c0,0.1,0,0.2,0.1,0.3c1.7-0.2,3.5-0.5,5.2-0.7c0,0.1,0.1,0.3,0.1,0.4c-1.5,0.4-3,0.9-4.6,1.3
					c1,0.1,1.8,0.2,2.6,0.3c0,0.1,0,0.3,0,0.4c-1.8,0.3-3.5,0.6-5.3,1c0,0.1,0,0.3,0,0.4c1,0,2,0.1,3.1,0.1c0,0.1,0,0.1,0,0.2
					c-0.3,0.1-0.7,0.3-1.1,0.5c0.2,0.1,0.4,0.2,0.6,0.3c-0.7,0.2-1.3,0.4-2.2,0.6c0.4,0.2,0.6,0.3,0.7,0.4c-0.7,0.2-1.4,0.3-2.1,0.5
					c0,0.1,0,0.1,0,0.2c0.7,0,1.4,0,2.2,0c0,0,0,0.1,0,0.1c-1.2,0.5-2.4,0.9-3.9,1.5c0.9,0.3,1.6,0.5,2.2,0.7c2.6-1.8,5.2-3.7,8-5.4
					c2.9-1.8,5.9-3.3,9.4-3.6c0.6-0.1,1.2,0,1.9,0.1c-2.1,0.6-4.1,1.2-6.2,1.8c0,0.1,0,0.1,0,0.2c0.7,0,1.4,0,2.4,0
					c-0.5,0.2-0.9,0.4-1.2,0.5c-0.4,0.1-0.8,0.2-1.2,0.4c0.9,0,1.8,0,2.7,0c-0.5,1.5-1.9,1.2-2.8,1.6c-0.9,0.4-2,0.6-2.9,0.8
					c0,0.1,0,0.2,0,0.3c1.4-0.1,2.8-0.2,4.4-0.3c-2,0.7-3.7,1.4-5.5,2c0,0.1,0,0.1,0,0.2c1.3,0.1,2.5,0.2,3.8,0.3c0,0.1,0,0.1,0,0.2
					c-2.7,0.4-5.5,0.7-8.2,1.1c0,0,0,0.1,0,0.1c1,0.1,2,0.1,3,0.3c1.1,0.2,2.2,0.4,3.2,0.7c1,0.3,2,0.7,2.9,1.3c-0.4,0-0.7,0-1.1,0
					c0,0.1-0.1,0.1-0.1,0.2c0.3,0.2,0.6,0.5,1.1,0.8c-1.2-0.2-2.1-0.3-3-0.5c0,0.1-0.1,0.1-0.1,0.2c0.9,0.5,1.7,1,2.6,1.5
					c0,0-0.1,0.1-0.1,0.1c-0.4-0.1-0.8-0.3-1.3-0.4c0,0.1-0.1,0.1-0.1,0.2c0.6,0.4,1.2,0.8,1.7,1.2c-2.5-0.9-4.9-1.8-7.3-2.7
					c-0.2-0.1-0.4,0-0.8,0c1.5,0.8,2.9,1.4,4.2,2.1c0,0.1-0.1,0.2-0.1,0.3c-0.9-0.3-1.8-0.7-2.7-1c0,0.1-0.1,0.2-0.1,0.3
					c0.6,0.4,1.2,0.9,1.8,1.3c0,0.1-0.1,0.2-0.1,0.3c-1.4-0.6-2.8-1.1-4.1-1.7c0,0.1-0.1,0.1-0.1,0.2c0.7,0.7,1.5,1.3,2.2,2
					c0,0.1-0.1,0.1-0.1,0.2c-0.7-0.3-1.3-0.5-2.2-0.9c0.2,0.4,0.4,0.7,0.6,1.1c-0.8,0-1.5,0-2.3,0c0.1,0.3,0.3,0.5,0.4,0.9
					c-1.4,0-2.7,0-4,0c1.3,1.2,1.6,1.3,3,0.8c3.7-1.1,7.4-1.7,11.2-1.8c2.2-0.1,4.3-0.2,6.5-0.2c1.5,0,3,0.3,4.4,0.5
					c0,0.1,0,0.2,0,0.3c-0.6,0.1-1.2,0.2-1.9,0.2c2.4,0.6,4.9,1.1,7,2.7c-0.7-0.1-1.3-0.2-2-0.3c0,0.1-0.1,0.1-0.1,0.2
					c1.7,1.2,3.5,2.5,5.2,3.7c-0.1,0.1-0.2,0.3-0.2,0.4c-0.5-0.2-1.1-0.4-1.8-0.8c0.8,1.3,2.2,2,2.3,3.5c-2.8-1.3-4.6-3.7-6.5-5.9
					c-0.1,0.1-0.2,0.2-0.4,0.3c1,1.4,1.9,2.7,2.9,4.1c-0.1,0.1-0.2,0.2-0.3,0.3c-1-0.9-2-1.8-3-2.7c-0.1,0-0.1,0.1-0.2,0.1
					c0.7,1.4,1.5,2.9,2.2,4.3c-0.1,0.1-0.2,0.1-0.3,0.2c-1.5-2.7-3.3-5.3-5.6-7.4c1.1,2.6,3.3,4.5,4,7.3c-1.2-0.9-1.5-2.6-3-3.2
					c0.5,1,1,2.1,1.4,3.1c-0.1,0.1-0.2,0.1-0.3,0.2c-0.8-1.1-1.5-2.1-2.3-3.2c-0.7-1-1.5-2.1-2.2-3.1c-0.1,0.1-0.2,0.1-0.3,0.2
					c1.1,2.2,2.2,4.5,3.3,6.7c-0.1,0.1-0.1,0.1-0.2,0.2c-0.8-0.9-1.6-1.8-2.4-2.7c-0.1,0-0.1,0.1-0.2,0.1c0.3,0.7,0.6,1.5,0.9,2.2
					c-0.1,0.1-0.2,0.1-0.3,0.2c-1.1-1.7-2.2-3.5-3.3-5.2c-0.1,0-0.2,0.1-0.2,0.1c0.5,1.2,1,2.4,1.5,3.6c-0.1,0-0.2,0.1-0.3,0.1
					c-0.3-0.6-0.7-1.1-1-1.7c-0.1,0-0.1,0-0.2,0.1c0,0.6,0,1.1,0,1.8c0.7,1.1,1.8,2.2,2.3,3.6c0.6,1.6,1.3,3.2,1.8,4.8
					c0.4,1.1,0.8,2.1,1.4,3.4c-0.4-0.3-0.6-0.5-0.9-0.7c0.1,1.2,0.2,2.3,0.4,3.4c0.8-0.2,1.6-0.5,2.3-0.5c1,0,2.1,0,3.1,0.2
					c2,0.3,4,0.7,6,1.2c1.6,0.4,2.9,1.4,3.9,2.7c0.7,0.9,1.4,1.7,2.8,1.8c-0.4-0.6-0.8-1.1-1.2-1.7c0.2,0,0.4,0,0.9-0.1
					c-1-1-1.8-1.8-2.8-2.7c0.3-0.1,0.5-0.2,0.7-0.3c-0.5-0.5-1-0.9-1.5-1.4c0,0,0.1-0.1,0.1-0.1c0.9,0.3,1.8,0.6,2.7,0.9
					c0.1-0.1,0.1-0.1,0.2-0.2c-1.2-1-2.4-2-3.5-3c0.1-0.1,0.1-0.2,0.2-0.3c1,0.4,2.1,0.9,3.3,1.4c-0.3-1-0.9-1.5-1.7-1.8
					c-0.7-0.3-1.3-0.8-1.9-1.3c0.5,0,0.9,0,1.7,0c-1.2-0.9-2.2-1.6-3.4-2.4c1.2,0.2,2.2,0.3,3.3,0.4c-0.6-1-1.2-1.9-2-3
					c2,0.5,2.6,2,3.8,3.3c-0.2-1-0.3-1.9-0.5-2.9c0,0,0,0,0.1-0.1c0.5,1.1,0.9,2.2,1.4,3.2c0.1,0,0.2,0,0.3-0.1c0-0.6,0-1.2,0-1.7
					c0.1,0,0.2,0,0.3,0c0.3,1.3,0.6,2.5,0.9,3.8c0.1-0.2,0.3-0.5,0.5-0.9c0.1,0,0.1,0,0.2,0c0,1.3,0,2.7,0,4.2
					c0.3-0.3,0.6-0.5,0.8-0.8c0.1,0,0.1,0,0.2,0.1c-0.2,0.8-0.5,1.6-0.7,2.4c0.2,0,0.4,0,0.8,0c-0.3,1.2-0.7,2.3-1,3.5
					c0.1,0,0.2,0.1,0.3,0.1c0.2-0.5,0.4-1,0.6-1.5c0.4-1.3,0.7-2.6,1.3-3.8c0.4-0.8,1.1-1.5,1.6-2.2c0.3-0.4,0.4-1,0.8-1.1
					c1.5-0.5,1.9-2.1,3.3-2.8c-0.1,0.3-0.3,0.6-0.5,1.1c1.6-0.8,2.7-2.2,4.7-2.3c-1.3,1.2-2.5,2.2-3.6,3.2c0,0.1,0,0.1,0.1,0.2
					c0.9-0.2,1.9-0.4,2.8-0.7c0,0.1,0.1,0.2,0.1,0.2c-0.8,0.4-1.5,0.9-2.4,1.4c0.4,0,0.7,0.1,1.1,0.1c-1.2,0.6-2.2,1.1-3.3,1.7
					c0,0.1,0.1,0.2,0.1,0.2c0.7-0.1,1.4-0.2,2.1-0.4c0,0.1,0.1,0.1,0.1,0.2c-1.3,0.7-2.7,1.4-4.3,2.2c0.5,0.1,0.7,0.1,0.9,0.1
					c1.4-0.3,2.7-0.5,3.7-1.7c1.5-1.9,3.9-2.4,6.2-2.7c1.8-0.3,3.5-0.7,5.3-1.1c0.2,0,0.4-0.1,0.9-0.1c-1,0.7-1.8,1.3-2.6,1.8
					c0,0.1,0,0.1,0,0.2c0.7-0.1,1.4-0.1,2.1-0.2c0,0.1,0,0.1,0.1,0.2c-0.9,0.3-1.7,0.6-2.8,1.1c0.6,0.2,1.1,0.3,1.6,0.5
					c-0.9,0.9-2.1,0.5-3.3,0.7c0.7,0.3,1.2,0.4,1.7,0.6c0,0.1,0,0.1,0,0.2c-1.2,0-2.4,0-3.6,0c0,0.1,0,0.1,0,0.2
					c0.6,0.2,1.3,0.4,1.9,0.6c0,0.1,0,0.2,0,0.3c-1.8,0-3.7-0.4-5.7,0.3c1.5,0.2,2.7,0.3,3.9,0.5c0,0.1,0,0.2,0,0.3
					c-1.4,0.1-2.9,0.2-4.3,0.3c0,0.1,0,0.3,0,0.4c2,0.2,4,0.3,6,0.5c0,0.1,0,0.2,0,0.2c-0.8,0.2-1.6,0.3-2.4,0.5c0,0,0,0.1,0,0.1
					c0.4,0.1,0.9,0.2,1.3,0.3c0,0.1,0,0.2,0,0.2c-1.4,0-2.7,0-4.3,0c0.4,0.4,0.5,0.6,0.9,1.1c-1.6,0-3.1,0-4.5,0c0,0.1,0,0.3,0,0.4
					c0.8,0,1.5,0.1,2.4,0.1c-0.4,0.4-0.8,0.7-1.1,1c0.1,0.1,0.1,0.2,0.2,0.3c2.4-1.2,4.9-1.7,7.6-1.9c2.6-0.1,5.2-0.5,7.9,0.3
					c-1.2,0.1-2.2,0.3-3.2,0.4c0,0.1,0,0.2,0,0.3c1.8,0.4,3.9-0.7,5.4,1.2c-0.6-0.1-1.1-0.1-1.5-0.1c0,0,0,0.1,0,0.1
					c1.6,0.9,3.2,1.8,4.8,2.7c0,0.1-0.1,0.2-0.1,0.3c-0.4-0.1-0.8-0.2-1.2-0.3c1,1.2,2.6,1.8,3.1,3.6c-0.5-0.2-0.9-0.4-1.3-0.6
					c1.1,2.6,2.3,5.2,3.4,7.8c-0.1,0.1-0.2,0.1-0.4,0.2c-0.5-0.7-1-1.4-1.5-2.1c-0.1,0-0.1,0-0.2,0c0.1,0.6,0.1,1.3,0.2,2.1
					c-0.7-1.4-1.3-2.7-1.9-3.9c-0.1,0-0.2,0.1-0.3,0.1c0.2,0.7,0.3,1.3,0.5,2c-0.1,0-0.2,0.1-0.2,0.1c-0.6-0.8-1.2-1.5-1.8-2.4
					c-0.5-0.8-0.9-1.7-1.5-2.4c0.2,1.1,0.5,2.3,0.7,3.4c-0.1,0-0.2,0.1-0.2,0.1c-0.2-0.7-0.5-1.4-0.7-2c-0.2-0.7-0.3-1.5-0.4-2.2
					c-0.1,0-0.2,0-0.2,0c-0.1,0.8-0.2,1.6-0.2,2.4c-0.1,0-0.2,0.1-0.3,0.1c-0.6-2.1-1.3-4.2-1.9-6.3c-0.1,0-0.1,0-0.2,0
					c0.1,1.1,0.1,2.1,0.2,3.2c0.1,1.1,0.2,2.1,0.3,3.1c1.4,1.2,2.8,2.4,4.4,3.9c-0.5,0.1-0.7,0.2-0.9,0.2c1.5,2.1,3.4,3.9,3.9,6.7
					c-0.1-0.3-0.2-0.5-0.4-0.8c-0.1,0.1-0.2,0.1-0.3,0.2c0.5,1.3,1.1,2.6,1.3,4c0.2,1.4,0.1,2.9-0.2,4.5c-0.6-1.3-1.1-2.5-1.7-3.8
					c0,0-0.1,0-0.1,0c0,1.1,0,2.2,0,3.4c-0.9-0.5-1.1-1-1.2-2.5c-0.1-1-0.1-1.9-0.4-2.9c-0.2,1.4-0.4,2.7-0.5,4.1
					C463.6,214.2,463.9,212.2,463.6,210.3z M396.8,175.6c-0.1,0-0.2,0-0.2,0c-0.4,1.2-0.8,2.3-1.2,3.5c-0.1,0.3-0.2,0.7-0.1,1
					c0.8,3,1.8,6,2.3,9.1c0.7,4,1.2,8.1,1.5,12.2c0.4,4.9,0.7,9.9,0.8,14.8c0.2,6.6,0.1,13.2,0.2,19.9c0,1.1,0.1,2.3,0.1,3.4
					c7.6-15.8,18.1-29.2,30.9-40.6c-0.2-0.6-0.4-1-0.6-1.4c-1.3,0.8-1.9,2.7-4,3.2c0.9-1.3,1.6-2.4,2.3-3.5
					c-0.1-0.1-0.1-0.1-0.2-0.2c-1.1,0.9-2.2,1.7-3.2,2.6c-0.1-0.1-0.1-0.2-0.2-0.2c0.4-0.6,0.8-1.3,1.1-1.9c0,0-0.1-0.1-0.1-0.1
					c-0.9,0.7-1.8,1.4-2.8,2.2c0.1-0.5,0.1-0.9,0.1-1.4c-0.7,0.6-1.3,1.1-1.8,1.7c-0.1-0.1-0.2-0.1-0.2-0.2c0.2-0.6,0.4-1.2,0.7-2
					c-1.4,1.1-2.6,2-3.8,2.9c-0.1-0.1-0.2-0.2-0.3-0.3c0.9-1.2,1.8-2.3,2.7-3.5c-0.1-0.1-0.1-0.1-0.2-0.2c-1.5,1.1-3.1,2.1-4.8,3.3
					c0.5-0.9,0.9-1.6,1.2-2.2c-0.1-0.1-0.1-0.1-0.2-0.2c-0.8,0.6-1.7,1.2-2.5,1.8c-0.1-0.1-0.1-0.1-0.2-0.2c1.6-1.6,3.3-3.3,4.9-4.9
					c-0.1-0.1-0.2-0.2-0.3-0.3c-2.6,2-5.1,4-7.7,6c-0.1-0.1-0.2-0.2-0.3-0.3c1-1.8,3.3-2.6,4.3-4.9c-2.3,1.6-4.4,3-6.6,4.6
					c0.2-0.9,0.3-1.4,0.4-2.2c-1.4,0.8-2.4,1.4-3.5,2c-0.1-0.1-0.1-0.2-0.2-0.3c0.6-0.4,1.2-0.9,1.7-1.3c0.3-0.2,0.4-0.6,0.6-0.9
					c-0.3,0-0.7,0-1,0.1c-1.2,0.4-2.4,0.8-3.6,1.2c0-0.1-0.1-0.2-0.1-0.3c0.8-0.5,1.6-1,2.4-1.6c-1.9,0.3-3.7,1-5.7,0.5
					c1.5-0.7,3.1-1.3,4.7-1.7c1.1-0.3,1.3-0.5,1.1-1.6c0-0.2,0.1-0.3,0.1-0.5c0-0.6,0-1.3,0-1.9c-0.1,0-0.2,0-0.3-0.1
					c-0.2,0.4-0.4,0.7-0.6,1.1c-0.1,0-0.1,0-0.2,0c0.1-0.9,0.1-1.9,0.2-2.8c-0.1,0-0.1,0-0.2,0c-0.4,0.7-0.7,1.4-1.1,2.1
					c0,0-0.1,0-0.1,0c0.2-1.3,0.4-2.6,0.7-4c-0.1,0-0.1-0.1-0.2-0.1c-0.6,1.1-1.2,2.2-1.8,3.3c-0.1,0-0.2-0.1-0.3-0.1
					c0.2-1.3,0.5-2.6,0.7-3.9c-0.1,0-0.2,0-0.3-0.1c-0.2,0.3-0.4,0.6-0.8,1.2c0.1-1.8,0.2-3.3,0.3-4.9c-0.1,0-0.2,0-0.3,0
					c-0.3,1.2-0.7,2.4-1,3.6c-0.1,0-0.2,0-0.4-0.1c0.2-1.5,0.5-3,0.7-4.4c-0.1,0-0.2,0-0.3-0.1c-0.4,1.6-0.9,3.2-1.3,4.8
					c-0.1,0-0.3-0.1-0.4-0.1c0.3-2,0.6-4,0.8-6.1c-0.1,0-0.2-0.1-0.2-0.1c-0.4,0.9-0.7,1.7-1.1,2.6c-0.1,0-0.2,0-0.3,0
					c0.3-1.7,0.6-3.5,1-5.2c-0.1,0-0.2,0-0.3-0.1c-0.5,1.2-1,2.4-1.5,3.7c-0.1,0-0.2,0-0.3-0.1C396.5,179.1,396.7,177.3,396.8,175.6
					z M414.8,182.7c-0.1,0-0.2,0-0.3,0c-0.6-2-1.2-4-1.8-6c-0.1,0-0.3,0.1-0.4,0.1c0.1,1.4,0.1,2.8,0.2,4.4
					c-0.3-0.4-0.4-0.6-0.5-0.8c-0.1,0.2-0.2,0.3-0.4,0.6c-0.3-1.1-0.6-2-0.9-3.2c-0.2,0.5-0.2,0.7-0.4,1.1c-0.2-0.7-0.4-1.2-0.5-1.7
					c-0.1,0-0.1,0-0.2,0.1c-0.1,0.4-0.1,0.9-0.2,1.3c-0.1,0-0.2,0-0.3,0c-0.2-1.1-0.4-2.3-0.5-3.4c-0.1,0-0.1,0-0.2,0
					c0,0.6-0.1,1.1-0.1,1.7c-0.1,0-0.2,0-0.3,0c-0.9-2.4,0-5.1-1.1-7.5c0,2.4,0,4.8,0,7.2c-0.1,0-0.2,0-0.3,0
					c-0.3-1.4-0.6-2.7-0.9-4.1c-0.1,0-0.1,0-0.2,0c0,0.6-0.1,1.2-0.1,1.8c-0.1,0-0.1,0-0.2,0c-0.2-0.5-0.4-0.9-0.5-1.5
					c-0.1,0.1-0.2,0.2-0.3,0.4c-0.4-1.4-0.7-2.8-1.1-4.2c0,0-0.1,0-0.1,0c-0.1,1.2-0.2,2.4-0.3,3.7c-0.3-0.4-0.4-0.6-0.6-0.8
					c-0.2,0.3-0.3,0.5-0.4,0.6c1.2,1.6,2.3,3.2,3.4,4.7c0.3,0.4,0.7,1.2,0.5,1.5c-0.4,0.9,0.1,1.3,0.5,1.9c0.3,0.3,0.5,0.7,0.8,1.1
					c0.5,0.6,0.1,1.3,0.3,1.8c0.5,1.6,1.3,3.2,1.9,4.6c2.2-1.7,4.5-3.4,6.8-5.1c-0.4-1-0.9-2.1-1.4-3.2c-0.1,0-0.1,0-0.2,0
					C414.6,180.8,414.7,181.7,414.8,182.7z"/>
			</g>
		</g>
	</g>
</g>
<g>
	<g>
		<g>
			<g>
				<linearGradient id="SVGID_19_" gradientUnits="userSpaceOnUse" x1="684.6" y1="244.75" x2="735.2" y2="244.75">
					<stop  offset="0" style="stop-color:#462523"/>
					<stop  offset="0.25" style="stop-color:#CB9B51"/>
					<stop  offset="0.4" style="stop-color:#F6E27A"/>
					<stop  offset="0.4" style="stop-color:#F6E27A"/>
					<stop  offset="0.5" style="stop-color:#F6F2C0"/>
					<stop  offset="0.6" style="stop-color:#F6E27A"/>
					<stop  offset="0.75" style="stop-color:#CB9B51"/>
					<stop  offset="1" style="stop-color:#462523"/>
				</linearGradient>
				<path class="st26" d="M709.9,270c-13.9,0-25.3-11.3-25.3-25.3c0-13.9,11.4-25.3,25.3-25.3s25.3,11.3,25.3,25.3
					C735.2,258.7,723.8,270,709.9,270z"/>
				<linearGradient id="SVGID_20_" gradientUnits="userSpaceOnUse" x1="709.9" y1="272.1" x2="709.9" y2="217.5">
					<stop  offset="0" style="stop-color:#000000"/>
					<stop  offset="3.781212e-03" style="stop-color:#010101;stop-opacity:0.9962"/>
					<stop  offset="0.2044" style="stop-color:#3D3D3D;stop-opacity:0.7945"/>
					<stop  offset="0.3974" style="stop-color:#6F6F6F;stop-opacity:0.6006"/>
					<stop  offset="0.5779" style="stop-color:#969696;stop-opacity:0.4192"/>
					<stop  offset="0.7429" style="stop-color:#B2B2B2;stop-opacity:0.2533"/>
					<stop  offset="0.8872" style="stop-color:#C3C3C3;stop-opacity:0.1083"/>
					<stop  offset="0.995" style="stop-color:#C9C9C9;stop-opacity:0"/>
				</linearGradient>
				<path class="st27" d="M709.9,219.5c13.9,0,25.3,11.3,25.3,25.3c0,14-11.3,25.2-25.3,25.2s-25.3-11.3-25.3-25.3
					C684.6,230.7,696,219.5,709.9,219.5 M709.9,217.5c-15,0-27.3,12.2-27.3,27.3c0,15.1,12.2,27.3,27.3,27.3s27.3-12.2,27.3-27.3
					C737.2,229.7,724.9,217.5,709.9,217.5L709.9,217.5z"/>
			</g>
			<path d="M709.9,225.9c-10.4,0-18.9,8.5-18.9,18.9s8.5,18.9,18.9,18.9s18.9-8.5,18.9-18.9C728.8,234.4,720.4,225.9,709.9,225.9z
				 M709.9,260.8c-8.9,0-16-7.2-16-16c0-8.9,7.2-16,16-16s16,7.2,16,16C726,253.7,718.8,260.8,709.9,260.8z"/>
		</g>
		<g>
			<g>
				<linearGradient id="SVGID_21_" gradientUnits="userSpaceOnUse" x1="627" y1="302.4" x2="677.6" y2="302.4">
					<stop  offset="0" style="stop-color:#462523"/>
					<stop  offset="0.25" style="stop-color:#CB9B51"/>
					<stop  offset="0.4" style="stop-color:#F6E27A"/>
					<stop  offset="0.4" style="stop-color:#F6E27A"/>
					<stop  offset="0.5" style="stop-color:#F6F2C0"/>
					<stop  offset="0.6" style="stop-color:#F6E27A"/>
					<stop  offset="0.75" style="stop-color:#CB9B51"/>
					<stop  offset="1" style="stop-color:#462523"/>
				</linearGradient>
				<path class="st28" d="M652.3,327.7c-13.9,0-25.3-11.4-25.3-25.3c0-13.9,11.4-25.3,25.3-25.3s25.3,11.4,25.3,25.3
					C677.6,316.3,666.2,327.7,652.3,327.7z"/>
				<linearGradient id="SVGID_22_" gradientUnits="userSpaceOnUse" x1="652.3" y1="329.7" x2="652.3" y2="275.1">
					<stop  offset="0" style="stop-color:#000000"/>
					<stop  offset="3.781212e-03" style="stop-color:#010101;stop-opacity:0.9962"/>
					<stop  offset="0.2044" style="stop-color:#3D3D3D;stop-opacity:0.7945"/>
					<stop  offset="0.3974" style="stop-color:#6F6F6F;stop-opacity:0.6006"/>
					<stop  offset="0.5779" style="stop-color:#969696;stop-opacity:0.4192"/>
					<stop  offset="0.7429" style="stop-color:#B2B2B2;stop-opacity:0.2533"/>
					<stop  offset="0.8872" style="stop-color:#C3C3C3;stop-opacity:0.1083"/>
					<stop  offset="0.995" style="stop-color:#C9C9C9;stop-opacity:0"/>
				</linearGradient>
				<path class="st29" d="M652.3,277.1c13.9,0,25.3,11.3,25.3,25.3s-11.3,25.3-25.3,25.3S627,316.4,627,302.4
					S638.4,277.1,652.3,277.1 M652.3,275.1c-15,0-27.3,12.2-27.3,27.3c0,15,12.2,27.3,27.3,27.3s27.3-12.2,27.3-27.3
					C679.6,287.4,667.4,275.1,652.3,275.1L652.3,275.1z"/>
			</g>
			<polygon points="666.7,290 664.7,288 652.3,300.4 640,288 638,290 650.3,302.4 638,314.7 640,316.7 652.3,304.4 664.7,316.7 
				666.7,314.7 654.3,302.4 			"/>
		</g>
		<g>
			<g>
				<linearGradient id="SVGID_23_" gradientUnits="userSpaceOnUse" x1="569.4" y1="244.75" x2="620" y2="244.75">
					<stop  offset="0" style="stop-color:#462523"/>
					<stop  offset="0.25" style="stop-color:#CB9B51"/>
					<stop  offset="0.4" style="stop-color:#F6E27A"/>
					<stop  offset="0.4" style="stop-color:#F6E27A"/>
					<stop  offset="0.5" style="stop-color:#F6F2C0"/>
					<stop  offset="0.6" style="stop-color:#F6E27A"/>
					<stop  offset="0.75" style="stop-color:#CB9B51"/>
					<stop  offset="1" style="stop-color:#462523"/>
				</linearGradient>
				<path class="st30" d="M594.7,270c-13.9,0-25.3-11.3-25.3-25.3c0-13.9,11.4-25.3,25.3-25.3s25.3,11.3,25.3,25.3
					C620,258.7,608.6,270,594.7,270z"/>
				<linearGradient id="SVGID_24_" gradientUnits="userSpaceOnUse" x1="594.7" y1="272.1" x2="594.7" y2="217.5">
					<stop  offset="0" style="stop-color:#000000"/>
					<stop  offset="3.781212e-03" style="stop-color:#010101;stop-opacity:0.9962"/>
					<stop  offset="0.2044" style="stop-color:#3D3D3D;stop-opacity:0.7945"/>
					<stop  offset="0.3974" style="stop-color:#6F6F6F;stop-opacity:0.6006"/>
					<stop  offset="0.5779" style="stop-color:#969696;stop-opacity:0.4192"/>
					<stop  offset="0.7429" style="stop-color:#B2B2B2;stop-opacity:0.2533"/>
					<stop  offset="0.8872" style="stop-color:#C3C3C3;stop-opacity:0.1083"/>
					<stop  offset="0.995" style="stop-color:#C9C9C9;stop-opacity:0"/>
				</linearGradient>
				<path class="st31" d="M594.7,219.5c13.9,0,25.3,11.3,25.3,25.3c0,14-11.3,25.2-25.3,25.2s-25.3-11.3-25.3-25.3
					C569.4,230.7,580.8,219.5,594.7,219.5 M594.7,217.5c-15,0-27.3,12.2-27.3,27.3c0,15.1,12.2,27.3,27.3,27.3s27.3-12.2,27.3-27.3
					C622,229.7,609.8,217.5,594.7,217.5L594.7,217.5z"/>
			</g>
			<path d="M606.3,230.4h-23h-2.8v2.8v23v2.8h2.8h23h2.8v-2.8v-23v-2.8H606.3L606.3,230.4z M606.3,256.3h-23v-23h23V256.3z"/>
		</g>
		<g>
			<g>
				<linearGradient id="SVGID_25_" gradientUnits="userSpaceOnUse" x1="627" y1="187.3" x2="677.6" y2="187.3">
					<stop  offset="0" style="stop-color:#462523"/>
					<stop  offset="0.25" style="stop-color:#CB9B51"/>
					<stop  offset="0.4" style="stop-color:#F6E27A"/>
					<stop  offset="0.4" style="stop-color:#F6E27A"/>
					<stop  offset="0.5" style="stop-color:#F6F2C0"/>
					<stop  offset="0.6" style="stop-color:#F6E27A"/>
					<stop  offset="0.75" style="stop-color:#CB9B51"/>
					<stop  offset="1" style="stop-color:#462523"/>
				</linearGradient>
				<path class="st32" d="M652.3,212.6c-13.9,0-25.3-11.4-25.3-25.3s11.4-25.3,25.3-25.3s25.3,11.4,25.3,25.3
					S666.2,212.6,652.3,212.6z"/>
				<linearGradient id="SVGID_26_" gradientUnits="userSpaceOnUse" x1="652.3" y1="214.6" x2="652.3" y2="160">
					<stop  offset="0" style="stop-color:#000000"/>
					<stop  offset="3.781212e-03" style="stop-color:#010101;stop-opacity:0.9962"/>
					<stop  offset="0.2044" style="stop-color:#3D3D3D;stop-opacity:0.7945"/>
					<stop  offset="0.3974" style="stop-color:#6F6F6F;stop-opacity:0.6006"/>
					<stop  offset="0.5779" style="stop-color:#969696;stop-opacity:0.4192"/>
					<stop  offset="0.7429" style="stop-color:#B2B2B2;stop-opacity:0.2533"/>
					<stop  offset="0.8872" style="stop-color:#C3C3C3;stop-opacity:0.1083"/>
					<stop  offset="0.995" style="stop-color:#C9C9C9;stop-opacity:0"/>
				</linearGradient>
				<path class="st33" d="M652.3,162c13.9,0,25.3,11.3,25.3,25.3s-11.3,25.3-25.3,25.3S627,201.3,627,187.3S638.4,162,652.3,162
					 M652.3,160c-15,0-27.3,12.2-27.3,27.3c0,15.1,12.2,27.3,27.3,27.3s27.3-12.2,27.3-27.3C679.6,172.2,667.4,160,652.3,160
					L652.3,160z"/>
			</g>
			<path d="M668.3,195.2l-16-27.6l-16,27.6l-1.6,2.8h3.3h14.3h14.3h3.3L668.3,195.2z M652.3,195.2h-12.7l12.7-21.9l12.7,21.9H652.3z
				"/>
		</g>
	</g>
</g>
<g>
	<linearGradient id="SVGID_27_" gradientUnits="userSpaceOnUse" x1="403" y1="383.2" x2="403" y2="340.8">
		<stop  offset="0" style="stop-color:#000000"/>
		<stop  offset="0.1371" style="stop-color:#252525;stop-opacity:0.8629"/>
		<stop  offset="0.3459" style="stop-color:#565656;stop-opacity:0.6541"/>
		<stop  offset="0.5434" style="stop-color:#7D7D7D;stop-opacity:0.4566"/>
		<stop  offset="0.7241" style="stop-color:#999999;stop-opacity:0.2759"/>
		<stop  offset="0.882" style="stop-color:#AAAAAA;stop-opacity:0.118"/>
		<stop  offset="1" style="stop-color:#B0B0B0;stop-opacity:0"/>
	</linearGradient>
	<circle class="st34" cx="403" cy="362" r="20.2"/>
	<g>
		<linearGradient id="SVGID_28_" gradientUnits="userSpaceOnUse" x1="399.4" y1="361.85" x2="411.2" y2="361.85">
			<stop  offset="0" style="stop-color:#462523"/>
			<stop  offset="0.25" style="stop-color:#CB9B51"/>
			<stop  offset="0.4" style="stop-color:#F6E27A"/>
			<stop  offset="0.4" style="stop-color:#F6E27A"/>
			<stop  offset="0.5" style="stop-color:#F6F2C0"/>
			<stop  offset="0.6" style="stop-color:#F6E27A"/>
			<stop  offset="0.75" style="stop-color:#CB9B51"/>
			<stop  offset="1" style="stop-color:#462523"/>
		</linearGradient>
		<path class="st35" d="M404.1,368.6v-2.8v-3.5v-6.5c0-0.5,0.1-0.8,0.3-1c0.1-0.2,0.4-0.3,0.7-0.2c0.6,0.2,0.9,0.7,0.9,1.7v6.9
			c0.8,0.4,1.5,0.5,2.1,0.5s1.2-0.2,1.6-0.5c1-0.7,1.5-1.9,1.5-3.7c0-1.9-0.4-3.4-1.2-4.3c-0.8-1-2.1-1.9-4.1-2.6
			c-1.3-0.4-2.5-0.8-3.6-1.1s-2-0.5-2.9-0.7V363l0,0v2.7l0,0v1.7l0,0v2.5l0,0v1.5l4.7,1.5v-3.6l0,0V368.6z"/>
		<linearGradient id="SVGID_29_" gradientUnits="userSpaceOnUse" x1="388.5999" y1="366.6499" x2="399" y2="366.6499">
			<stop  offset="0" style="stop-color:#462523"/>
			<stop  offset="0.25" style="stop-color:#CB9B51"/>
			<stop  offset="0.4" style="stop-color:#F6E27A"/>
			<stop  offset="0.4" style="stop-color:#F6E27A"/>
			<stop  offset="0.5" style="stop-color:#F6F2C0"/>
			<stop  offset="0.6" style="stop-color:#F6E27A"/>
			<stop  offset="0.75" style="stop-color:#CB9B51"/>
			<stop  offset="1" style="stop-color:#462523"/>
		</linearGradient>
		<path class="st36" d="M399,367.6l-1.7,0.6l-0.9,0.4l-1.6,0.3l-1.5-0.2c-0.3-0.2-0.4-0.4-0.2-0.6c0.1-0.1,0.2-0.1,0.3-0.2
			c0.1-0.1,0.3-0.1,0.4-0.2l1.1-0.4l4.1-1.5v-2.7l-1.7,0.5l-5.5,2l-1,0.4c-1.5,0.6-2.2,1.2-2.2,1.8c0.1,0.8,1,1.5,2.7,1.9
			c0.7,0.2,1.4,0.3,2.1,0.4c0.7,0.1,1.4,0.1,2.2,0.1c1,0,2.1-0.1,3.3-0.3v-2.3L399,367.6L399,367.6z"/>
		<linearGradient id="SVGID_30_" gradientUnits="userSpaceOnUse" x1="404.4" y1="368.7292" x2="417.2" y2="368.7292">
			<stop  offset="0" style="stop-color:#462523"/>
			<stop  offset="0.25" style="stop-color:#CB9B51"/>
			<stop  offset="0.4" style="stop-color:#F6E27A"/>
			<stop  offset="0.4" style="stop-color:#F6E27A"/>
			<stop  offset="0.5" style="stop-color:#F6F2C0"/>
			<stop  offset="0.6" style="stop-color:#F6E27A"/>
			<stop  offset="0.75" style="stop-color:#CB9B51"/>
			<stop  offset="1" style="stop-color:#462523"/>
		</linearGradient>
		<path class="st37" d="M414.8,365.3c-0.9-0.3-1.7-0.5-2.5-0.6c-0.8-0.1-1.7-0.2-2.5-0.1c-0.9,0-1.9,0.2-2.8,0.3
			c-0.8,0.2-1.7,0.4-2.6,0.8v2.8l3.9-1.4l1.6-0.5l1.1-0.3h1.4c0.3,0.1,0.6,0.2,0.7,0.4c0,0.2-0.2,0.4-0.8,0.6l-1.4,0.5l-6.5,2.4v2.7
			l3.5-1.3l6.4-2.3l0.7-0.4c1.5-0.5,2.2-1.2,2.2-1.9C417.2,366.4,416.4,365.8,414.8,365.3z"/>
	</g>
</g>
<g>
	<g>
		<g>
			<path class="st2" d="M697.2,109.9c0-0.8-0.4-1.5-1.1-1.9c-4.5-2.9-23.4-13.6-51.5-13.6c-26.9,0-41.1,5.9-45.1,8
				c-0.8,0.4-1.2,1.2-1.2,2c0,0,9.8-2.9,47.5-2.9C683.5,101.5,697.2,109.9,697.2,109.9z"/>
			<path class="st22" d="M697.1,116.8L697.1,116.8v-6.9c0,0-13.7-8.4-51.4-8.4c-37.8,0-47.5,2.9-47.5,2.9v11l0,0
				c7.7-1.3,21.2-2.6,44.1-2.6C670.8,112.9,688.2,115.2,697.1,116.8z"/>
		</g>
	</g>
	<g>
		<g>
			<path class="st2" d="M108.8,109.9c0-0.8,0.4-1.5,1.1-1.9c4.5-2.9,23.4-13.6,51.5-13.6c26.9,0,41.1,5.9,45.1,8
				c0.8,0.4,1.2,1.2,1.2,2c0,0-9.8-2.9-47.5-2.9S108.8,109.9,108.8,109.9z"/>
			<path class="st22" d="M108.9,116.8L108.9,116.8v-6.9c0,0,13.7-8.4,51.4-8.4c37.8,0,47.5,2.9,47.5,2.9v11l0,0
				c-7.7-1.3-21.2-2.6-44.1-2.6C135.2,112.9,117.8,115.2,108.9,116.8z"/>
		</g>
	</g>
</g>
<g>
	<g>
		<g>
			<g>
				<path class="st2" d="M697.2,90.8c0,0-32.7-3.2-50.6-3.2S598.2,90,598.2,90s3.1-44.7,4.8-52c1.6-7.3,7.7-21.3,16.9-27.9
					S631.8,0,642.6,0s25.4,6.4,34.6,21.4C686.5,36.4,697.2,90.8,697.2,90.8z"/>
				<path class="st22" d="M598.7,83.2c0,0,26.1-4.4,49-4.4c22.8,0,47.9,4.4,47.9,4.4c1,4.7,1.6,7.6,1.6,7.6s-32.7-3.2-50.6-3.2
					S598.2,90,598.2,90S598.4,87.3,598.7,83.2z"/>
			</g>
			<g class="st38">
				<g>
					<path class="st39" d="M648.7,65.7c-2.1,1.7-3.2,2.6-3.2,2.6c-1.2,1.2-1.9,2.7-2,4.5h9.8v-2.6H647c0.3-0.5,1-1.2,2.1-1.9
						c1.4-0.9,2.3-1.6,2.7-2.1c0.9-1,1.3-2.1,1.3-3.3c0-1.4-0.5-2.5-1.4-3.3s-2.1-1.2-3.5-1.2c-3.1,0-4.7,1.7-4.7,5h2.7
						c0-1.8,0.7-2.7,2.1-2.7c1.3,0,2,0.7,2,2.1C650.5,63.9,649.9,64.8,648.7,65.7z"/>
				</g>
				<path class="st39" d="M631.1,67.2h3c1.5,0,2.3,0.6,2.4,1.9c0.1,1.2,0.2,2.5,0.3,3.8h3.3v-0.4c-0.5-0.2-0.7-0.7-0.7-1.5
					c0-0.2,0-0.4,0.1-0.8v-0.7c0-1.7-0.6-2.9-1.8-3.5c1.4-0.5,2.2-1.6,2.2-3.4c0-1.3-0.4-2.3-1.3-3c-0.8-0.7-1.9-1-3.2-1h-7.3v14.3
					h3V67.2z M631.1,61h3.7c1.4,0,2.1,0.6,2.1,1.9c0,1.3-0.8,1.9-2.3,1.9h-3.5V61z"/>
			</g>
		</g>
	</g>
	<g>
		<g>
			<g>
				<path class="st2" d="M108.8,90.8c0,0,32.7-3.2,50.6-3.2s48.3,2.4,48.3,2.4s-3.1-44.7-4.8-52c-1.6-7.3-7.7-21.3-16.9-27.9
					C176.9,3.4,174.2,0,163.4,0c-10.8,0-25.4,6.4-34.6,21.4S108.8,90.8,108.8,90.8z"/>
				<path class="st22" d="M207.3,83.2c0,0-26.1-4.4-49-4.4c-22.8,0-47.9,4.4-47.9,4.4c-1,4.7-1.6,7.6-1.6,7.6s32.7-3.2,50.6-3.2
					s48.3,2.4,48.3,2.4S207.6,87.3,207.3,83.2z"/>
			</g>
			<g class="st40">
				<g>
					<path class="st39" d="M173.3,65.7c-2.1,1.7-3.2,2.6-3.2,2.6c-1.2,1.2-1.9,2.7-2,4.5h9.8v-2.6h-6.2c0.3-0.5,1-1.2,2.1-1.9
						c1.4-0.9,2.3-1.6,2.7-2.1c0.9-1,1.3-2.1,1.3-3.3c0-1.4-0.5-2.5-1.4-3.3s-2.1-1.2-3.5-1.2c-3.1,0-4.7,1.7-4.7,5h2.7
						c0-1.8,0.7-2.7,2.1-2.7c1.3,0,2,0.7,2,2.1C175.1,63.9,174.5,64.8,173.3,65.7z"/>
				</g>
				<polygon class="st39" points="164.8,70.2 157.8,70.2 157.8,58.5 154.7,58.5 154.7,72.8 164.8,72.8 				"/>
			</g>
		</g>
	</g>
</g>
<g>
	<g>
		<path class="st22" d="M547.6,134.6c0,2.1-1.5,3.8-4.1,3.8s-4.1-1.7-4.1-3.8c0-2,1.5-3.8,4.1-3.8S547.6,132.5,547.6,134.6z
			 M540.9,134.6c0,1.4,0.8,2.7,2.6,2.7s2.6-1.4,2.6-2.7c0-1.4-0.8-2.7-2.6-2.7S540.9,133.2,540.9,134.6z"/>
		<path class="st22" d="M548.9,131h3.8c2.4,0,2.9,1.3,2.9,2.2s-0.5,2.2-2.9,2.2h-2.3v2.8h-1.5V131z M550.4,134.4h2.2
			c0.7,0,1.5-0.3,1.5-1.2s-0.7-1.2-1.5-1.2h-2.2V134.4z"/>
		<path class="st22" d="M556.1,131h6.9v1.1h-2.7v6.1h-1.5V132h-2.7V131z"/>
		<path class="st22" d="M564.1,131h1.5v7.2h-1.5V131z"/>
		<path class="st22" d="M575.1,134.6c0,2.1-1.5,3.8-4.1,3.8s-4.1-1.7-4.1-3.8c0-2,1.5-3.8,4.1-3.8S575.1,132.5,575.1,134.6z
			 M568.4,134.6c0,1.4,0.8,2.7,2.6,2.7s2.6-1.4,2.6-2.7c0-1.4-0.8-2.7-2.6-2.7S568.4,133.2,568.4,134.6z"/>
		<path class="st22" d="M576.5,131h1.6l3.9,5.3l0,0V131h1.4v7.2h-1.6l-3.9-5.3l0,0v5.3h-1.4V131z"/>
		<path class="st22" d="M586.2,135.8c0,1.1,1,1.5,2.2,1.5c1.3,0,1.8-0.6,1.8-1.1c0-0.6-0.4-0.8-0.7-0.9c-0.6-0.2-1.4-0.3-2.6-0.6
			c-1.5-0.3-1.9-1.1-1.9-1.8c0-1.5,1.6-2.1,3.1-2.1c1.8,0,3.3,0.8,3.3,2.3h-1.5c-0.1-0.9-0.8-1.3-1.8-1.3c-0.7,0-1.6,0.2-1.6,0.9
			c0,0.5,0.4,0.8,1,0.9c0.1,0,2,0.4,2.5,0.6c1.1,0.3,1.7,1.1,1.7,1.8c0,1.6-1.7,2.3-3.4,2.3c-2,0-3.5-0.8-3.6-2.6h1.5V135.8z"/>
	</g>
	<g>
		<path class="st22" d="M222.2,135.8c0,1.1,1,1.5,2.2,1.5c1.3,0,1.8-0.6,1.8-1.1c0-0.6-0.4-0.8-0.7-0.9c-0.6-0.2-1.4-0.3-2.6-0.6
			c-1.5-0.3-1.9-1.1-1.9-1.8c0-1.5,1.6-2.1,3.1-2.1c1.8,0,3.3,0.8,3.3,2.3h-1.5c-0.1-0.9-0.8-1.3-1.8-1.3c-0.7,0-1.6,0.2-1.6,0.9
			c0,0.5,0.4,0.8,1,0.9c0.1,0,2,0.4,2.5,0.6c1.1,0.3,1.7,1.1,1.7,1.8c0,1.6-1.7,2.3-3.4,2.3c-2,0-3.5-0.8-3.6-2.6h1.5V135.8z"/>
		<path class="st22" d="M228.9,131h1.5v2.9h3.9V131h1.5v7.2h-1.5V135h-3.9v3.2h-1.5V131z"/>
		<path class="st22" d="M239.9,131h1.6l3.3,7.2h-1.6l-0.8-1.9H239l-0.8,1.9h-1.5L239.9,131z M239.4,135.3h2.6l-1.3-3.1l0,0
			L239.4,135.3z"/>
		<path class="st22" d="M245.6,131h4.1c1.9,0,2.8,0.7,2.8,1.9c0,1.4-1.1,1.7-1.4,1.8l0,0c0.5,0.1,1.3,0.4,1.3,1.5
			c0,0.8,0.1,1.6,0.5,1.9h-1.6c-0.2-0.3-0.2-0.7-0.2-1.1c0-1.3-0.3-1.9-1.7-1.9h-2.2v3h-1.5L245.6,131L245.6,131L245.6,131z
			 M247.1,134.2h2.5c1,0,1.5-0.4,1.5-1.1c0-0.9-0.7-1.1-1.5-1.1h-2.4v2.2L247.1,134.2L247.1,134.2z"/>
		<path class="st22" d="M254.1,131h6.2v1.1h-4.7v1.9h4.3v1h-4.3v2.1h4.7v1.1h-6.2V131L254.1,131z"/>
	</g>
</g>
</svg>
