<?xml version="1.0" encoding="utf-8"?>
<!-- Generator: Adobe Illustrator 22.0.1, SVG Export Plug-In . SVG Version: 6.00 Build 0)  -->
<svg version="1.1" id="Layer_1" xmlns="http://www.w3.org/2000/svg" xmlns:xlink="http://www.w3.org/1999/xlink" x="0px" y="0px"
	 width="806px" height="598.9px" viewBox="0 0 806 598.9" style="enable-background:new 0 0 806 598.9;" xml:space="preserve">
<style type="text/css">
	.st0{fill:#8C8C8C;}
	.st1{fill:url(#SVGID_1_);}
</style>
<g>
	<path class="st0" d="M806,508.6L806,508.6L806,508.6v-0.2c0-0.1,0-0.2,0-0.4c0-0.1,0-0.2,0-0.3c0-0.4,0-0.9,0-1.4c0,0,0,0,0-0.1
		c-0.1-12.4-0.8-67.1-4.6-87.6c-2.9-15.5-17.7-102.5-32-144.6c-9.4-27.7-13.1-53-17-64.9c-12-35.7-33-65.7-33-65.7
		s-9.5-13.1-10.1-16.3c-0.6-3.3-4.7-8.6-4.7-8.6s-2.3-0.8-7.4-1.7l0,0l0,0v-6.9c0-0.8-0.4-1.5-1.1-1.9c-4.5-2.9-23.4-13.6-51.5-13.6
		c-26.9,0-41.1,5.9-45.1,8c-0.8,0.4-1.2,1.2-1.2,2v11l0,0c-7.4,1.2-9.6,2.4-9.6,2.4s-2.4,2.9-5.9,4.8c-3.5,1.8-11.7,1.7-11.7,1.7
		h-33.4c0,0-0.6-0.1-0.9,0.3c-0.4,0.4-0.6,2-0.6,2h-1.6c-0.9-2.3-3.1-3.9-5.7-4.1c-0.1,0-0.1,0-0.2,0h-0.3H403l0,0H277.7h-0.3
		c-0.1,0-0.1,0-0.2,0c-2.5,0.2-4.8,1.8-5.7,4.1h-1.6c0,0-0.3-1.7-0.6-2c-0.4-0.4-0.9-0.3-0.9-0.3H235c0,0-8.2,0.2-11.7-1.7
		c-3.5-1.8-5.9-4.8-5.9-4.8s-2.1-1.2-9.6-2.4l0,0v-11c0-0.9-0.5-1.6-1.2-2c-4-2-18.2-8-45.1-8c-28.2,0-47,10.7-51.5,13.6
		c-0.7,0.4-1.1,1.1-1.1,1.9v6.9l0,0l0,0c-5.1,1-7.4,1.7-7.4,1.7s-4.1,5.3-4.7,8.6c-0.6,3.3-10.1,16.3-10.1,16.3s-21,30-33,65.7
		c-4,11.9-7.7,37.2-17,64.9c-14.3,42.1-29.1,129.1-32,144.6c-3.8,20.5-4.5,75.2-4.6,87.6c0,0,0,0,0,0.1c0,0.6,0,1.1,0,1.4
		c0,0.1,0,0.2,0,0.3c0,0.2,0,0.3,0,0.4v0.1v0.1l0,0c0,0.1,0,0.1,0,0.1s0,0,0,0.1l0,0c0.2,2.5,3.6,35.7,20.8,59.5l0,0l0,0
		c0.5,0.7,1.1,1.4,1.6,2.1c0,0,0,0.1,0.1,0.1c0.5,0.7,1.1,1.4,1.6,2l0,0c0.6,0.7,1.1,1.3,1.7,1.9c0.1,0.1,0.1,0.1,0.2,0.2
		c0.6,0.6,1.1,1.2,1.7,1.8c0,0,0,0,0.1,0.1c0.6,0.6,1.2,1.2,1.8,1.7c0.1,0.1,0.2,0.2,0.3,0.3c0.6,0.5,1.2,1,1.8,1.6l0.1,0.1
		c0.6,0.5,1.3,1,1.9,1.5c0.2,0.1,0.3,0.2,0.5,0.3c0.7,0.5,1.3,1,2,1.4c31.7,21.5,56.7,14,56.7,14s0,0,0.1,0l0,0c0.1,0,0.1,0,0.2-0.1
		c0,0,0,0,0.1,0s0.3-0.1,0.4-0.1l0,0c0.2,0,0.3-0.1,0.5-0.2h0.1c0.2-0.1,0.4-0.1,0.7-0.2c0.1,0,0.1,0,0.2-0.1
		c0.3-0.1,0.5-0.2,0.8-0.3h0.1c0.3-0.1,0.6-0.2,0.9-0.3c0.1,0,0.1,0,0.2-0.1c0.3-0.1,0.7-0.2,1.1-0.4c0.1,0,0.2-0.1,0.3-0.1
		c0.4-0.1,0.8-0.3,1.2-0.5c0.1,0,0.1-0.1,0.2-0.1c0.4-0.2,0.8-0.3,1.2-0.5c0.1,0,0.2-0.1,0.2-0.1c0.4-0.2,0.9-0.4,1.4-0.6
		c0.1,0,0.2-0.1,0.3-0.1c0.5-0.2,1-0.4,1.5-0.7c0.1,0,0.2-0.1,0.3-0.1c0.5-0.2,1-0.4,1.5-0.7c0.1,0,0.2-0.1,0.2-0.1
		c0.5-0.3,1.1-0.5,1.7-0.8c0.1-0.1,0.3-0.1,0.4-0.2c0.6-0.3,1.1-0.6,1.7-0.9c0.1-0.1,0.2-0.1,0.3-0.2c0.6-0.3,1.1-0.6,1.7-0.9
		c0.1,0,0.1-0.1,0.2-0.1c0.6-0.3,1.2-0.7,1.9-1.1c0.1-0.1,0.3-0.2,0.4-0.2c0.6-0.4,1.3-0.7,1.9-1.1c0.1-0.1,0.3-0.2,0.4-0.2
		c0.7-0.4,1.3-0.8,2-1.2c0,0,0.1,0,0.1-0.1l0,0l0,0c10-6.4,21.4-15.9,31.5-29.6c0.5-0.7,1-1.4,1.5-2.2c0.1-0.2,0.3-0.4,0.4-0.6
		c0.5-0.7,1-1.4,1.4-2.2c0-0.1,0.1-0.1,0.1-0.2c0.5-0.8,1.1-1.7,1.6-2.5c0.1-0.2,0.2-0.3,0.3-0.5c0.5-0.8,1-1.7,1.5-2.5l0.1-0.1
		c0.6-1,1.1-1.9,1.7-2.9c0.1-0.1,0.1-0.2,0.2-0.3c0.5-1,1.1-2,1.7-3l0,0c0.6-1.1,1.2-2.2,1.8-3.3c0,0,0,0,0-0.1
		c21.9-41.6,44.3-108.8,44.3-108.8s2.2-3,5.7-5.3s6.3-2.6,6.3-2.6h1.9c13.8,13.5,32.7,21.8,53.5,21.8s39.6-8.3,53.4-21.7h36
		c0,2.8,1.8,2.2,4.6,2.2h67.9c2.8,0,5.5,0.6,5.5-2.2h35.9c13.8,13.4,32.6,21.7,53.4,21.7s39.7-8.3,53.5-21.8h1.9
		c0,0,2.8,0.3,6.3,2.6s5.7,5.3,5.7,5.3s22.5,67.2,44.3,108.8c0,0,0,0,0,0.1c0.6,1.1,1.2,2.2,1.8,3.3l0,0c0.6,1,1.1,2,1.7,3
		c0.1,0.1,0.1,0.2,0.2,0.3c0.6,1,1.1,2,1.7,2.9l0.1,0.1c0.5,0.9,1,1.7,1.5,2.5c0.1,0.2,0.2,0.3,0.3,0.5c0.5,0.9,1.1,1.7,1.6,2.5
		c0,0.1,0.1,0.1,0.1,0.2c0.5,0.7,1,1.5,1.4,2.2c0.1,0.2,0.3,0.4,0.4,0.6c0.5,0.7,1,1.5,1.5,2.2c10,13.7,21.5,23.2,31.5,29.6l0,0l0,0
		c0,0,0.1,0,0.1,0.1c0.7,0.4,1.3,0.8,2,1.2c0.1,0.1,0.3,0.2,0.4,0.2c0.6,0.4,1.3,0.8,1.9,1.1c0.1,0.1,0.3,0.2,0.4,0.2
		c0.6,0.4,1.3,0.7,1.9,1.1c0.1,0,0.1,0.1,0.2,0.1c0.6,0.3,1.2,0.6,1.7,0.9c0.1,0.1,0.2,0.1,0.3,0.2c0.6,0.3,1.2,0.6,1.7,0.9
		c0.1,0.1,0.3,0.1,0.4,0.2c0.6,0.3,1.1,0.5,1.7,0.8c0.1,0,0.2,0.1,0.2,0.1c0.5,0.2,1,0.5,1.5,0.7c0.1,0,0.2,0.1,0.3,0.1
		c0.5,0.2,1,0.4,1.5,0.7c0.1,0,0.2,0.1,0.3,0.1c0.5,0.2,0.9,0.4,1.4,0.6c0.1,0,0.2,0.1,0.2,0.1c0.4,0.2,0.8,0.3,1.2,0.5
		c0.1,0,0.1,0.1,0.2,0.1c0.4,0.2,0.8,0.3,1.2,0.5c0.1,0,0.2,0.1,0.3,0.1c0.4,0.1,0.7,0.3,1.1,0.4c0.1,0,0.1,0,0.2,0.1
		c0.3,0.1,0.6,0.2,0.9,0.3h0.1c0.3,0.1,0.6,0.2,0.8,0.3c0.1,0,0.1,0,0.2,0.1c0.2,0.1,0.5,0.1,0.7,0.2h0.1c0.2,0.1,0.4,0.1,0.5,0.2
		l0,0c0.2,0,0.3,0.1,0.4,0.1c0,0,0,0,0.1,0s0.2,0.1,0.2,0.1l0,0h0.1c0,0,25,7.5,56.7-14c0.7-0.5,1.3-0.9,2-1.4
		c0.2-0.1,0.3-0.2,0.5-0.3c0.6-0.5,1.3-1,1.9-1.5l0.1-0.1c0.6-0.5,1.2-1,1.8-1.6c0.1-0.1,0.2-0.2,0.3-0.3c0.6-0.6,1.2-1.1,1.8-1.7
		c0,0,0,0,0.1-0.1c0.6-0.6,1.1-1.2,1.7-1.8c0.1-0.1,0.1-0.1,0.2-0.2c0.6-0.6,1.1-1.3,1.7-1.9l0,0c0.6-0.7,1.1-1.3,1.6-2
		c0,0,0-0.1,0.1-0.1c0.5-0.7,1.1-1.4,1.6-2.1l0,0l0,0c17.2-23.8,20.6-57,20.8-59.5l0,0c0-0.1,0-0.1,0-0.1S806,508.7,806,508.6z"/>
	<path class="st0" d="M608.8,89.3c0.5,0,1.1-0.1,1.6-0.1c4.4-0.3,9.6-0.6,15-0.9c1.3-0.1,2.7-0.1,4-0.2c2.7-0.1,5.4-0.2,8-0.3
		c1.3,0,2.6-0.1,3.8-0.1s2.4,0,3.6-0.1c0.6,0,1.2,0,1.7,0c17.9,0,50.6,3.2,50.6,3.2l0,0c0,0,0-0.1-0.1-0.3v-0.1c0-0.1,0-0.1,0-0.2
		l0,0c0-0.1,0-0.2-0.1-0.3c0-0.1,0-0.1,0-0.2v-0.1c0-0.2-0.1-0.5-0.2-0.8v-0.1c0-0.1-0.1-0.3-0.1-0.4c0,0,0,0,0-0.1
		c-2.3-11-11.4-53.8-19.4-66.8C668.1,6.4,653.5,0,642.6,0S629,3.4,619.9,10.1c-9.1,6.7-15.3,20.6-16.9,27.9
		c-1.2,5.5-3.3,32.4-4.3,45.2l0,0c0,0.1,0,0.3,0,0.4c0,0.1,0,0.1,0,0.2c0,0.1,0,0.3,0,0.4s0,0.3,0,0.4c0,0.1,0,0.3,0,0.4
		s0,0.2,0,0.3v0.1c0,0.2,0,0.4,0,0.6l0,0c0,0.6-0.1,1.1-0.1,1.6c0,0.2,0,0.3,0,0.5l0,0c-0.1,1-0.1,1.6-0.1,1.8c0,0.1,0,0.1,0,0.1
		s1.9-0.1,5-0.4C604.8,89.5,606.7,89.4,608.8,89.3z"/>
	<path class="st0" d="M207.8,90L207.8,90c0-0.3-0.1-0.9-0.1-1.9l0,0c0-0.2,0-0.3,0-0.5c0-0.5-0.1-1-0.1-1.6l0,0c0-0.2,0-0.4,0-0.6
		v-0.1c0-0.1,0-0.2,0-0.3s0-0.3,0-0.4c0-0.1,0-0.3,0-0.4s0-0.3,0-0.4c0-0.1,0-0.2,0-0.2c0-0.1,0-0.2,0-0.3
		c-1-12.8-3.1-39.7-4.3-45.2c-1.6-7.3-7.7-21.3-16.9-27.9C177.2,3.6,174.2,0,163.4,0c-10.8,0-25.4,6.4-34.6,21.4
		c-8,13-17.1,55.8-19.4,66.8c0,0,0,0,0,0.1c0,0.2-0.1,0.3-0.1,0.4v0.1c-0.1,0.3-0.1,0.6-0.2,0.8v0.1c0,0.1,0,0.1,0,0.2
		c0,0.1,0,0.2-0.1,0.3l0,0c0,0.1,0,0.1,0,0.2v0.1c0,0.1,0,0.2-0.1,0.3l0,0c0,0,32.7-3.2,50.6-3.2S207.8,90,207.8,90z"/>
</g>
<linearGradient id="SVGID_1_" gradientUnits="userSpaceOnUse" x1="171.5" y1="276.95" x2="635.2" y2="276.95">
	<stop  offset="0" style="stop-color:#462523"/>
	<stop  offset="0.25" style="stop-color:#CB9B51"/>
	<stop  offset="0.4" style="stop-color:#F6E27A"/>
	<stop  offset="0.5" style="stop-color:#F6F2C0"/>
	<stop  offset="0.6" style="stop-color:#F6E27A"/>
	<stop  offset="0.75" style="stop-color:#CB9B51"/>
	<stop  offset="1" style="stop-color:#462523"/>
</linearGradient>
<path class="st1" d="M171.5,251.7c4.3-0.7,9.8-1.1,15.7-1.1c10.1,0,17,2.1,22,6.2c5.2,4.2,8.4,10.6,8.4,19.8
	c0,9.6-3.3,16.8-8.4,21.4c-5.4,4.9-13.9,7.4-24.4,7.4c-5.8,0-10.1-0.3-13.3-0.7L171.5,251.7L171.5,251.7z M181.4,297.4
	c1.4,0.2,3.4,0.2,5.4,0.2c12.8,0.1,20.4-7,20.4-20.6c0.1-11.9-6.8-18.7-19.1-18.7c-3.1,0-5.4,0.2-6.7,0.6L181.4,297.4L181.4,297.4z
	 M236.5,255.1c0,3-2.2,5.3-5.6,5.3c-3.3,0-5.4-2.3-5.4-5.3c0-3,2.2-5.4,5.5-5.4S236.4,252.1,236.5,255.1z M226,304.9v-39h9.9v39H226
	z M246,295.9c2.2,1.4,6.5,2.8,10,2.8c4.3,0,6.2-1.8,6.2-4.3c0-2.6-1.6-4-6.4-5.7c-7.6-2.6-10.8-6.8-10.7-11.4
	c0-6.9,5.7-12.2,14.7-12.2c4.3,0,8.1,1.1,10.3,2.3l-1.9,7c-1.7-1-4.8-2.2-8.2-2.2c-3.5,0-5.4,1.7-5.4,4.1c0,2.5,1.8,3.7,6.8,5.4
	c7,2.6,10.3,6.2,10.4,11.9c0,7-5.5,12.2-15.8,12.2c-4.7,0-9-1.1-11.8-2.7L246,295.9z M308.5,303.7c-2.1,1-6.2,2-11,2
	c-12.2,0-20.1-7.8-20.1-19.8c0-11.7,8-20.8,21.7-20.8c3.6,0,7.3,0.8,9.5,1.8l-1.8,7.4c-1.6-0.7-3.9-1.5-7.4-1.5
	c-7.5,0-12,5.5-11.9,12.6c0,8,5.2,12.6,11.9,12.6c3.4,0,5.8-0.7,7.8-1.5L308.5,303.7z M352.1,285.1c0,14.3-10.1,20.7-20,20.7
	c-11,0-19.5-7.6-19.5-20.1c0-12.8,8.4-20.6,20.2-20.6C344.3,265.1,352.1,273.3,352.1,285.1z M322.7,285.5c0,7.5,3.7,13.2,9.7,13.2
	c5.6,0,9.5-5.5,9.5-13.4c0-6.1-2.7-13-9.4-13C325.5,272.3,322.7,279,322.7,285.5z M360.2,277.6c0-4.5-0.1-8.2-0.3-11.6h8.6l0.5,5.8
	h0.2c1.7-3,5.9-6.7,12.4-6.7c6.8,0,13.8,4.4,13.8,16.7v23.1h-9.8v-22c0-5.6-2.1-9.8-7.4-9.8c-3.9,0-6.6,2.8-7.7,5.8
	c-0.3,0.9-0.4,2.1-0.4,3.2V305h-9.9L360.2,277.6L360.2,277.6z M405.9,277.6c0-4.5-0.1-8.2-0.3-11.6h8.6l0.5,5.8h0.2
	c1.7-3,5.9-6.7,12.4-6.7c6.8,0,13.8,4.4,13.8,16.7v23.1h-9.8v-22c0-5.6-2.1-9.8-7.4-9.8c-3.9,0-6.6,2.8-7.7,5.8
	c-0.3,0.9-0.4,2.1-0.4,3.2V305h-9.9V277.6L405.9,277.6z M458.6,288.2c0.2,7,5.8,10.1,12,10.1c4.6,0,7.8-0.6,10.8-1.8l1.4,6.8
	c-3.4,1.4-8,2.4-13.6,2.4c-12.6,0-20.1-7.8-20.1-19.7c0-10.8,6.6-21,19-21c12.6,0,16.8,10.4,16.8,19c0,1.8-0.2,3.3-0.3,4.2H458.6z
	 M475.8,281.3c0.1-3.6-1.5-9.5-8.1-9.5c-6.1,0-8.6,5.5-9,9.5H475.8z M521.6,303.7c-2.1,1-6.2,2-11,2c-12.2,0-20.1-7.8-20.1-19.8
	c0-11.7,8-20.8,21.7-20.8c3.6,0,7.3,0.8,9.5,1.8l-1.8,7.4c-1.6-0.7-3.9-1.5-7.4-1.5c-7.5,0-12,5.5-11.9,12.6c0,8,5.2,12.6,11.9,12.6
	c3.4,0,5.8-0.7,7.8-1.5L521.6,303.7z M541.4,254.9V266h9.4v7.4h-9.4v17.2c0,4.7,1.3,7.2,5,7.2c1.7,0,3-0.2,3.8-0.5l0.2,7.5
	c-1.4,0.6-4,1-7.1,1c-3.6,0-6.6-1.2-8.5-3.2c-2.1-2.2-3-5.8-3-10.9v-18.3h-5.6V266h5.6v-8.8L541.4,254.9z M564.6,288.2
	c0.2,7,5.8,10.1,12,10.1c4.6,0,7.8-0.6,10.8-1.8l1.4,6.8c-3.4,1.4-8,2.4-13.6,2.4c-12.6,0-20.1-7.8-20.1-19.7c0-10.8,6.6-21,19-21
	c12.6,0,16.8,10.4,16.8,19c0,1.8-0.2,3.3-0.3,4.2H564.6z M581.8,281.3c0.1-3.6-1.5-9.5-8.1-9.5c-6.1,0-8.6,5.5-9,9.5H581.8z
	 M634.9,248.1V294c0,4,0.2,8.3,0.3,11h-8.8l-0.4-6.2h-0.2c-2.3,4.3-7,7-12.7,7c-9.3,0-16.6-7.9-16.6-19.9
	c-0.1-13,8.1-20.8,17.4-20.8c5.4,0,9.2,2.2,11,5.1h0.2v-22.1H634.9z M625,282.2c0-0.8-0.1-1.8-0.2-2.6c-0.9-3.8-4-7-8.5-7
	c-6.3,0-9.8,5.6-9.8,12.9c0,7.1,3.5,12.3,9.8,12.3c4,0,7.5-2.7,8.5-7c0.2-0.9,0.3-1.8,0.3-2.9L625,282.2L625,282.2z"/>
</svg>
