<?xml version="1.0" encoding="utf-8"?>
<!-- Generator: Adobe Illustrator 22.0.1, SVG Export Plug-In . SVG Version: 6.00 Build 0)  -->
<svg version="1.1" id="Layer_1" xmlns="http://www.w3.org/2000/svg" xmlns:xlink="http://www.w3.org/1999/xlink" x="0px" y="0px"
	 width="42.3px" height="42.3px" viewBox="0 0 42.3 42.3" style="enable-background:new 0 0 42.3 42.3;" xml:space="preserve">
<style type="text/css">
	.st0{fill:#1A1A1A;}
	.st1{fill:url(#SVGID_1_);}
	.st2{fill:url(#SVGID_2_);}
	.st3{fill:url(#SVGID_3_);}
</style>
<g>
	<g>
		<path d="M21.1,42.4c-11.7,0-21.2-9.5-21.2-21.2S9.4,0,21.1,0s21.2,9.5,21.2,21.2S32.8,42.4,21.1,42.4z M21.1,2
			C10.5,2,1.9,10.6,1.9,21.2s8.6,19.2,19.2,19.2s19.2-8.6,19.2-19.2S31.7,2,21.1,2z"/>
		<circle class="st0" cx="21.1" cy="21.2" r="20.2"/>
	</g>
	<g>
		<g>
			<linearGradient id="SVGID_1_" gradientUnits="userSpaceOnUse" x1="17.5" y1="21.0501" x2="29.3" y2="21.0501">
				<stop  offset="0" style="stop-color:#462523"/>
				<stop  offset="0.25" style="stop-color:#CB9B51"/>
				<stop  offset="0.4" style="stop-color:#F6E27A"/>
				<stop  offset="0.5" style="stop-color:#F6F2C0"/>
				<stop  offset="0.6" style="stop-color:#F6E27A"/>
				<stop  offset="0.75" style="stop-color:#CB9B51"/>
				<stop  offset="1" style="stop-color:#462523"/>
			</linearGradient>
			<path class="st1" d="M22.2,27.8V25v-3.5V15c0-0.5,0.1-0.8,0.3-1c0.1-0.2,0.4-0.3,0.7-0.2c0.6,0.2,0.9,0.7,0.9,1.7v6.9
				c0.8,0.4,1.5,0.5,2.1,0.5s1.2-0.2,1.6-0.5c1-0.7,1.5-1.9,1.5-3.7c0-1.9-0.4-3.4-1.2-4.3c-0.8-1-2.1-1.9-4.1-2.6
				c-1.3-0.4-2.5-0.8-3.6-1.1s-2-0.5-2.9-0.7v12.2l0,0v2.7l0,0v1.7l0,0v2.5l0,0v1.5l4.7,1.5v-3.6l0,0V27.8z"/>
		</g>
		<g>
			<linearGradient id="SVGID_2_" gradientUnits="userSpaceOnUse" x1="6.7999" y1="25.85" x2="17.2" y2="25.85">
				<stop  offset="0" style="stop-color:#462523"/>
				<stop  offset="0.25" style="stop-color:#CB9B51"/>
				<stop  offset="0.4" style="stop-color:#F6E27A"/>
				<stop  offset="0.5" style="stop-color:#F6F2C0"/>
				<stop  offset="0.6" style="stop-color:#F6E27A"/>
				<stop  offset="0.75" style="stop-color:#CB9B51"/>
				<stop  offset="1" style="stop-color:#462523"/>
			</linearGradient>
			<path class="st2" d="M17.2,26.8l-1.7,0.6l-0.9,0.4L13,28.1l-1.5-0.2c-0.3-0.2-0.4-0.4-0.2-0.6c0.1-0.1,0.2-0.1,0.3-0.2
				c0.1-0.1,0.3-0.1,0.4-0.2l1.1-0.4l4.1-1.5v-2.7l-1.7,0.5l-5.5,2l-1,0.4c-1.5,0.6-2.2,1.2-2.2,1.8c0.1,0.8,1,1.5,2.7,1.9
				c0.7,0.2,1.4,0.3,2.1,0.4c0.7,0.1,1.4,0.1,2.2,0.1c1,0,2.1-0.1,3.3-0.3v-2.3H17.2z"/>
		</g>
		<g>
			<linearGradient id="SVGID_3_" gradientUnits="userSpaceOnUse" x1="22.6" y1="27.9293" x2="35.4001" y2="27.9293">
				<stop  offset="0" style="stop-color:#462523"/>
				<stop  offset="0.25" style="stop-color:#CB9B51"/>
				<stop  offset="0.4" style="stop-color:#F6E27A"/>
				<stop  offset="0.5" style="stop-color:#F6F2C0"/>
				<stop  offset="0.6" style="stop-color:#F6E27A"/>
				<stop  offset="0.75" style="stop-color:#CB9B51"/>
				<stop  offset="1" style="stop-color:#462523"/>
			</linearGradient>
			<path class="st3" d="M33,24.5c-0.9-0.3-1.7-0.5-2.5-0.6s-1.7-0.2-2.5-0.1c-0.9,0-1.9,0.2-2.8,0.3c-0.8,0.2-1.7,0.4-2.6,0.8v2.8
				l3.9-1.4l1.6-0.5l1.1-0.3h1.4c0.3,0.1,0.6,0.2,0.7,0.4c0,0.2-0.2,0.4-0.8,0.6L29.1,27l-6.5,2.4v2.7l3.5-1.3l6.4-2.3l0.7-0.4
				c1.5-0.5,2.2-1.2,2.2-1.9C35.4,25.6,34.6,25,33,24.5z"/>
		</g>
	</g>
</g>
</svg>
