<?xml version="1.0" encoding="utf-8"?>
<!-- Generator: Adobe Illustrator 22.0.1, SVG Export Plug-In . SVG Version: 6.00 Build 0)  -->
<svg version="1.1" id="Layer_1" xmlns="http://www.w3.org/2000/svg" xmlns:xlink="http://www.w3.org/1999/xlink" x="0px" y="0px"
	 width="286px" height="94px" viewBox="0 0 286 94" style="enable-background:new 0 0 286 94;" xml:space="preserve">
<style type="text/css">
	.st0{fill:url(#SVGID_1_);}
	.st1{fill:#8C8C8C;}
	.st2{fill:#C9C9C9;}
	.st3{fill:#0D0D0D;}
	.st4{fill:#1A1A1A;}
</style>
<g>
	<g>
		<linearGradient id="SVGID_1_" gradientUnits="userSpaceOnUse" x1="0" y1="47" x2="94" y2="47">
			<stop  offset="0" style="stop-color:#462523"/>
			<stop  offset="0.25" style="stop-color:#CB9B51"/>
			<stop  offset="0.4" style="stop-color:#F6E27A"/>
			<stop  offset="0.5" style="stop-color:#F6F2C0"/>
			<stop  offset="0.6" style="stop-color:#F6E27A"/>
			<stop  offset="0.75" style="stop-color:#CB9B51"/>
			<stop  offset="1" style="stop-color:#462523"/>
		</linearGradient>
		<path class="st0" d="M47,94C21.1,94,0,72.9,0,47S21.1,0,47,0s47,21.1,47,47S72.9,94,47,94z"/>
		<path class="st1" d="M47,3c24.3,0,44,19.7,44,44S71.3,91,47,91S3,71.3,3,47S22.7,3,47,3 M47,0C21,0,0,21,0,47s21,47,47,47
			s47-21,47-47S73,0,47,0L47,0z"/>
	</g>
	<circle class="st2" cx="47" cy="47" r="27.3"/>
</g>
<g>
	<g>
		<path class="st3" d="M239,92.5c-25.1,0-45.5-20.4-45.5-45.5S213.9,1.5,239,1.5s45.5,20.4,45.5,45.5S264.1,92.5,239,92.5z"/>
		<path d="M239,3c24.3,0,44,19.7,44,44s-19.7,44-44,44s-44-19.7-44-44S214.7,3,239,3 M239,0c-26,0-47,21-47,47s21,47,47,47
			s47-21,47-47S265,0,239,0L239,0z"/>
	</g>
	<circle class="st4" cx="239" cy="47" r="27.3"/>
	<g>
		<path class="st2" d="M218.7,33.5h12.6c5.8,0,8.7,2.7,8.7,7.1c0,5.1-3.5,6.4-4.4,6.7v0.1c1.6,0.2,3.9,1.4,3.9,5.6
			c0,3.1,0.4,5.9,1.4,7h-5c-0.7-1.1-0.7-2.6-0.7-3.9c0-4.8-1-7-5.3-7h-6.8V60h-4.6V33.5H218.7z M223.3,45.6h7.6c3,0,4.5-1.4,4.5-4.2
			c0-3.4-2.2-4-4.6-4h-7.5V45.6z"/>
		<path class="st2" d="M250.3,44.8c2.8,0.1,5.7-0.9,5.7-4.1c0-2.2-1.7-3.7-4-3.7c-2.9,0-4.4,2.6-4.3,5.3h-4.2c0.2-5,3.4-8.8,8.6-8.8
			c4,0,8.2,2.3,8.2,6.9c0,2.6-1.1,4.7-3.7,5.5V46c3,0.6,4.7,3.1,4.7,6.5c0,4.9-4.3,7.9-9.2,7.9c-6,0-9-3.6-9.1-9h4.2
			c-0.1,3.1,1.6,5.5,4.9,5.5c2.8,0,5-1.7,5-4.6c0-4-3.4-4.5-6.8-4.4L250.3,44.8L250.3,44.8z"/>
	</g>
</g>
<g>
	<g>
		<path class="st3" d="M143,92.5c-25.1,0-45.5-20.4-45.5-45.5S117.9,1.5,143,1.5s45.5,20.4,45.5,45.5S168.1,92.5,143,92.5z"/>
		<path d="M143,3c24.3,0,44,19.7,44,44s-19.7,44-44,44S99,71.3,99,47S118.7,3,143,3 M143,0c-26,0-47,21-47,47s21,47,47,47
			s47-21,47-47S169,0,143,0L143,0z"/>
	</g>
	<circle class="st4" cx="143" cy="47" r="27.3"/>
	<g>
		<path class="st2" d="M125.1,33.5h4.6v22.4h13.4v4h-18V33.5z"/>
		<path class="st2" d="M151.9,44.8c2.8,0.1,5.7-0.9,5.7-4.1c0-2.2-1.7-3.7-4-3.7c-2.9,0-4.4,2.6-4.3,5.3h-4.2c0.2-5,3.4-8.8,8.6-8.8
			c4,0,8.2,2.3,8.2,6.9c0,2.6-1.1,4.7-3.7,5.5V46c3,0.6,4.7,3.1,4.7,6.5c0,4.9-4.3,7.9-9.2,7.9c-6,0-9-3.6-9.1-9h4.2
			c-0.1,3.1,1.6,5.5,4.9,5.5c2.8,0,5-1.7,5-4.6c0-4-3.4-4.5-6.8-4.4L151.9,44.8L151.9,44.8z"/>
	</g>
</g>
</svg>
