<?xml version="1.0" encoding="utf-8"?>
<!-- Generator: Adobe Illustrator 22.0.1, SVG Export Plug-In . SVG Version: 6.00 Build 0)  -->
<svg version="1.1" id="Layer_1" xmlns="http://www.w3.org/2000/svg" xmlns:xlink="http://www.w3.org/1999/xlink" x="0px" y="0px"
	 width="199.9px" height="90.8px" viewBox="0 0 199.9 90.8" style="enable-background:new 0 0 199.9 90.8;" xml:space="preserve">
<style type="text/css">
	.st0{fill:url(#SVGID_1_);}
	.st1{fill:#C9C9C9;}
	.st2{fill:url(#SVGID_2_);}
</style>
<g>
	<g>
		<linearGradient id="SVGID_1_" gradientUnits="userSpaceOnUse" x1="100.9" y1="45.4" x2="199.9" y2="45.4">
			<stop  offset="0" style="stop-color:#462523"/>
			<stop  offset="0.25" style="stop-color:#CB9B51"/>
			<stop  offset="0.4" style="stop-color:#F6E27A"/>
			<stop  offset="0.5" style="stop-color:#F6F2C0"/>
			<stop  offset="0.6" style="stop-color:#F6E27A"/>
			<stop  offset="0.75" style="stop-color:#CB9B51"/>
			<stop  offset="1" style="stop-color:#462523"/>
		</linearGradient>
		<path class="st0" d="M199.9,90.8c0,0-32.7-3.2-50.6-3.2S100.9,90,100.9,90s3.1-44.7,4.8-52s7.7-21.3,16.9-27.9S134.6,0,145.4,0
			s25.4,6.4,34.6,21.4C189.2,36.4,199.9,90.8,199.9,90.8z"/>
		<path class="st1" d="M101.4,83.2c0,0,26.1-4.4,49-4.4c22.8,0,47.9,4.4,47.9,4.4c1,4.7,1.6,7.6,1.6,7.6s-32.7-3.2-50.6-3.2
			S100.9,90,100.9,90S101.1,87.3,101.4,83.2z"/>
	</g>
	<g>
		<g>
			<path d="M151.4,65.7c-2.1,1.7-3.2,2.6-3.2,2.6c-1.2,1.2-1.9,2.7-2,4.5h9.8v-2.6h-6.2c0.3-0.5,1-1.2,2.1-1.9
				c1.4-0.9,2.3-1.6,2.7-2.1c0.9-1,1.3-2.1,1.3-3.3c0-1.4-0.5-2.5-1.4-3.3c-0.9-0.8-2.1-1.2-3.5-1.2c-3.1,0-4.7,1.7-4.7,5h2.7
				c0-1.8,0.7-2.7,2.1-2.7c1.3,0,2,0.7,2,2.1C153.2,63.9,152.6,64.8,151.4,65.7z"/>
		</g>
		<path d="M133.9,67.2h3c1.5,0,2.3,0.6,2.4,1.9c0.1,1.2,0.2,2.5,0.3,3.8h3.3v-0.4c-0.5-0.2-0.7-0.7-0.7-1.5c0-0.2,0-0.4,0.1-0.8
			v-0.7c0-1.7-0.6-2.9-1.8-3.5c1.4-0.5,2.2-1.6,2.2-3.4c0-1.3-0.4-2.3-1.3-3c-0.8-0.7-1.9-1-3.2-1h-7.3v14.3h3V67.2z M133.9,61h3.7
			c1.4,0,2.1,0.6,2.1,1.9s-0.8,1.9-2.3,1.9h-3.5C133.9,64.8,133.9,61,133.9,61z"/>
	</g>
</g>
<g>
	<g>
		<linearGradient id="SVGID_2_" gradientUnits="userSpaceOnUse" x1="0" y1="45.4" x2="98.9" y2="45.4">
			<stop  offset="0" style="stop-color:#462523"/>
			<stop  offset="0.25" style="stop-color:#CB9B51"/>
			<stop  offset="0.4" style="stop-color:#F6E27A"/>
			<stop  offset="0.5" style="stop-color:#F6F2C0"/>
			<stop  offset="0.6" style="stop-color:#F6E27A"/>
			<stop  offset="0.75" style="stop-color:#CB9B51"/>
			<stop  offset="1" style="stop-color:#462523"/>
		</linearGradient>
		<path class="st2" d="M0,90.8c0,0,32.7-3.2,50.6-3.2S98.9,90,98.9,90s-3.1-44.7-4.8-52s-7.7-21.3-16.9-27.9S65.3,0,54.5,0
			S29.1,6.4,19.9,21.4C10.7,36.4,0,90.8,0,90.8z"/>
		<path class="st1" d="M98.4,83.2c0,0-26.1-4.4-49-4.4c-22.8,0-47.9,4.4-47.9,4.4c-1,4.7-1.6,7.6-1.6,7.6s32.7-3.2,50.6-3.2
			S98.9,90,98.9,90S98.8,87.3,98.4,83.2z"/>
	</g>
	<g>
		<g>
			<path d="M64.5,65.7c-2.1,1.7-3.2,2.6-3.2,2.6c-1.2,1.2-1.9,2.7-2,4.5H69v-2.6h-6.2c0.3-0.5,1-1.2,2.1-1.9
				c1.4-0.9,2.3-1.6,2.7-2.1c0.9-1,1.3-2.1,1.3-3.3c0-1.4-0.5-2.5-1.4-3.3s-2.1-1.2-3.5-1.2c-3.1,0-4.7,1.7-4.7,5H62
				c0-1.8,0.7-2.7,2.1-2.7c1.3,0,2,0.7,2,2.1C66.2,63.9,65.7,64.8,64.5,65.7z"/>
		</g>
		<polygon points="56,70.2 48.9,70.2 48.9,58.5 45.9,58.5 45.9,72.8 56,72.8 		"/>
	</g>
</g>
</svg>
